0
SECTION
2
HEADER
999
*** POWERPCB  HEADER ***
9
$EXTMIN
10
-8.697
20
-3.627
9
$EXTMAX
10
156.627
20
92.397
9
$FILLMODE
70
0
9
$GRIDMODE
70
1
9
$GRIDUNIT
10
0.05
20
0.05
9
$INSBASE
10
19.68
20
-137.47
9
$LIMCHECK
70
0
9
$PLINEWID
40
0.000254
9
$SNAPMODE
70
1
9
$SNAPUNIT
10
0.025
20
0.025
9
$TEXTSIZE
40
2.54
9
$TEXTSTYLE
7
W0$254
9
$USERI1
70
101
9
$USERI2
70
1
9
$USERI5
70
150
9
$VIEWCTR
10
64.0735613333
20
48.074022
0
ENDSEC
0
SECTION
2
TABLES
999
*** POWERPCB  LTYPE ***
0
TABLE
2
LTYPE
70
7
0
LTYPE
2
CONTINUOUS
70
64
3
---
72
65
73
0
40
0
0
LTYPE
2
TRMIDX_2048
70
64
3
---
72
65
73
2
40
2
49
1
49
1
0
LTYPE
2
TRMIDX_4096
70
64
3
---
72
65
73
2
40
2
49
1
49
1
0
LTYPE
2
SIG_22
70
64
3
VCC_3V3_S3:=40401 0 0
72
65
73
2
40
2
49
1
49
1
0
LTYPE
2
SIG_183
70
64
3
VCC5V0_USB:=40401 0 0
72
65
73
2
40
2
49
1
49
1
0
LTYPE
2
SIG_207
70
64
3
VCC5V0_USB1:=1 0 0
72
65
73
2
40
2
49
1
49
1
0
LTYPE
2
SIG_88
70
64
3
VCC3V3_SYS:=40401 0 0
72
65
73
2
40
2
49
1
49
1
0
LTYPE
2
SIG_4
70
64
3
VCC5V0_SYS:=40401 0 0
72
65
73
2
40
2
49
1
49
1
0
ENDTAB
999
*** POWERPCB  LAYER ***
0
TABLE
2
LAYER
70
12
0
LAYER
2
DBLAYERS
70
1
62
-254
6
CONTINUOUS
0
LAYER
2
BOARD_OUTLINE_00
70
0
62
254
6
CONTINUOUS
0
LAYER
2
BOARD_CUTOUT_00
70
0
62
254
6
CONTINUOUS
0
LAYER
2
DIMENSION7_00
70
0
62
254
6
CONTINUOUS
0
LAYER
2
DIMENSION1_00
70
0
62
254
6
CONTINUOUS
0
LAYER
2
DIMENSION3_00
70
0
62
254
6
CONTINUOUS
0
LAYER
2
DIMENSION2_00
70
0
62
254
6
CONTINUOUS
0
LAYER
2
DIMENSION4_00
70
0
62
254
6
CONTINUOUS
0
LAYER
2
DIMENSION5_00
70
0
62
254
6
CONTINUOUS
0
LAYER
2
DIMENSION6_00
70
0
62
254
6
CONTINUOUS
0
LAYER
2
COPPER_04
70
0
62
56
6
CONTINUOUS
0
LAYER
2
PCB_PARAMS
70
1
62
-254
6
CONTINUOUS
0
ENDTAB
999
*** POWERPCB  TEXT STYLE ***
0
TABLE
2
STYLE
70
1
0
STYLE
2
W0$254
70
64
40
0
41
0.75
42
0
50
0
71
0
3
simplex
0
ENDTAB
0
ENDSEC
0
SECTION
2
BLOCKS
999
*** POWERPCB  DBLAYER ***
0
BLOCK
2
DBLAYERS
8
0
10
0
20
0
3
DBLAYERS
70
64
0
TEXT
8
DBLAYERS
10
0
20
-3.048
40
1.778
1
__It__Is__Job__Name__:=CM5 IO X2.1_2023121301.pcb
999
 *  1.Number             2.Type                  3.RouteColor
999
 *  4.ViaColor           5.PadColor              6.CopperColor
999
 *  7.2DLineColor        8.TextColor             9.ErrorColor
999
 * 10.TopComponentColor 11.BottomComponentColor 12.RoutingDirection
999
 * 13.LayerThickness    14.CopperThickness      15.Dielectric
999
 * 16.IsRouteable       17.IsVisible            18.IsSelectable
999
 * 19.IsPrepreg         20.AssSilkScreen        21.AssPasteMask
999
 * 22.AssSolderMask     23.AssAssembly
0
TEXT
8
DBLAYERS
10
0
20
-6.096
40
1.778
1
Bottom:=4 1 6 6 6 6 6 6 14 0 29 1 0 51435 3.2999999523 1 1 1 0 129 122 128 130 0 0 1 7 0 26 12 
0
TEXT
8
DBLAYERS
10
0
20
-9.144
40
1.778
1
Solder Mask Bottom:=128 5 0 0 4 24 24 24 12 0 0 2 0 0 3.2999999523 0 1 1 0 -1 -1 -1 -1 0 0 0 24 0 0 0 
0
TEXT
8
DBLAYERS
10
0
20
-12.192
40
1.778
1
Silkscreen Bottom:=129 3 0 0 4 30 30 30 12 0 29 2 0 0 3.2999999523 0 1 1 0 -1 -1 -1 -1 0 0 0 0 0 0 29 
0
ENDBLK
999
*** POWERPCB  BOARD ***
0
BLOCK
2
BOARD_74
8
0
10
0
20
0
3
BOARD_74
70
64
0
POLYLINE
8
BOARD_OUTLINE_00
66
1
40
0.1
41
0.1
70
1
0
VERTEX
8
BOARD_OUTLINE_00
10
0
20
-3.5
42
-0.4142135624
0
VERTEX
8
BOARD_OUTLINE_00
10
3.5
20
0
0
VERTEX
8
BOARD_OUTLINE_00
10
156.51
20
0
42
-0.4142135624
0
VERTEX
8
BOARD_OUTLINE_00
10
160.01
20
-3.5
0
VERTEX
8
BOARD_OUTLINE_00
10
160.01
20
-86.52
42
-0.4142135624
0
VERTEX
8
BOARD_OUTLINE_00
10
156.51
20
-90.02
0
VERTEX
8
BOARD_OUTLINE_00
10
3.5
20
-90.02
42
-0.4142135624
0
VERTEX
8
BOARD_OUTLINE_00
10
0
20
-86.52
0
SEQEND
0
INSERT
2
SMOOTH_0$1
8
BOARD_OUTLINE_00
10
0
20
-3.5
0
INSERT
2
SMOOTH_0$1
8
BOARD_OUTLINE_00
10
3.5
20
0
0
POLYLINE
8
BOARD_CUTOUT_00
66
1
40
0.1
41
0.1
70
1
0
VERTEX
8
BOARD_CUTOUT_00
10
12.35067
20
-82.00042
42
1
0
VERTEX
8
BOARD_CUTOUT_00
10
9.65067
20
-82.00042
42
1
0
SEQEND
0
POLYLINE
8
BOARD_CUTOUT_00
66
1
40
0.1
41
0.1
70
1
0
VERTEX
8
BOARD_CUTOUT_00
10
4.85
20
-86.52
42
1
0
VERTEX
8
BOARD_CUTOUT_00
10
2.15
20
-86.52
42
1
0
SEQEND
0
POLYLINE
8
BOARD_CUTOUT_00
66
1
40
0.1
41
0.1
70
1
0
VERTEX
8
BOARD_CUTOUT_00
10
12.35067
20
-13.00042
42
1
0
VERTEX
8
BOARD_CUTOUT_00
10
9.65067
20
-13.00042
42
1
0
SEQEND
0
POLYLINE
8
BOARD_CUTOUT_00
66
1
40
0.1
41
0.1
70
1
0
VERTEX
8
BOARD_CUTOUT_00
10
4.85067
20
-37.50042
42
1
0
VERTEX
8
BOARD_CUTOUT_00
10
2.15067
20
-37.50042
42
1
0
SEQEND
0
POLYLINE
8
BOARD_CUTOUT_00
66
1
40
0.1
41
0.1
70
1
0
VERTEX
8
BOARD_CUTOUT_00
10
62.85067
20
-86.50042
42
1
0
VERTEX
8
BOARD_CUTOUT_00
10
60.15067
20
-86.50042
42
1
0
SEQEND
0
POLYLINE
8
BOARD_CUTOUT_00
66
1
40
0.1
41
0.1
70
1
0
VERTEX
8
BOARD_CUTOUT_00
10
146.35067
20
-82.00042
42
1
0
VERTEX
8
BOARD_CUTOUT_00
10
143.65067
20
-82.00042
42
1
0
SEQEND
0
POLYLINE
8
BOARD_CUTOUT_00
66
1
40
0.1
41
0.1
70
1
0
VERTEX
8
BOARD_CUTOUT_00
10
146.35067
20
-13.00042
42
1
0
VERTEX
8
BOARD_CUTOUT_00
10
143.65067
20
-13.00042
42
1
0
SEQEND
0
POLYLINE
8
BOARD_CUTOUT_00
66
1
40
0.1
41
0.1
70
1
0
VERTEX
8
BOARD_CUTOUT_00
10
62.85067
20
-37.50042
42
1
0
VERTEX
8
BOARD_CUTOUT_00
10
60.15067
20
-37.50042
42
1
0
SEQEND
0
POLYLINE
8
BOARD_CUTOUT_00
66
1
40
0.1
41
0.1
70
1
0
VERTEX
8
BOARD_CUTOUT_00
10
155.175
20
-4.625
0
VERTEX
8
BOARD_CUTOUT_00
10
155.175
20
-6.2
0
VERTEX
8
BOARD_CUTOUT_00
10
156.75
20
-6.2
0
VERTEX
8
BOARD_CUTOUT_00
10
156.75
20
-4.625
0
SEQEND
0
INSERT
2
SMOOTH_0$1
8
BOARD_CUTOUT_00
10
155.175
20
-4.625
0
INSERT
2
SMOOTH_0$1
8
BOARD_CUTOUT_00
10
155.175
20
-6.2
0
INSERT
2
SMOOTH_0$1
8
BOARD_CUTOUT_00
10
156.75
20
-6.2
0
INSERT
2
SMOOTH_0$1
8
BOARD_CUTOUT_00
10
156.75
20
-4.625
0
ENDBLK
999
*** POWERPCB  2DLINE ***
0
BLOCK
2
D_1dfeghi_9
8
0
10
0
20
0
3
D_1dfeghi_9
70
64
0
POLYLINE
8
DIMENSION7_00
6
TRMIDX_2048
66
1
40
0.0254
41
0.0254
0
VERTEX
8
DIMENSION7_00
10
82.95
20
-3.35743
0
VERTEX
8
DIMENSION7_00
10
82.9506666667
20
-3.35743
0
SEQEND
0
POLYLINE
8
DIMENSION7_00
6
TRMIDX_2048
66
1
40
0.0254
41
0.0254
0
VERTEX
8
DIMENSION7_00
10
-77.1
20
-0.45743
0
VERTEX
8
DIMENSION7_00
10
-77.0993333333
20
-0.45743
0
SEQEND
0
POLYLINE
8
DIMENSION1_00
6
TRMIDX_2048
66
1
40
0.254
41
0.254
0
VERTEX
8
DIMENSION1_00
10
82.95
20
4.94257
0
VERTEX
8
DIMENSION1_00
10
7.7567726667
20
4.94257
0
SEQEND
0
POLYLINE
8
DIMENSION3_00
6
TRMIDX_2048
66
1
40
0.254
41
0.254
70
1
0
VERTEX
8
DIMENSION3_00
10
82.95
20
4.94257
0
VERTEX
8
DIMENSION3_00
10
80.41
20
4.30757
0
VERTEX
8
DIMENSION3_00
10
80.41
20
5.57757
0
SEQEND
0
POLYLINE
8
DIMENSION2_00
6
TRMIDX_2048
66
1
40
0.254
41
0.254
0
VERTEX
8
DIMENSION2_00
10
-77.1
20
4.94257
0
VERTEX
8
DIMENSION2_00
10
-1.9067726667
20
4.94257
0
SEQEND
0
POLYLINE
8
DIMENSION4_00
6
TRMIDX_2048
66
1
40
0.254
41
0.254
70
1
0
VERTEX
8
DIMENSION4_00
10
-77.1
20
4.94257
0
VERTEX
8
DIMENSION4_00
10
-74.56
20
5.57757
0
VERTEX
8
DIMENSION4_00
10
-74.56
20
4.30757
0
SEQEND
0
POLYLINE
8
DIMENSION5_00
6
TRMIDX_2048
66
1
40
0.254
41
0.254
0
VERTEX
8
DIMENSION5_00
10
82.95
20
-2.08743
0
VERTEX
8
DIMENSION5_00
10
82.95
20
6.21257
0
SEQEND
0
POLYLINE
8
DIMENSION6_00
6
TRMIDX_2048
66
1
40
0.254
41
0.254
0
VERTEX
8
DIMENSION6_00
10
-77.1
20
0.81257
0
VERTEX
8
DIMENSION6_00
10
-77.1
20
6.21257
0
SEQEND
0
ENDBLK
0
BLOCK
2
D_2dfeghi_10
8
0
10
0
20
0
3
D_2dfeghi_10
70
64
0
POLYLINE
8
DIMENSION7_00
6
TRMIDX_4096
66
1
40
0.0254
41
0.0254
0
VERTEX
8
DIMENSION7_00
10
5.220114
20
-28.23
0
VERTEX
8
DIMENSION7_00
10
5.2207806667
20
-28.23
0
SEQEND
0
POLYLINE
8
DIMENSION7_00
6
TRMIDX_4096
66
1
40
0.0254
41
0.0254
0
VERTEX
8
DIMENSION7_00
10
4.770114
20
61.77
0
VERTEX
8
DIMENSION7_00
10
4.7707806667
20
61.77
0
SEQEND
0
POLYLINE
8
DIMENSION1_00
6
TRMIDX_4096
66
1
40
0.254
41
0.254
0
VERTEX
8
DIMENSION1_00
10
-4.129886
20
-28.23
0
VERTEX
8
DIMENSION1_00
10
-4.129886
20
14.908
0
SEQEND
0
POLYLINE
8
DIMENSION3_00
6
TRMIDX_4096
66
1
40
0.254
41
0.254
70
1
0
VERTEX
8
DIMENSION3_00
10
-4.129886
20
-28.23
0
VERTEX
8
DIMENSION3_00
10
-4.764886
20
-25.69
0
VERTEX
8
DIMENSION3_00
10
-3.494886
20
-25.69
0
SEQEND
0
POLYLINE
8
DIMENSION2_00
6
TRMIDX_4096
66
1
40
0.254
41
0.254
0
VERTEX
8
DIMENSION2_00
10
-4.129886
20
61.77
0
VERTEX
8
DIMENSION2_00
10
-4.129886
20
18.337
0
SEQEND
0
POLYLINE
8
DIMENSION4_00
6
TRMIDX_4096
66
1
40
0.254
41
0.254
70
1
0
VERTEX
8
DIMENSION4_00
10
-4.129886
20
61.77
0
VERTEX
8
DIMENSION4_00
10
-3.494886
20
59.23
0
VERTEX
8
DIMENSION4_00
10
-4.764886
20
59.23
0
SEQEND
0
POLYLINE
8
DIMENSION5_00
6
TRMIDX_4096
66
1
40
0.254
41
0.254
0
VERTEX
8
DIMENSION5_00
10
3.950114
20
-28.23
0
VERTEX
8
DIMENSION5_00
10
-5.399886
20
-28.23
0
SEQEND
0
POLYLINE
8
DIMENSION6_00
6
TRMIDX_4096
66
1
40
0.254
41
0.254
0
VERTEX
8
DIMENSION6_00
10
3.500114
20
61.77
0
VERTEX
8
DIMENSION6_00
10
-5.399886
20
61.77
0
SEQEND
0
ENDBLK
999
*** POWERPCB  COPPER ***
0
BLOCK
2
COPPER_87
8
0
10
0
20
0
3
COPPER_87
70
64
0
POLYLINE
8
COPPER_04
66
1
40
0.1
41
0.1
70
1
0
VERTEX
8
COPPER_04
10
0.025
20
0
0
VERTEX
8
COPPER_04
10
-1.225
20
0
0
VERTEX
8
COPPER_04
10
-1.775
20
-0.55
0
VERTEX
8
COPPER_04
10
-1.775
20
-1.325
0
VERTEX
8
COPPER_04
10
-1.225
20
-1.325
0
VERTEX
8
COPPER_04
10
-0.8
20
-0.9
0
VERTEX
8
COPPER_04
10
0.025
20
-0.9
0
SEQEND
0
INSERT
2
SMOOTH_0$1
8
COPPER_04
10
0.025
20
0
0
INSERT
2
SMOOTH_0$1
8
COPPER_04
10
-1.225
20
0
0
INSERT
2
SMOOTH_0$1
8
COPPER_04
10
-1.775
20
-0.55
0
INSERT
2
SMOOTH_0$1
8
COPPER_04
10
-1.775
20
-1.325
0
INSERT
2
SMOOTH_0$1
8
COPPER_04
10
-1.225
20
-1.325
0
INSERT
2
SMOOTH_0$1
8
COPPER_04
10
-0.8
20
-0.9
0
INSERT
2
SMOOTH_0$1
8
COPPER_04
10
0.025
20
-0.9
0
ENDBLK
0
BLOCK
2
COPPER_90
8
0
10
0
20
0
3
COPPER_90
70
64
0
POLYLINE
8
COPPER_04
66
1
40
0.1
41
0.1
70
1
0
VERTEX
8
COPPER_04
10
0
20
0
0
VERTEX
8
COPPER_04
10
0.725
20
-0.725
0
VERTEX
8
COPPER_04
10
1.1
20
-0.725
0
VERTEX
8
COPPER_04
10
1.475
20
-0.35
0
VERTEX
8
COPPER_04
10
1.55
20
-0.425
0
VERTEX
8
COPPER_04
10
1.55
20
0.55
0
VERTEX
8
COPPER_04
10
0
20
0.55
0
SEQEND
0
INSERT
2
SMOOTH_0$1
8
COPPER_04
10
0
20
0
0
INSERT
2
SMOOTH_0$1
8
COPPER_04
10
0.725
20
-0.725
0
INSERT
2
SMOOTH_0$1
8
COPPER_04
10
1.1
20
-0.725
0
INSERT
2
SMOOTH_0$1
8
COPPER_04
10
1.475
20
-0.35
0
INSERT
2
SMOOTH_0$1
8
COPPER_04
10
1.55
20
-0.425
0
INSERT
2
SMOOTH_0$1
8
COPPER_04
10
1.55
20
0.55
0
INSERT
2
SMOOTH_0$1
8
COPPER_04
10
0
20
0.55
0
ENDBLK
0
BLOCK
2
COPPER_91
8
0
10
0
20
0
3
COPPER_91
70
64
0
POLYLINE
8
COPPER_04
66
1
40
0.1
41
0.1
70
1
0
VERTEX
8
COPPER_04
10
0
20
0
0
VERTEX
8
COPPER_04
10
0
20
-1.85
0
VERTEX
8
COPPER_04
10
1.7
20
-1.85
0
VERTEX
8
COPPER_04
10
1.7
20
0
0
SEQEND
0
INSERT
2
SMOOTH_0$1
8
COPPER_04
10
0
20
0
0
INSERT
2
SMOOTH_0$1
8
COPPER_04
10
0
20
-1.85
0
INSERT
2
SMOOTH_0$1
8
COPPER_04
10
1.7
20
-1.85
0
INSERT
2
SMOOTH_0$1
8
COPPER_04
10
1.7
20
0
0
ENDBLK
0
BLOCK
2
COPPER_92
8
0
10
0
20
0
3
COPPER_92
70
64
0
POLYLINE
8
COPPER_04
66
1
40
0.1
41
0.1
70
1
0
VERTEX
8
COPPER_04
10
0
20
0
0
VERTEX
8
COPPER_04
10
0
20
-0.7
0
VERTEX
8
COPPER_04
10
1.225
20
-0.7
0
VERTEX
8
COPPER_04
10
1.225
20
0
0
SEQEND
0
INSERT
2
SMOOTH_0$1
8
COPPER_04
10
0
20
0
0
INSERT
2
SMOOTH_0$1
8
COPPER_04
10
0
20
-0.7
0
INSERT
2
SMOOTH_0$1
8
COPPER_04
10
1.225
20
-0.7
0
INSERT
2
SMOOTH_0$1
8
COPPER_04
10
1.225
20
0
0
ENDBLK
0
BLOCK
2
COPPER_122
8
0
10
0
20
0
3
COPPER_122
70
64
0
POLYLINE
8
COPPER_04
66
1
40
0.1
41
0.1
70
1
0
VERTEX
8
COPPER_04
10
0
20
0
0
VERTEX
8
COPPER_04
10
0
20
-1.31
0
VERTEX
8
COPPER_04
10
1.28
20
-1.31
0
VERTEX
8
COPPER_04
10
1.28
20
0
0
SEQEND
0
INSERT
2
SMOOTH_0$1
8
COPPER_04
10
0
20
0
0
INSERT
2
SMOOTH_0$1
8
COPPER_04
10
0
20
-1.31
0
INSERT
2
SMOOTH_0$1
8
COPPER_04
10
1.28
20
-1.31
0
INSERT
2
SMOOTH_0$1
8
COPPER_04
10
1.28
20
0
0
ENDBLK
0
BLOCK
2
COPPER_123
8
0
10
0
20
0
3
COPPER_123
70
64
0
POLYLINE
8
COPPER_04
66
1
40
0.1
41
0.1
70
1
0
VERTEX
8
COPPER_04
10
0
20
0
0
VERTEX
8
COPPER_04
10
0
20
-1.29
0
VERTEX
8
COPPER_04
10
1.36
20
-1.29
0
VERTEX
8
COPPER_04
10
1.36
20
0
0
SEQEND
0
INSERT
2
SMOOTH_0$1
8
COPPER_04
10
0
20
0
0
INSERT
2
SMOOTH_0$1
8
COPPER_04
10
0
20
-1.29
0
INSERT
2
SMOOTH_0$1
8
COPPER_04
10
1.36
20
-1.29
0
INSERT
2
SMOOTH_0$1
8
COPPER_04
10
1.36
20
0
0
ENDBLK
0
BLOCK
2
COPPER_124
8
0
10
0
20
0
3
COPPER_124
70
64
0
POLYLINE
8
COPPER_04
66
1
40
0.1
41
0.1
70
1
0
VERTEX
8
COPPER_04
10
0
20
0
0
VERTEX
8
COPPER_04
10
0
20
-1.28
0
VERTEX
8
COPPER_04
10
1.21
20
-1.28
0
VERTEX
8
COPPER_04
10
1.21
20
0
0
SEQEND
0
INSERT
2
SMOOTH_0$1
8
COPPER_04
10
0
20
0
0
INSERT
2
SMOOTH_0$1
8
COPPER_04
10
0
20
-1.28
0
INSERT
2
SMOOTH_0$1
8
COPPER_04
10
1.21
20
-1.28
0
INSERT
2
SMOOTH_0$1
8
COPPER_04
10
1.21
20
0
0
ENDBLK
0
BLOCK
2
COPPER_125
8
0
10
0
20
0
3
COPPER_125
70
64
0
POLYLINE
8
COPPER_04
66
1
40
0.1
41
0.1
70
1
0
VERTEX
8
COPPER_04
10
0
20
0
0
VERTEX
8
COPPER_04
10
0
20
-2.2
0
VERTEX
8
COPPER_04
10
1.575
20
-2.2
0
VERTEX
8
COPPER_04
10
1.575
20
0
0
SEQEND
0
INSERT
2
SMOOTH_0$1
8
COPPER_04
10
0
20
0
0
INSERT
2
SMOOTH_0$1
8
COPPER_04
10
0
20
-2.2
0
INSERT
2
SMOOTH_0$1
8
COPPER_04
10
1.575
20
-2.2
0
INSERT
2
SMOOTH_0$1
8
COPPER_04
10
1.575
20
0
0
ENDBLK
0
BLOCK
2
COPPER_128
8
0
10
0
20
0
3
COPPER_128
70
64
0
POLYLINE
8
COPPER_04
66
1
40
0.1
41
0.1
70
1
0
VERTEX
8
COPPER_04
10
0
20
0
0
VERTEX
8
COPPER_04
10
0
20
-1.15
0
VERTEX
8
COPPER_04
10
2.4125
20
-1.15
0
VERTEX
8
COPPER_04
10
2.4125
20
-0.7125
0
VERTEX
8
COPPER_04
10
1.7
20
0
0
SEQEND
0
INSERT
2
SMOOTH_0$1
8
COPPER_04
10
0
20
0
0
INSERT
2
SMOOTH_0$1
8
COPPER_04
10
0
20
-1.15
0
INSERT
2
SMOOTH_0$1
8
COPPER_04
10
2.4125
20
-1.15
0
INSERT
2
SMOOTH_0$1
8
COPPER_04
10
2.4125
20
-0.7125
0
INSERT
2
SMOOTH_0$1
8
COPPER_04
10
1.7
20
0
0
ENDBLK
0
BLOCK
2
COPPER_133
8
0
10
0
20
0
3
COPPER_133
70
64
0
POLYLINE
8
COPPER_04
66
1
40
0.1
41
0.1
70
1
0
VERTEX
8
COPPER_04
10
0
20
0
0
VERTEX
8
COPPER_04
10
0
20
-1.35
0
VERTEX
8
COPPER_04
10
1.175
20
-1.35
0
VERTEX
8
COPPER_04
10
1.175
20
0
0
SEQEND
0
INSERT
2
SMOOTH_0$1
8
COPPER_04
10
0
20
0
0
INSERT
2
SMOOTH_0$1
8
COPPER_04
10
0
20
-1.35
0
INSERT
2
SMOOTH_0$1
8
COPPER_04
10
1.175
20
-1.35
0
INSERT
2
SMOOTH_0$1
8
COPPER_04
10
1.175
20
0
0
ENDBLK
0
BLOCK
2
COPPER_144
8
0
10
0
20
0
3
COPPER_144
70
64
0
POLYLINE
8
COPPER_04
66
1
40
0.1
41
0.1
70
1
0
VERTEX
8
COPPER_04
10
0
20
0
0
VERTEX
8
COPPER_04
10
-0.6875
20
-0.6875
0
VERTEX
8
COPPER_04
10
-0.6875
20
-1.125
0
VERTEX
8
COPPER_04
10
0.5
20
-1.125
0
VERTEX
8
COPPER_04
10
0.5
20
0
0
SEQEND
0
INSERT
2
SMOOTH_0$1
8
COPPER_04
10
0
20
0
0
INSERT
2
SMOOTH_0$1
8
COPPER_04
10
-0.6875
20
-0.6875
0
INSERT
2
SMOOTH_0$1
8
COPPER_04
10
-0.6875
20
-1.125
0
INSERT
2
SMOOTH_0$1
8
COPPER_04
10
0.5
20
-1.125
0
INSERT
2
SMOOTH_0$1
8
COPPER_04
10
0.5
20
0
0
ENDBLK
0
BLOCK
2
COPPER_148
8
0
10
0
20
0
3
COPPER_148
70
64
0
POLYLINE
8
COPPER_04
66
1
40
0.1
41
0.1
70
1
0
VERTEX
8
COPPER_04
10
0
20
0
0
VERTEX
8
COPPER_04
10
0
20
-1.225
0
VERTEX
8
COPPER_04
10
1.225
20
-1.225
0
VERTEX
8
COPPER_04
10
1.225
20
0
0
SEQEND
0
INSERT
2
SMOOTH_0$1
8
COPPER_04
10
0
20
0
0
INSERT
2
SMOOTH_0$1
8
COPPER_04
10
0
20
-1.225
0
INSERT
2
SMOOTH_0$1
8
COPPER_04
10
1.225
20
-1.225
0
INSERT
2
SMOOTH_0$1
8
COPPER_04
10
1.225
20
0
0
ENDBLK
0
BLOCK
2
COPPER_149
8
0
10
0
20
0
3
COPPER_149
70
64
0
POLYLINE
8
COPPER_04
66
1
40
0.1
41
0.1
70
1
0
VERTEX
8
COPPER_04
10
0
20
0
0
VERTEX
8
COPPER_04
10
0
20
-2.2
0
VERTEX
8
COPPER_04
10
4.45
20
-2.2
0
VERTEX
8
COPPER_04
10
4.45
20
0
0
SEQEND
0
INSERT
2
SMOOTH_0$1
8
COPPER_04
10
0
20
0
0
INSERT
2
SMOOTH_0$1
8
COPPER_04
10
0
20
-2.2
0
INSERT
2
SMOOTH_0$1
8
COPPER_04
10
4.45
20
-2.2
0
INSERT
2
SMOOTH_0$1
8
COPPER_04
10
4.45
20
0
0
ENDBLK
999
*** POWERPCB  COMPONENT ***
999
*** POWERPCB  PCB PARAMETER ***
0
BLOCK
2
PCB_PARAMS
8
0
10
0
20
0
3
PCB_PARAMS
70
64
999
 *  1.Job name           2.Backupfile name       3.CursorType
999
 *  4.TearDropFlag       5.HighlighNetsFlag      6.HatchDisplayFlag
999
 *  7.PadsFlag           8.TracksFlag            9.ViasFlag
999
 * 10.CopperFlag        11.LinesFlag            12.TextFlag
999
 * 13.TopComponentFlag  14.BottomComponentFlag  16.ObjectSnapFlags
0
TEXT
8
PCB_PARAMS
10
0
20
-3.048
40
1.778
1
A:=CM5IOX2.1_2023121301.pcb <> 5 0 1 1 1 1 1 1 1 1 1 1 0 502 0
999
 *  1.RefDesHeight       2.RefDesWidth           3.DefaultWidth
999
 *  4.VGX                5.VGY                   6.OVR
999
 *  7.HatchGrid          8.ObjectSnapRadius
0
TEXT
8
PCB_PARAMS
10
0
20
-6.096
40
1.778
1
B:=2.54 0.254 0.1 0.025 0.025 0.0762 0.1 2.54
999
 *  1.ScaleFactor        2.NetAttributeFlags     3.BackupInterval
999
 *  4.WorkingLevel       5.HatchMode             6.HatchDirection
999
 *  7.ConnectionColor    8.BackgroundColor       9.ForegroundColor
999
 * 10.BoardOutlineColor
0
TEXT
8
PCB_PARAMS
10
0
20
-9.144
40
1.778
1
C:=4.7154541016 10010002 3 1 0 0 29 0 8 8
999
 * MitreAngle0 - MitreAngle6
0
TEXT
8
PCB_PARAMS
10
0
20
-12.192
40
1.778
1
D:=324000000 324000000 324000000 324000000 324000000 324000000 324000000
999
 * Hatch & Keepout Parameters
0
TEXT
8
PCB_PARAMS
10
0
20
-15.24
40
1.778
1
E:=0.5 0 0 2.54 0 1
999
 * Fanout Parameters
0
TEXT
8
PCB_PARAMS
10
0
20
-18.288
40
1.778
1
F:=0.025 0.025 6.35 1 2 0 1 1 0 0 1 1 1 1
999
 * Pad Entry Parameters
0
TEXT
8
PCB_PARAMS
10
0
20
-21.336
40
1.778
1
P:= 1 1 1 1
999
 * DFF Parameters
0
TEXT
8
PCB_PARAMS
10
0
20
-24.384
40
1.778
1
Q:=89.9999 3967 114300 114300 114300 5 4 114300 114300 114300 114300 1 114300 1 114300 1 114300 0
0
ENDBLK
999
*** POWERPCB  SMOOTH CIRCLE ***
0
BLOCK
2
SMOOTH_0$1
8
0
10
0
20
0
3
SMOOTH_0$1
70
64
0
POLYLINE
8
0
66
1
40
0.05
41
0.05
70
1
0
VERTEX
8
0
10
-0.025
20
0
42
1
0
VERTEX
8
0
10
0.025
20
0
42
1
0
SEQEND
0
ENDBLK
0
ENDSEC
0
SECTION
2
ENTITIES
999
*** POWERPCB  DBLAYER ***
0
INSERT
2
DBLAYERS
8
0
10
0
20
0
999
*** POWERPCB  BOARD ***
0
INSERT
2
BOARD_74
8
0
10
-3.5
20
86.5
999
*** POWERPCB  2DLINE ***
0
INSERT
2
D_1dfeghi_9
8
0
10
73.55
20
86.05743
0
INSERT
2
D_2dfeghi_10
8
0
10
-3.170114
20
24.73
999
*** POWERPCB  COPPER ***
0
INSERT
2
COPPER_87
8
0
10
137.025
20
29.5
6
SIG_22
0
INSERT
2
COPPER_90
8
0
10
128.725
20
73.8
6
SIG_22
0
INSERT
2
COPPER_91
8
0
10
151.75
20
48.525
6
SIG_22
0
INSERT
2
COPPER_92
8
0
10
128.65
20
23.15
6
SIG_22
0
INSERT
2
COPPER_122
8
0
10
33.69
20
11.98
6
SIG_183
0
INSERT
2
COPPER_123
8
0
10
38.11
20
12.22
6
SIG_207
0
INSERT
2
COPPER_124
8
0
10
42.4
20
6.7
6
SIG_207
0
INSERT
2
COPPER_125
8
0
10
147.8
20
55.975
6
SIG_88
0
INSERT
2
COPPER_128
8
0
10
78.35
20
24.075
6
SIG_183
0
INSERT
2
COPPER_133
8
0
10
26.55
20
72
6
SIG_88
0
INSERT
2
COPPER_144
8
0
10
78.5
20
23.9
6
SIG_183
0
INSERT
2
COPPER_148
8
0
10
127.8
20
82.4
6
SIG_4
0
INSERT
2
COPPER_149
8
0
10
125.4
20
50.025
6
SIG_4
999
*** POWERPCB  FREE TEXT ***
999
*** POWERPCB  COMPONENT ***
999
*** POWERPCB  PCB PARAMETER ***
0
INSERT
2
PCB_PARAMS
8
0
10
0
20
0
0
ENDSEC
0
EOF
