0
SECTION
2
HEADER
999
*** POWERPCB  HEADER ***
9
$EXTMIN
10
-3.55
20
-3.54
9
$EXTMAX
10
156.56
20
86.58
9
$FILLMODE
70
0
9
$GRIDMODE
70
1
9
$GRIDUNIT
10
0.05
20
0.05
9
$INSBASE
10
93.98
20
-116.87
9
$LIMCHECK
70
0
9
$PLINEWID
40
0.00254
9
$SNAPMODE
70
1
9
$SNAPUNIT
10
0.05
20
0.05
9
$TEXTSIZE
40
2.54
9
$TEXTSTYLE
7
W0$254
9
$USERI1
70
101
9
$USERI2
70
1
9
$USERI5
70
150
9
$VIEWCTR
10
173.6628246667
20
7.3119866667
0
ENDSEC
0
SECTION
2
TABLES
999
*** POWERPCB  LAYER ***
0
TABLE
2
LAYER
70
25
0
LAYER
2
DBLAYERS
70
1
62
-255
6
CONTINUOUS
0
LAYER
2
BOARD_OUTLINE_00
70
0
62
255
6
CONTINUOUS
0
LAYER
2
BOARD_CUTOUT_00
70
0
62
255
6
CONTINUOUS
0
LAYER
2
LABEL_INFO
70
1
62
-255
6
CONTINUOUS
0
LAYER
2
LABEL_ATTRIBUTE
70
1
62
-255
6
CONTINUOUS
0
LAYER
2
PART_NAME_129
70
0
62
3
6
CONTINUOUS
0
LAYER
2
ATTRIBUTE_129
70
1
62
-146
6
CONTINUOUS
0
LAYER
2
PART_TYPE_BOT
70
1
62
-250
6
CONTINUOUS
0
LAYER
2
PART_INFO
70
1
62
-255
6
CONTINUOUS
0
LAYER
2
PART_PTS
70
1
62
-255
6
CONTINUOUS
0
LAYER
2
SYM_NAME
70
1
62
-255
6
CONTINUOUS
0
LAYER
2
SYM_ATTRIBUTE_126
70
1
62
-255
6
CONTINUOUS
0
LAYER
2
SYM_PART_NAME_126
70
1
62
-255
6
CONTINUOUS
0
LAYER
2
SYM_TERMINAL
70
1
62
-255
6
CONTINUOUS
0
LAYER
2
PKG_INFO
70
1
62
-255
6
CONTINUOUS
0
LAYER
2
PART_BOT_2DLINE_126
70
0
62
183
6
CONTINUOUS
0
LAYER
2
DRIL_PLTE_THRU_01
70
0
62
3
6
CONTINUOUS
0
LAYER
2
DRIL_PLTE_THRU_02
70
0
62
171
6
CONTINUOUS
0
LAYER
2
DRIL_PLTE_THRU_03
70
0
62
222
6
CONTINUOUS
0
LAYER
2
DRIL_PLTE_THRU_04
70
0
62
2
6
CONTINUOUS
0
LAYER
2
PADS_INNER
70
0
62
96
6
CONTINUOUS
0
LAYER
2
PADS_BOT
70
0
62
56
6
CONTINUOUS
0
LAYER
2
PADS_TOP
70
0
62
96
6
CONTINUOUS
0
LAYER
2
PCB_PARAMS
70
1
62
-255
6
CONTINUOUS
0
LAYER
2
DRIL_SYMBOL
70
0
62
255
6
CONTINUOUS
0
ENDTAB
999
*** POWERPCB  TEXT STYLE ***
0
TABLE
2
STYLE
70
4
0
STYLE
2
W0$03
70
64
40
0
41
0.75
42
0
50
0
71
0
3
simplex
0
STYLE
2
W0$127
70
64
40
0
41
0.75
42
0
50
0
71
0
3
simplex
0
STYLE
2
W0$127R0
70
64
40
0
41
0.75
42
0
50
0
71
0
3
simplex
0
STYLE
2
W0$254
70
64
40
0
41
0.75
42
0
50
0
71
0
3
simplex
0
ENDTAB
0
ENDSEC
0
SECTION
2
BLOCKS
999
*** POWERPCB  DBLAYER ***
0
BLOCK
2
DBLAYERS
8
0
10
0
20
0
3
DBLAYERS
70
64
0
TEXT
8
DBLAYERS
10
0
20
-3.048
40
1.778
1
__It__Is__Job__Name__:=RC126_V1.10_20250526.pcb
999
 *  1.Number             2.Type                  3.RouteColor
999
 *  4.ViaColor           5.PadColor              6.CopperColor
999
 *  7.2DLineColor        8.TextColor             9.ErrorColor
999
 * 10.TopComponentColor 11.BottomComponentColor 12.RoutingDirection
999
 * 13.LayerThickness    14.CopperThickness      15.Dielectric
999
 * 16.IsRouteable       17.IsVisible            18.IsSelectable
999
 * 19.IsPrepreg         20.AssSilkScreen        21.AssPasteMask
999
 * 22.AssSolderMask     23.AssAssembly
0
TEXT
8
DBLAYERS
10
0
20
-6.096
40
1.778
1
Bottom:=4 1 6 6 6 6 20 20 14 0 29 1 0 51435 3.2999999523 1 1 1 0 129 122 128 130 0 0 1 27 0 12 20 
0
TEXT
8
DBLAYERS
10
0
20
-9.144
40
1.778
1
Paste Mask Bottom:=122 4 0 16 0 16 16 16 0 0 0 2 0 0 3.2999999523 0 1 1 0 -1 -1 -1 -1 0 0 0 0 0 16 16 
0
TEXT
8
DBLAYERS
10
0
20
-12.192
40
1.778
1
Solder Mask Bottom:=128 5 0 27 0 27 27 27 0 0 0 2 0 0 3.2999999523 0 1 1 0 -1 -1 -1 -1 0 0 0 0 0 27 27 
0
TEXT
8
DBLAYERS
10
0
20
-15.24
40
1.778
1
Silkscreen Bottom:=129 3 0 0 0 19 19 19 0 0 29 2 0 0 3.2999999523 0 1 1 0 -1 -1 -1 -1 0 0 0 10 0 19 19 
0
ENDBLK
999
*** POWERPCB  BOARD ***
0
BLOCK
2
BOARD_8
8
0
10
0
20
0
3
BOARD_8
70
64
0
POLYLINE
8
BOARD_OUTLINE_00
66
1
40
0.1
41
0.1
70
1
0
VERTEX
8
BOARD_OUTLINE_00
10
5.77
20
-3.03
42
-0.3172186856
0
VERTEX
8
BOARD_OUTLINE_00
10
8.77
20
-0.03
0
VERTEX
8
BOARD_OUTLINE_00
10
162.78
20
-0.03
42
-0.3225094153
0
VERTEX
8
BOARD_OUTLINE_00
10
165.78
20
-3.03
0
VERTEX
8
BOARD_OUTLINE_00
10
165.78
20
-87.05
42
-0.3124228989
0
VERTEX
8
BOARD_OUTLINE_00
10
162.78
20
-90.05
0
VERTEX
8
BOARD_OUTLINE_00
10
8.77
20
-90.05
42
-0.3336252396
0
VERTEX
8
BOARD_OUTLINE_00
10
5.77
20
-87.05
0
SEQEND
0
INSERT
2
SMOOTH_0$1
8
BOARD_OUTLINE_00
10
5.77
20
-3.03
0
INSERT
2
SMOOTH_0$1
8
BOARD_OUTLINE_00
10
8.77
20
-0.03
0
INSERT
2
SMOOTH_0$1
8
BOARD_OUTLINE_00
10
162.78
20
-0.03
0
INSERT
2
SMOOTH_0$1
8
BOARD_OUTLINE_00
10
165.78
20
-3.03
0
INSERT
2
SMOOTH_0$1
8
BOARD_OUTLINE_00
10
165.78
20
-87.05
0
INSERT
2
SMOOTH_0$1
8
BOARD_OUTLINE_00
10
162.78
20
-90.05
0
INSERT
2
SMOOTH_0$1
8
BOARD_OUTLINE_00
10
8.77
20
-90.05
0
INSERT
2
SMOOTH_0$1
8
BOARD_OUTLINE_00
10
5.77
20
-87.05
0
POLYLINE
8
BOARD_CUTOUT_00
66
1
40
0.1
41
0.1
70
1
0
VERTEX
8
BOARD_CUTOUT_00
10
160.97
20
-4.66
0
VERTEX
8
BOARD_CUTOUT_00
10
162.52
20
-4.66
0
VERTEX
8
BOARD_CUTOUT_00
10
162.52
20
-6.21
0
VERTEX
8
BOARD_CUTOUT_00
10
160.97
20
-6.21
0
SEQEND
0
INSERT
2
SMOOTH_0$1
8
BOARD_CUTOUT_00
10
160.97
20
-4.66
0
INSERT
2
SMOOTH_0$1
8
BOARD_CUTOUT_00
10
162.52
20
-4.66
0
INSERT
2
SMOOTH_0$1
8
BOARD_CUTOUT_00
10
162.52
20
-6.21
0
INSERT
2
SMOOTH_0$1
8
BOARD_CUTOUT_00
10
160.97
20
-6.21
0
ENDBLK
999
*** POWERPCB  2DLINE ***
999
*** POWERPCB  COMPONENT ***
0
BLOCK
2
PART_BOT_189
8
0
10
0
20
0
3
PART_BOT_189
70
64
0
INSERT
2
SYM_BOT_49
8
0
10
0
20
0
0
INSERT
2
PKG_43
8
0
10
0
20
0
41
-1
0
TEXT
8
LABEL_INFO
10
0
20
0
40
0.21
1
1 0 1 1 0 1
72
1
73
1
11
0
21
0
41
0.75
7
W0$03
0
TEXT
8
LABEL_ATTRIBUTE
10
0
20
0
40
0.21
1
Ref.Des.
72
1
73
1
11
0
21
0
41
0.75
7
W0$03
0
TEXT
8
PART_NAME_129
10
0
20
0
40
0.21
1
TP7
72
1
73
2
11
0
21
0
41
0.75
7
W0$03
0
TEXT
8
LABEL_INFO
10
0
20
0
40
0.889
1
0 0 1 1 0 1
72
1
73
1
11
0
21
0
41
0.75
7
W0$127
0
TEXT
8
LABEL_ATTRIBUTE
10
0
20
0
40
0.889
1
AssociatedNetAssociateNets
72
1
73
1
11
0
21
0
41
0.75
7
W0$127
0
TEXT
8
ATTRIBUTE_129
10
0
20
0
40
0.889
1
No
72
1
73
2
11
0
21
0
41
0.75
7
W0$127
0
TEXT
8
PART_TYPE_BOT
10
0
20
-1.27
40
0.889
1
TP_0R70
72
1
73
2
11
0
21
-1.27
41
0.75
7
W0$127
0
TEXT
8
PART_INFO
10
0
20
-2.54
40
0.889
1
000000
71
2
72
1
73
2
11
0
21
-2.54
41
0.75
7
W0$127
0
TEXT
8
PART_PTS
10
0
20
-3.81
40
0.889
1
1 
71
2
72
1
73
2
11
0
21
-3.81
41
0.75
7
W0$127
0
ENDBLK
0
BLOCK
2
PART_BOT_308
8
0
10
0
20
0
3
PART_BOT_308
70
64
0
INSERT
2
SYM_BOT_49
8
0
10
0
20
0
0
INSERT
2
PKG_43
8
0
10
0
20
0
41
-1
0
TEXT
8
LABEL_INFO
10
0
20
0
40
0.21
1
1 0 1 1 0 1
72
1
73
1
11
0
21
0
41
0.75
7
W0$03
0
TEXT
8
LABEL_ATTRIBUTE
10
0
20
0
40
0.21
1
Ref.Des.
72
1
73
1
11
0
21
0
41
0.75
7
W0$03
0
TEXT
8
PART_NAME_129
10
0
20
0
40
0.21
1
P1
72
1
73
2
11
0
21
0
41
0.75
7
W0$03
0
TEXT
8
LABEL_INFO
10
0
20
0
40
0.889
1
0 0 1 1 0 1
72
1
73
1
11
0
21
0
41
0.75
7
W0$127
0
TEXT
8
LABEL_ATTRIBUTE
10
0
20
0
40
0.889
1
AssociatedNetAssociateNets
72
1
73
1
11
0
21
0
41
0.75
7
W0$127
0
TEXT
8
ATTRIBUTE_129
10
0
20
0
40
0.889
1
No
72
1
73
2
11
0
21
0
41
0.75
7
W0$127
0
TEXT
8
PART_TYPE_BOT
10
0
20
-1.27
40
0.889
1
TP_0R70
72
1
73
2
11
0
21
-1.27
41
0.75
7
W0$127
0
TEXT
8
PART_INFO
10
0
20
-2.54
40
0.889
1
000000
71
2
72
1
73
2
11
0
21
-2.54
41
0.75
7
W0$127
0
TEXT
8
PART_PTS
10
0
20
-3.81
40
0.889
1
1 
71
2
72
1
73
2
11
0
21
-3.81
41
0.75
7
W0$127
0
ENDBLK
0
BLOCK
2
PART_BOT_367
8
0
10
0
20
0
3
PART_BOT_367
70
64
0
INSERT
2
SYM_BOT_49
8
0
10
0
20
0
0
INSERT
2
PKG_43
8
0
10
0
20
0
41
-1
0
TEXT
8
LABEL_INFO
10
0
20
0
40
0.21
1
1 0 1 1 0 1
72
1
73
1
11
0
21
0
41
0.75
7
W0$03
0
TEXT
8
LABEL_ATTRIBUTE
10
0
20
0
40
0.21
1
Ref.Des.
72
1
73
1
11
0
21
0
41
0.75
7
W0$03
0
TEXT
8
PART_NAME_129
10
0
20
0
40
0.21
1
P14
72
1
73
2
11
0
21
0
41
0.75
7
W0$03
0
TEXT
8
LABEL_INFO
10
0
20
0
40
0.889
1
0 0 1 1 0 1
72
1
73
1
11
0
21
0
41
0.75
7
W0$127
0
TEXT
8
LABEL_ATTRIBUTE
10
0
20
0
40
0.889
1
AssociatedNetAssociateNets
72
1
73
1
11
0
21
0
41
0.75
7
W0$127
0
TEXT
8
ATTRIBUTE_129
10
0
20
0
40
0.889
1
No
72
1
73
2
11
0
21
0
41
0.75
7
W0$127
0
TEXT
8
PART_TYPE_BOT
10
0
20
-1.27
40
0.889
1
TP_0R70
72
1
73
2
11
0
21
-1.27
41
0.75
7
W0$127
0
TEXT
8
PART_INFO
10
0
20
-2.54
40
0.889
1
000000
71
2
72
1
73
2
11
0
21
-2.54
41
0.75
7
W0$127
0
TEXT
8
PART_PTS
10
0
20
-3.81
40
0.889
1
1 
71
2
72
1
73
2
11
0
21
-3.81
41
0.75
7
W0$127
0
ENDBLK
0
BLOCK
2
PART_BOT_368
8
0
10
0
20
0
3
PART_BOT_368
70
64
0
INSERT
2
SYM_BOT_49
8
0
10
0
20
0
0
INSERT
2
PKG_43
8
0
10
0
20
0
41
-1
0
TEXT
8
LABEL_INFO
10
0
20
0
40
0.21
1
1 0 1 1 0 1
72
1
73
1
11
0
21
0
41
0.75
7
W0$03
0
TEXT
8
LABEL_ATTRIBUTE
10
0
20
0
40
0.21
1
Ref.Des.
72
1
73
1
11
0
21
0
41
0.75
7
W0$03
0
TEXT
8
PART_NAME_129
10
0
20
0
40
0.21
1
P20
72
1
73
2
11
0
21
0
41
0.75
7
W0$03
0
TEXT
8
LABEL_INFO
10
0
20
0
40
0.889
1
0 0 1 1 0 1
72
1
73
1
11
0
21
0
41
0.75
7
W0$127
0
TEXT
8
LABEL_ATTRIBUTE
10
0
20
0
40
0.889
1
AssociatedNetAssociateNets
72
1
73
1
11
0
21
0
41
0.75
7
W0$127
0
TEXT
8
ATTRIBUTE_129
10
0
20
0
40
0.889
1
No
72
1
73
2
11
0
21
0
41
0.75
7
W0$127
0
TEXT
8
PART_TYPE_BOT
10
0
20
-1.27
40
0.889
1
TP_0R70
72
1
73
2
11
0
21
-1.27
41
0.75
7
W0$127
0
TEXT
8
PART_INFO
10
0
20
-2.54
40
0.889
1
000000
71
2
72
1
73
2
11
0
21
-2.54
41
0.75
7
W0$127
0
TEXT
8
PART_PTS
10
0
20
-3.81
40
0.889
1
1 
71
2
72
1
73
2
11
0
21
-3.81
41
0.75
7
W0$127
0
ENDBLK
0
BLOCK
2
PART_BOT_444
8
0
10
0
20
0
3
PART_BOT_444
70
64
0
INSERT
2
SYM_BOT_49
8
0
10
0
20
0
0
INSERT
2
PKG_43
8
0
10
0
20
0
41
-1
0
TEXT
8
LABEL_INFO
10
0
20
0
40
0.21
1
1 0 1 1 0 1
72
1
73
1
11
0
21
0
41
0.75
7
W0$03
0
TEXT
8
LABEL_ATTRIBUTE
10
0
20
0
40
0.21
1
Ref.Des.
72
1
73
1
11
0
21
0
41
0.75
7
W0$03
0
TEXT
8
PART_NAME_129
10
0
20
0
40
0.21
1
P10
72
1
73
2
11
0
21
0
41
0.75
7
W0$03
0
TEXT
8
LABEL_INFO
10
0
20
0
40
0.889
1
0 0 1 1 0 1
72
1
73
1
11
0
21
0
41
0.75
7
W0$127
0
TEXT
8
LABEL_ATTRIBUTE
10
0
20
0
40
0.889
1
AssociatedNetAssociateNets
72
1
73
1
11
0
21
0
41
0.75
7
W0$127
0
TEXT
8
ATTRIBUTE_129
10
0
20
0
40
0.889
1
No
72
1
73
2
11
0
21
0
41
0.75
7
W0$127
0
TEXT
8
PART_TYPE_BOT
10
0
20
-1.27
40
0.889
1
TP_0R70
72
1
73
2
11
0
21
-1.27
41
0.75
7
W0$127
0
TEXT
8
PART_INFO
10
0
20
-2.54
40
0.889
1
000000
71
2
72
1
73
2
11
0
21
-2.54
41
0.75
7
W0$127
0
TEXT
8
PART_PTS
10
0
20
-3.81
40
0.889
1
1 
71
2
72
1
73
2
11
0
21
-3.81
41
0.75
7
W0$127
0
ENDBLK
0
BLOCK
2
PART_BOT_445
8
0
10
0
20
0
3
PART_BOT_445
70
64
0
INSERT
2
SYM_BOT_49
8
0
10
0
20
0
0
INSERT
2
PKG_43
8
0
10
0
20
0
41
-1
0
TEXT
8
LABEL_INFO
10
0
20
0
40
0.21
1
1 0 1 1 0 1
72
1
73
1
11
0
21
0
41
0.75
7
W0$03
0
TEXT
8
LABEL_ATTRIBUTE
10
0
20
0
40
0.21
1
Ref.Des.
72
1
73
1
11
0
21
0
41
0.75
7
W0$03
0
TEXT
8
PART_NAME_129
10
0
20
0
40
0.21
1
P11
72
1
73
2
11
0
21
0
41
0.75
7
W0$03
0
TEXT
8
LABEL_INFO
10
0
20
0
40
0.889
1
0 0 1 1 0 1
72
1
73
1
11
0
21
0
41
0.75
7
W0$127
0
TEXT
8
LABEL_ATTRIBUTE
10
0
20
0
40
0.889
1
AssociatedNetAssociateNets
72
1
73
1
11
0
21
0
41
0.75
7
W0$127
0
TEXT
8
ATTRIBUTE_129
10
0
20
0
40
0.889
1
No
72
1
73
2
11
0
21
0
41
0.75
7
W0$127
0
TEXT
8
PART_TYPE_BOT
10
0
20
-1.27
40
0.889
1
TP_0R70
72
1
73
2
11
0
21
-1.27
41
0.75
7
W0$127
0
TEXT
8
PART_INFO
10
0
20
-2.54
40
0.889
1
000000
71
2
72
1
73
2
11
0
21
-2.54
41
0.75
7
W0$127
0
TEXT
8
PART_PTS
10
0
20
-3.81
40
0.889
1
1 
71
2
72
1
73
2
11
0
21
-3.81
41
0.75
7
W0$127
0
ENDBLK
0
BLOCK
2
PART_BOT_446
8
0
10
0
20
0
3
PART_BOT_446
70
64
0
INSERT
2
SYM_BOT_49
8
0
10
0
20
0
0
INSERT
2
PKG_43
8
0
10
0
20
0
41
-1
0
TEXT
8
LABEL_INFO
10
0
20
0
40
0.21
1
1 0 1 1 0 1
72
1
73
1
11
0
21
0
41
0.75
7
W0$03
0
TEXT
8
LABEL_ATTRIBUTE
10
0
20
0
40
0.21
1
Ref.Des.
72
1
73
1
11
0
21
0
41
0.75
7
W0$03
0
TEXT
8
PART_NAME_129
10
0
20
0
40
0.21
1
P12
72
1
73
2
11
0
21
0
41
0.75
7
W0$03
0
TEXT
8
LABEL_INFO
10
0
20
0
40
0.889
1
0 0 1 1 0 1
72
1
73
1
11
0
21
0
41
0.75
7
W0$127
0
TEXT
8
LABEL_ATTRIBUTE
10
0
20
0
40
0.889
1
AssociatedNetAssociateNets
72
1
73
1
11
0
21
0
41
0.75
7
W0$127
0
TEXT
8
ATTRIBUTE_129
10
0
20
0
40
0.889
1
No
72
1
73
2
11
0
21
0
41
0.75
7
W0$127
0
TEXT
8
PART_TYPE_BOT
10
0
20
-1.27
40
0.889
1
TP_0R70
72
1
73
2
11
0
21
-1.27
41
0.75
7
W0$127
0
TEXT
8
PART_INFO
10
0
20
-2.54
40
0.889
1
000000
71
2
72
1
73
2
11
0
21
-2.54
41
0.75
7
W0$127
0
TEXT
8
PART_PTS
10
0
20
-3.81
40
0.889
1
1 
71
2
72
1
73
2
11
0
21
-3.81
41
0.75
7
W0$127
0
ENDBLK
0
BLOCK
2
PART_BOT_447
8
0
10
0
20
0
3
PART_BOT_447
70
64
0
INSERT
2
SYM_BOT_49
8
0
10
0
20
0
0
INSERT
2
PKG_43
8
0
10
0
20
0
41
-1
0
TEXT
8
LABEL_INFO
10
0
20
0
40
0.21
1
1 0 1 1 0 1
72
1
73
1
11
0
21
0
41
0.75
7
W0$03
0
TEXT
8
LABEL_ATTRIBUTE
10
0
20
0
40
0.21
1
Ref.Des.
72
1
73
1
11
0
21
0
41
0.75
7
W0$03
0
TEXT
8
PART_NAME_129
10
0
20
0
40
0.21
1
P13
72
1
73
2
11
0
21
0
41
0.75
7
W0$03
0
TEXT
8
LABEL_INFO
10
0
20
0
40
0.889
1
0 0 1 1 0 1
72
1
73
1
11
0
21
0
41
0.75
7
W0$127
0
TEXT
8
LABEL_ATTRIBUTE
10
0
20
0
40
0.889
1
AssociatedNetAssociateNets
72
1
73
1
11
0
21
0
41
0.75
7
W0$127
0
TEXT
8
ATTRIBUTE_129
10
0
20
0
40
0.889
1
No
72
1
73
2
11
0
21
0
41
0.75
7
W0$127
0
TEXT
8
PART_TYPE_BOT
10
0
20
-1.27
40
0.889
1
TP_0R70
72
1
73
2
11
0
21
-1.27
41
0.75
7
W0$127
0
TEXT
8
PART_INFO
10
0
20
-2.54
40
0.889
1
000000
71
2
72
1
73
2
11
0
21
-2.54
41
0.75
7
W0$127
0
TEXT
8
PART_PTS
10
0
20
-3.81
40
0.889
1
1 
71
2
72
1
73
2
11
0
21
-3.81
41
0.75
7
W0$127
0
ENDBLK
0
BLOCK
2
PART_BOT_448
8
0
10
0
20
0
3
PART_BOT_448
70
64
0
INSERT
2
SYM_BOT_49
8
0
10
0
20
0
0
INSERT
2
PKG_43
8
0
10
0
20
0
41
-1
0
TEXT
8
LABEL_INFO
10
0
20
0
40
0.21
1
1 0 1 1 0 1
72
1
73
1
11
0
21
0
41
0.75
7
W0$03
0
TEXT
8
LABEL_ATTRIBUTE
10
0
20
0
40
0.21
1
Ref.Des.
72
1
73
1
11
0
21
0
41
0.75
7
W0$03
0
TEXT
8
PART_NAME_129
10
0
20
0
40
0.21
1
P15
72
1
73
2
11
0
21
0
41
0.75
7
W0$03
0
TEXT
8
LABEL_INFO
10
0
20
0
40
0.889
1
0 0 1 1 0 1
72
1
73
1
11
0
21
0
41
0.75
7
W0$127
0
TEXT
8
LABEL_ATTRIBUTE
10
0
20
0
40
0.889
1
AssociatedNetAssociateNets
72
1
73
1
11
0
21
0
41
0.75
7
W0$127
0
TEXT
8
ATTRIBUTE_129
10
0
20
0
40
0.889
1
No
72
1
73
2
11
0
21
0
41
0.75
7
W0$127
0
TEXT
8
PART_TYPE_BOT
10
0
20
-1.27
40
0.889
1
TP_0R70
72
1
73
2
11
0
21
-1.27
41
0.75
7
W0$127
0
TEXT
8
PART_INFO
10
0
20
-2.54
40
0.889
1
000000
71
2
72
1
73
2
11
0
21
-2.54
41
0.75
7
W0$127
0
TEXT
8
PART_PTS
10
0
20
-3.81
40
0.889
1
1 
71
2
72
1
73
2
11
0
21
-3.81
41
0.75
7
W0$127
0
ENDBLK
0
BLOCK
2
PART_BOT_449
8
0
10
0
20
0
3
PART_BOT_449
70
64
0
INSERT
2
SYM_BOT_49
8
0
10
0
20
0
0
INSERT
2
PKG_43
8
0
10
0
20
0
41
-1
0
TEXT
8
LABEL_INFO
10
0
20
0
40
0.21
1
1 0 1 1 0 1
72
1
73
1
11
0
21
0
41
0.75
7
W0$03
0
TEXT
8
LABEL_ATTRIBUTE
10
0
20
0
40
0.21
1
Ref.Des.
72
1
73
1
11
0
21
0
41
0.75
7
W0$03
0
TEXT
8
PART_NAME_129
10
0
20
0
40
0.21
1
P16
72
1
73
2
11
0
21
0
41
0.75
7
W0$03
0
TEXT
8
LABEL_INFO
10
0
20
0
40
0.889
1
0 0 1 1 0 1
72
1
73
1
11
0
21
0
41
0.75
7
W0$127
0
TEXT
8
LABEL_ATTRIBUTE
10
0
20
0
40
0.889
1
AssociatedNetAssociateNets
72
1
73
1
11
0
21
0
41
0.75
7
W0$127
0
TEXT
8
ATTRIBUTE_129
10
0
20
0
40
0.889
1
No
72
1
73
2
11
0
21
0
41
0.75
7
W0$127
0
TEXT
8
PART_TYPE_BOT
10
0
20
-1.27
40
0.889
1
TP_0R70
72
1
73
2
11
0
21
-1.27
41
0.75
7
W0$127
0
TEXT
8
PART_INFO
10
0
20
-2.54
40
0.889
1
000000
71
2
72
1
73
2
11
0
21
-2.54
41
0.75
7
W0$127
0
TEXT
8
PART_PTS
10
0
20
-3.81
40
0.889
1
1 
71
2
72
1
73
2
11
0
21
-3.81
41
0.75
7
W0$127
0
ENDBLK
0
BLOCK
2
PART_BOT_450
8
0
10
0
20
0
3
PART_BOT_450
70
64
0
INSERT
2
SYM_BOT_49
8
0
10
0
20
0
0
INSERT
2
PKG_43
8
0
10
0
20
0
41
-1
0
TEXT
8
LABEL_INFO
10
0
20
0
40
0.21
1
1 0 1 1 0 1
72
1
73
1
11
0
21
0
41
0.75
7
W0$03
0
TEXT
8
LABEL_ATTRIBUTE
10
0
20
0
40
0.21
1
Ref.Des.
72
1
73
1
11
0
21
0
41
0.75
7
W0$03
0
TEXT
8
PART_NAME_129
10
0
20
0
40
0.21
1
P24
72
1
73
2
11
0
21
0
41
0.75
7
W0$03
0
TEXT
8
LABEL_INFO
10
0
20
0
40
0.889
1
0 0 1 1 0 1
72
1
73
1
11
0
21
0
41
0.75
7
W0$127
0
TEXT
8
LABEL_ATTRIBUTE
10
0
20
0
40
0.889
1
AssociatedNetAssociateNets
72
1
73
1
11
0
21
0
41
0.75
7
W0$127
0
TEXT
8
ATTRIBUTE_129
10
0
20
0
40
0.889
1
No
72
1
73
2
11
0
21
0
41
0.75
7
W0$127
0
TEXT
8
PART_TYPE_BOT
10
0
20
-1.27
40
0.889
1
TP_0R70
72
1
73
2
11
0
21
-1.27
41
0.75
7
W0$127
0
TEXT
8
PART_INFO
10
0
20
-2.54
40
0.889
1
000000
71
2
72
1
73
2
11
0
21
-2.54
41
0.75
7
W0$127
0
TEXT
8
PART_PTS
10
0
20
-3.81
40
0.889
1
1 
71
2
72
1
73
2
11
0
21
-3.81
41
0.75
7
W0$127
0
ENDBLK
0
BLOCK
2
PART_BOT_451
8
0
10
0
20
0
3
PART_BOT_451
70
64
0
INSERT
2
SYM_BOT_49
8
0
10
0
20
0
0
INSERT
2
PKG_43
8
0
10
0
20
0
41
-1
0
TEXT
8
LABEL_INFO
10
0
20
0
40
0.21
1
1 0 1 1 0 1
72
1
73
1
11
0
21
0
41
0.75
7
W0$03
0
TEXT
8
LABEL_ATTRIBUTE
10
0
20
0
40
0.21
1
Ref.Des.
72
1
73
1
11
0
21
0
41
0.75
7
W0$03
0
TEXT
8
PART_NAME_129
10
0
20
0
40
0.21
1
P25
72
1
73
2
11
0
21
0
41
0.75
7
W0$03
0
TEXT
8
LABEL_INFO
10
0
20
0
40
0.889
1
0 0 1 1 0 1
72
1
73
1
11
0
21
0
41
0.75
7
W0$127
0
TEXT
8
LABEL_ATTRIBUTE
10
0
20
0
40
0.889
1
AssociatedNetAssociateNets
72
1
73
1
11
0
21
0
41
0.75
7
W0$127
0
TEXT
8
ATTRIBUTE_129
10
0
20
0
40
0.889
1
No
72
1
73
2
11
0
21
0
41
0.75
7
W0$127
0
TEXT
8
PART_TYPE_BOT
10
0
20
-1.27
40
0.889
1
TP_0R70
72
1
73
2
11
0
21
-1.27
41
0.75
7
W0$127
0
TEXT
8
PART_INFO
10
0
20
-2.54
40
0.889
1
000000
71
2
72
1
73
2
11
0
21
-2.54
41
0.75
7
W0$127
0
TEXT
8
PART_PTS
10
0
20
-3.81
40
0.889
1
1 
71
2
72
1
73
2
11
0
21
-3.81
41
0.75
7
W0$127
0
ENDBLK
0
BLOCK
2
PART_BOT_452
8
0
10
0
20
0
3
PART_BOT_452
70
64
0
INSERT
2
SYM_BOT_49
8
0
10
0
20
0
0
INSERT
2
PKG_43
8
0
10
0
20
0
41
-1
0
TEXT
8
LABEL_INFO
10
0
20
0
40
0.21
1
1 0 1 1 0 1
72
1
73
1
11
0
21
0
41
0.75
7
W0$03
0
TEXT
8
LABEL_ATTRIBUTE
10
0
20
0
40
0.21
1
Ref.Des.
72
1
73
1
11
0
21
0
41
0.75
7
W0$03
0
TEXT
8
PART_NAME_129
10
0
20
0
40
0.21
1
P26
72
1
73
2
11
0
21
0
41
0.75
7
W0$03
0
TEXT
8
LABEL_INFO
10
0
20
0
40
0.889
1
0 0 1 1 0 1
72
1
73
1
11
0
21
0
41
0.75
7
W0$127
0
TEXT
8
LABEL_ATTRIBUTE
10
0
20
0
40
0.889
1
AssociatedNetAssociateNets
72
1
73
1
11
0
21
0
41
0.75
7
W0$127
0
TEXT
8
ATTRIBUTE_129
10
0
20
0
40
0.889
1
No
72
1
73
2
11
0
21
0
41
0.75
7
W0$127
0
TEXT
8
PART_TYPE_BOT
10
0
20
-1.27
40
0.889
1
TP_0R70
72
1
73
2
11
0
21
-1.27
41
0.75
7
W0$127
0
TEXT
8
PART_INFO
10
0
20
-2.54
40
0.889
1
000000
71
2
72
1
73
2
11
0
21
-2.54
41
0.75
7
W0$127
0
TEXT
8
PART_PTS
10
0
20
-3.81
40
0.889
1
1 
71
2
72
1
73
2
11
0
21
-3.81
41
0.75
7
W0$127
0
ENDBLK
0
BLOCK
2
PART_BOT_453
8
0
10
0
20
0
3
PART_BOT_453
70
64
0
INSERT
2
SYM_BOT_49
8
0
10
0
20
0
0
INSERT
2
PKG_43
8
0
10
0
20
0
41
-1
0
TEXT
8
LABEL_INFO
10
0
20
0
40
0.21
1
1 0 1 1 0 1
72
1
73
1
11
0
21
0
41
0.75
7
W0$03
0
TEXT
8
LABEL_ATTRIBUTE
10
0
20
0
40
0.21
1
Ref.Des.
72
1
73
1
11
0
21
0
41
0.75
7
W0$03
0
TEXT
8
PART_NAME_129
10
0
20
0
40
0.21
1
P27
72
1
73
2
11
0
21
0
41
0.75
7
W0$03
0
TEXT
8
LABEL_INFO
10
0
20
0
40
0.889
1
0 0 1 1 0 1
72
1
73
1
11
0
21
0
41
0.75
7
W0$127
0
TEXT
8
LABEL_ATTRIBUTE
10
0
20
0
40
0.889
1
AssociatedNetAssociateNets
72
1
73
1
11
0
21
0
41
0.75
7
W0$127
0
TEXT
8
ATTRIBUTE_129
10
0
20
0
40
0.889
1
No
72
1
73
2
11
0
21
0
41
0.75
7
W0$127
0
TEXT
8
PART_TYPE_BOT
10
0
20
-1.27
40
0.889
1
TP_0R70
72
1
73
2
11
0
21
-1.27
41
0.75
7
W0$127
0
TEXT
8
PART_INFO
10
0
20
-2.54
40
0.889
1
000000
71
2
72
1
73
2
11
0
21
-2.54
41
0.75
7
W0$127
0
TEXT
8
PART_PTS
10
0
20
-3.81
40
0.889
1
1 
71
2
72
1
73
2
11
0
21
-3.81
41
0.75
7
W0$127
0
ENDBLK
0
BLOCK
2
PART_BOT_454
8
0
10
0
20
0
3
PART_BOT_454
70
64
0
INSERT
2
SYM_BOT_49
8
0
10
0
20
0
0
INSERT
2
PKG_43
8
0
10
0
20
0
41
-1
0
TEXT
8
LABEL_INFO
10
0
20
0
40
0.21
1
1 0 1 1 0 1
72
1
73
1
11
0
21
0
41
0.75
7
W0$03
0
TEXT
8
LABEL_ATTRIBUTE
10
0
20
0
40
0.21
1
Ref.Des.
72
1
73
1
11
0
21
0
41
0.75
7
W0$03
0
TEXT
8
PART_NAME_129
10
0
20
0
40
0.21
1
P4
72
1
73
2
11
0
21
0
41
0.75
7
W0$03
0
TEXT
8
LABEL_INFO
10
0
20
0
40
0.889
1
0 0 1 1 0 1
72
1
73
1
11
0
21
0
41
0.75
7
W0$127
0
TEXT
8
LABEL_ATTRIBUTE
10
0
20
0
40
0.889
1
AssociatedNetAssociateNets
72
1
73
1
11
0
21
0
41
0.75
7
W0$127
0
TEXT
8
ATTRIBUTE_129
10
0
20
0
40
0.889
1
No
72
1
73
2
11
0
21
0
41
0.75
7
W0$127
0
TEXT
8
PART_TYPE_BOT
10
0
20
-1.27
40
0.889
1
TP_0R70
72
1
73
2
11
0
21
-1.27
41
0.75
7
W0$127
0
TEXT
8
PART_INFO
10
0
20
-2.54
40
0.889
1
000000
71
2
72
1
73
2
11
0
21
-2.54
41
0.75
7
W0$127
0
TEXT
8
PART_PTS
10
0
20
-3.81
40
0.889
1
1 
71
2
72
1
73
2
11
0
21
-3.81
41
0.75
7
W0$127
0
ENDBLK
0
BLOCK
2
PART_BOT_455
8
0
10
0
20
0
3
PART_BOT_455
70
64
0
INSERT
2
SYM_BOT_49
8
0
10
0
20
0
0
INSERT
2
PKG_43
8
0
10
0
20
0
41
-1
0
TEXT
8
LABEL_INFO
10
0
20
0
40
0.21
1
1 0 1 1 0 1
72
1
73
1
11
0
21
0
41
0.75
7
W0$03
0
TEXT
8
LABEL_ATTRIBUTE
10
0
20
0
40
0.21
1
Ref.Des.
72
1
73
1
11
0
21
0
41
0.75
7
W0$03
0
TEXT
8
PART_NAME_129
10
0
20
0
40
0.21
1
P5
72
1
73
2
11
0
21
0
41
0.75
7
W0$03
0
TEXT
8
LABEL_INFO
10
0
20
0
40
0.889
1
0 0 1 1 0 1
72
1
73
1
11
0
21
0
41
0.75
7
W0$127
0
TEXT
8
LABEL_ATTRIBUTE
10
0
20
0
40
0.889
1
AssociatedNetAssociateNets
72
1
73
1
11
0
21
0
41
0.75
7
W0$127
0
TEXT
8
ATTRIBUTE_129
10
0
20
0
40
0.889
1
No
72
1
73
2
11
0
21
0
41
0.75
7
W0$127
0
TEXT
8
PART_TYPE_BOT
10
0
20
-1.27
40
0.889
1
TP_0R70
72
1
73
2
11
0
21
-1.27
41
0.75
7
W0$127
0
TEXT
8
PART_INFO
10
0
20
-2.54
40
0.889
1
000000
71
2
72
1
73
2
11
0
21
-2.54
41
0.75
7
W0$127
0
TEXT
8
PART_PTS
10
0
20
-3.81
40
0.889
1
1 
71
2
72
1
73
2
11
0
21
-3.81
41
0.75
7
W0$127
0
ENDBLK
0
BLOCK
2
PART_BOT_456
8
0
10
0
20
0
3
PART_BOT_456
70
64
0
INSERT
2
SYM_BOT_49
8
0
10
0
20
0
0
INSERT
2
PKG_43
8
0
10
0
20
0
41
-1
0
TEXT
8
LABEL_INFO
10
0
20
0
40
0.21
1
1 0 1 1 0 1
72
1
73
1
11
0
21
0
41
0.75
7
W0$03
0
TEXT
8
LABEL_ATTRIBUTE
10
0
20
0
40
0.21
1
Ref.Des.
72
1
73
1
11
0
21
0
41
0.75
7
W0$03
0
TEXT
8
PART_NAME_129
10
0
20
0
40
0.21
1
P6
72
1
73
2
11
0
21
0
50
-180
41
0.75
7
W0$03
0
TEXT
8
LABEL_INFO
10
0
20
0
40
0.889
1
0 324000000 1 1 0 1
72
1
73
1
11
0
21
0
50
180
41
0.75
7
W0$127
0
TEXT
8
LABEL_ATTRIBUTE
10
0
20
0
40
0.889
1
AssociatedNetAssociateNets
72
1
73
1
11
0
21
0
50
180
41
0.75
7
W0$127
0
TEXT
8
ATTRIBUTE_129
10
0
20
0
40
0.889
1
No
72
1
73
2
11
0
21
0
50
180
41
0.75
7
W0$127
0
TEXT
8
PART_TYPE_BOT
10
0
20
-1.27
40
0.889
1
TP_0R70
72
1
73
2
11
0
21
-1.27
50
180
41
0.75
7
W0$127
0
TEXT
8
PART_INFO
10
0
20
-2.54
40
0.889
1
000000
71
2
72
1
73
2
11
0
21
-2.54
50
180
41
0.75
7
W0$127
0
TEXT
8
PART_PTS
10
0
20
-3.81
40
0.889
1
1 
71
2
72
1
73
2
11
0
21
-3.81
50
180
41
0.75
7
W0$127
0
ENDBLK
0
BLOCK
2
PART_BOT_457
8
0
10
0
20
0
3
PART_BOT_457
70
64
0
INSERT
2
SYM_BOT_49
8
0
10
0
20
0
0
INSERT
2
PKG_43
8
0
10
0
20
0
41
-1
0
TEXT
8
LABEL_INFO
10
0
20
0
40
0.21
1
1 0 1 1 0 1
72
1
73
1
11
0
21
0
41
0.75
7
W0$03
0
TEXT
8
LABEL_ATTRIBUTE
10
0
20
0
40
0.21
1
Ref.Des.
72
1
73
1
11
0
21
0
41
0.75
7
W0$03
0
TEXT
8
PART_NAME_129
10
0
20
0
40
0.21
1
P7
72
1
73
2
11
0
21
0
50
-180
41
0.75
7
W0$03
0
TEXT
8
LABEL_INFO
10
0
20
0
40
0.889
1
0 324000000 1 1 0 1
72
1
73
1
11
0
21
0
50
180
41
0.75
7
W0$127
0
TEXT
8
LABEL_ATTRIBUTE
10
0
20
0
40
0.889
1
AssociatedNetAssociateNets
72
1
73
1
11
0
21
0
50
180
41
0.75
7
W0$127
0
TEXT
8
ATTRIBUTE_129
10
0
20
0
40
0.889
1
No
72
1
73
2
11
0
21
0
50
180
41
0.75
7
W0$127
0
TEXT
8
PART_TYPE_BOT
10
0
20
-1.27
40
0.889
1
TP_0R70
72
1
73
2
11
0
21
-1.27
50
180
41
0.75
7
W0$127
0
TEXT
8
PART_INFO
10
0
20
-2.54
40
0.889
1
000000
71
2
72
1
73
2
11
0
21
-2.54
50
180
41
0.75
7
W0$127
0
TEXT
8
PART_PTS
10
0
20
-3.81
40
0.889
1
1 
71
2
72
1
73
2
11
0
21
-3.81
50
180
41
0.75
7
W0$127
0
ENDBLK
0
BLOCK
2
PART_BOT_458
8
0
10
0
20
0
3
PART_BOT_458
70
64
0
INSERT
2
SYM_BOT_49
8
0
10
0
20
0
0
INSERT
2
PKG_43
8
0
10
0
20
0
41
-1
0
TEXT
8
LABEL_INFO
10
0
20
0
40
0.21
1
1 0 1 1 0 1
72
1
73
1
11
0
21
0
41
0.75
7
W0$03
0
TEXT
8
LABEL_ATTRIBUTE
10
0
20
0
40
0.21
1
Ref.Des.
72
1
73
1
11
0
21
0
41
0.75
7
W0$03
0
TEXT
8
PART_NAME_129
10
0
20
0
40
0.21
1
P8
72
1
73
2
11
0
21
0
41
0.75
7
W0$03
0
TEXT
8
LABEL_INFO
10
0
20
0
40
0.889
1
0 0 1 1 0 1
72
1
73
1
11
0
21
0
41
0.75
7
W0$127
0
TEXT
8
LABEL_ATTRIBUTE
10
0
20
0
40
0.889
1
AssociatedNetAssociateNets
72
1
73
1
11
0
21
0
41
0.75
7
W0$127
0
TEXT
8
ATTRIBUTE_129
10
0
20
0
40
0.889
1
No
72
1
73
2
11
0
21
0
41
0.75
7
W0$127
0
TEXT
8
PART_TYPE_BOT
10
0
20
-1.27
40
0.889
1
TP_0R70
72
1
73
2
11
0
21
-1.27
41
0.75
7
W0$127
0
TEXT
8
PART_INFO
10
0
20
-2.54
40
0.889
1
000000
71
2
72
1
73
2
11
0
21
-2.54
41
0.75
7
W0$127
0
TEXT
8
PART_PTS
10
0
20
-3.81
40
0.889
1
1 
71
2
72
1
73
2
11
0
21
-3.81
41
0.75
7
W0$127
0
ENDBLK
0
BLOCK
2
PART_BOT_459
8
0
10
0
20
0
3
PART_BOT_459
70
64
0
INSERT
2
SYM_BOT_49
8
0
10
0
20
0
0
INSERT
2
PKG_43
8
0
10
0
20
0
41
-1
0
TEXT
8
LABEL_INFO
10
0
20
0
40
0.21
1
1 0 1 1 0 1
72
1
73
1
11
0
21
0
41
0.75
7
W0$03
0
TEXT
8
LABEL_ATTRIBUTE
10
0
20
0
40
0.21
1
Ref.Des.
72
1
73
1
11
0
21
0
41
0.75
7
W0$03
0
TEXT
8
PART_NAME_129
10
0
20
0
40
0.21
1
P9
72
1
73
2
11
0
21
0
41
0.75
7
W0$03
0
TEXT
8
LABEL_INFO
10
0
20
0
40
0.889
1
0 0 1 1 0 1
72
1
73
1
11
0
21
0
41
0.75
7
W0$127
0
TEXT
8
LABEL_ATTRIBUTE
10
0
20
0
40
0.889
1
AssociatedNetAssociateNets
72
1
73
1
11
0
21
0
41
0.75
7
W0$127
0
TEXT
8
ATTRIBUTE_129
10
0
20
0
40
0.889
1
No
72
1
73
2
11
0
21
0
41
0.75
7
W0$127
0
TEXT
8
PART_TYPE_BOT
10
0
20
-1.27
40
0.889
1
TP_0R70
72
1
73
2
11
0
21
-1.27
41
0.75
7
W0$127
0
TEXT
8
PART_INFO
10
0
20
-2.54
40
0.889
1
000000
71
2
72
1
73
2
11
0
21
-2.54
41
0.75
7
W0$127
0
TEXT
8
PART_PTS
10
0
20
-3.81
40
0.889
1
1 
71
2
72
1
73
2
11
0
21
-3.81
41
0.75
7
W0$127
0
ENDBLK
0
BLOCK
2
SYM_BOT_49
8
0
10
0
20
0
3
SYM_BOT_49
70
64
0
TEXT
8
SYM_NAME
10
0
20
0
40
1.778
1
TP_0R70
41
0.75
0
TEXT
8
SYM_ATTRIBUTE_126
10
-2.338
20
1.099
40
0.889
1
AssociatedNetAssociateNets
41
0.75
7
W0$127R0
0
TEXT
8
SYM_PART_NAME_126
10
-2.338
20
2.369
40
0.889
1
 
41
0.75
7
W0$127R0
0
INSERT
2
PART_BODY_BOT_54
8
0
10
0
20
0
0
INSERT
2
STK_BOT_78
8
0
10
0
20
0
0
TEXT
8
SYM_TERMINAL
10
0
20
-3.048
40
1.778
1
1
0
ENDBLK
0
BLOCK
2
PKG_43
8
0
10
0
20
0
3
PKG_43
70
64
0
TEXT
8
PKG_INFO
10
0
20
0
40
1.778
1
*SYM:= 49
0
TEXT
8
PKG_INFO
10
0
20
-3.048
40
1.778
1
*PKG:= 0 TP_0R70 UND
0
ENDBLK
0
BLOCK
2
PART_BODY_BOT_54
8
0
10
0
20
0
3
PART_BODY_BOT_54
70
64
0
POLYLINE
8
PART_BOT_2DLINE_126
66
1
40
0.10008
41
0.10008
70
1
0
VERTEX
8
PART_BOT_2DLINE_126
10
0.450088
20
0
42
1
0
VERTEX
8
PART_BOT_2DLINE_126
10
-0.450088
20
0
42
1
0
SEQEND
0
ENDBLK
0
BLOCK
2
STK_BOT_78
8
0
10
0
20
0
3
STK_BOT_78
70
64
0
INSERT
2
DRIL_HOLE_0
8
DRIL_PLTE_THRU_01
10
0
20
0
0
INSERT
2
DRIL_HOLE_0
8
DRIL_PLTE_THRU_02
10
0
20
0
0
INSERT
2
DRIL_HOLE_0
8
DRIL_PLTE_THRU_03
10
0
20
0
0
INSERT
2
DRIL_HOLE_0
8
DRIL_PLTE_THRU_04
10
0
20
0
0
INSERT
2
PAD_0
8
PADS_INNER
10
0
20
0
0
INSERT
2
PAD_1
8
PADS_BOT
10
0
20
0
0
INSERT
2
PAD_0
8
PADS_TOP
10
0
20
0
0
ENDBLK
999
*** POWERPCB  PCB PARAMETER ***
0
BLOCK
2
PCB_PARAMS
8
0
10
0
20
0
3
PCB_PARAMS
70
64
999
 *  1.Job name           2.Backupfile name       3.CursorType
999
 *  4.TearDropFlag       5.HighlighNetsFlag      6.HatchDisplayFlag
999
 *  7.PadsFlag           8.TracksFlag            9.ViasFlag
999
 * 10.CopperFlag        11.LinesFlag            12.TextFlag
999
 * 13.TopComponentFlag  14.BottomComponentFlag  16.ObjectSnapFlags
0
TEXT
8
PCB_PARAMS
10
0
20
-3.048
40
1.778
1
A:=RC126_V1.10_20250526.pcb <> 3 0 0 1 1 1 1 1 1 1 1 1 32 502 0
999
 *  1.RefDesHeight       2.RefDesWidth           3.DefaultWidth
999
 *  4.VGX                5.VGY                   6.OVR
999
 *  7.HatchGrid          8.ObjectSnapRadius
0
TEXT
8
PCB_PARAMS
10
0
20
-6.096
40
1.778
1
B:=2.54 0.254 0.1 0.05 0.05 0 0 2.54
999
 *  1.ScaleFactor        2.NetAttributeFlags     3.BackupInterval
999
 *  4.WorkingLevel       5.HatchMode             6.HatchDirection
999
 *  7.ConnectionColor    8.BackgroundColor       9.ForegroundColor
999
 * 10.BoardOutlineColor
0
TEXT
8
PCB_PARAMS
10
0
20
-9.144
40
1.778
1
C:=1.8154357672 10002 3 1 0 0 8 0 15 15
999
 * MitreAngle0 - MitreAngle6
0
TEXT
8
PCB_PARAMS
10
0
20
-12.192
40
1.778
1
D:=324000000 324000000 324000000 324000000 324000000 324000000 162000000
999
 * Hatch & Keepout Parameters
0
TEXT
8
PCB_PARAMS
10
0
20
-15.24
40
1.778
1
E:=0.1 0 0 2 0 1
999
 * Fanout Parameters
0
TEXT
8
PCB_PARAMS
10
0
20
-18.288
40
1.778
1
F:=0.00254 0.00254 6.35 1 2 0 1 1 0 0 1 1 1 1
999
 * Pad Entry Parameters
0
TEXT
8
PCB_PARAMS
10
0
20
-21.336
40
1.778
1
P:= 1 1 1 1
999
 * DFF Parameters
0
TEXT
8
PCB_PARAMS
10
0
20
-24.384
40
1.778
1
Q:=89.9999 3967 114300 114300 114300 5 4 114300 114300 114300 114300 1 114300 1 114300 1 114300 0
0
ENDBLK
0
BLOCK
2
DRIL_SYMBOL_0
8
0
10
0
20
0
3
DRIL_SYMBOL_0
70
64
0
ENDBLK
999
*** POWERPCB  SMOOTH CIRCLE ***
0
BLOCK
2
SMOOTH_0$1
8
0
10
0
20
0
3
SMOOTH_0$1
70
64
0
POLYLINE
8
0
66
1
40
0.05
41
0.05
70
1
0
VERTEX
8
0
10
-0.025
20
0
42
1
0
VERTEX
8
0
10
0.025
20
0
42
1
0
SEQEND
0
ENDBLK
0
BLOCK
2
PAD_0
8
0
10
0
20
0
3
PAD_0
70
64
0
POLYLINE
8
0
70
1
66
1
0
VERTEX
8
0
10
0
20
0
42
1
0
VERTEX
8
0
10
0
20
0
42
1
0
SEQEND
0
ENDBLK
0
BLOCK
2
PAD_1
8
0
10
0
20
0
3
PAD_1
70
64
0
POLYLINE
8
0
70
1
66
1
40
0.3499986667
41
0.3499986667
0
VERTEX
8
0
10
0
20
-0.1749993333
42
1
0
VERTEX
8
0
10
0
20
0.1749993333
42
1
0
SEQEND
0
ENDBLK
999
*** POWERPCB  DRILL HOLE ***
0
BLOCK
2
DRIL_HOLE_0
8
0
10
0
20
0
3
DRIL_HOLE_0
70
64
0
POLYLINE
8
0
66
1
70
1
0
VERTEX
8
0
10
0
20
0
42
1
0
VERTEX
8
0
10
0
20
0
42
1
0
SEQEND
0
INSERT
2
DRIL_SYMBOL_0
8
0
10
0
20
0
0
ENDBLK
0
ENDSEC
0
SECTION
2
ENTITIES
999
*** POWERPCB  DBLAYER ***
0
INSERT
2
DBLAYERS
8
0
10
0
20
0
999
*** POWERPCB  BOARD ***
0
INSERT
2
BOARD_8
8
0
10
-9.27
20
86.56
999
*** POWERPCB  2DLINE ***
999
*** POWERPCB  FREE TEXT ***
999
*** POWERPCB  COMPONENT ***
0
INSERT
2
PART_BOT_189
8
0
10
141
20
50.3
50
-90
41
-1
0
INSERT
2
PART_BOT_308
8
0
10
129.9
20
51.5
50
-90
41
-1
0
INSERT
2
PART_BOT_367
8
0
10
83.85
20
36.9
41
-1
0
INSERT
2
PART_BOT_368
8
0
10
95.93
20
84.91
41
-1
0
INSERT
2
PART_BOT_444
8
0
10
76.7
20
62.37
41
-1
0
INSERT
2
PART_BOT_445
8
0
10
75.4
20
62.92
41
-1
0
INSERT
2
PART_BOT_446
8
0
10
98.18
20
79.22
41
-1
0
INSERT
2
PART_BOT_447
8
0
10
98.73
20
78.02
41
-1
0
INSERT
2
PART_BOT_448
8
0
10
100.48
20
79.22
50
-90
41
-1
0
INSERT
2
PART_BOT_449
8
0
10
99.93
20
78.07
41
-1
0
INSERT
2
PART_BOT_450
8
0
10
109.55
20
64.3
41
-1
0
INSERT
2
PART_BOT_451
8
0
10
111.95
20
63.95
41
-1
0
INSERT
2
PART_BOT_452
8
0
10
110.6
20
64.3
41
-1
0
INSERT
2
PART_BOT_453
8
0
10
111.95
20
64.95
41
-1
0
INSERT
2
PART_BOT_454
8
0
10
76.7
20
58.77
41
-1
0
INSERT
2
PART_BOT_455
8
0
10
75.4
20
59.32
41
-1
0
INSERT
2
PART_BOT_456
8
0
10
76.65
20
59.97
50
-270
41
-1
0
INSERT
2
PART_BOT_457
8
0
10
75.4
20
60.52
50
-270
41
-1
0
INSERT
2
PART_BOT_458
8
0
10
76.7
20
61.17
41
-1
0
INSERT
2
PART_BOT_459
8
0
10
75.4
20
61.72
41
-1
999
*** POWERPCB  PCB PARAMETER ***
0
INSERT
2
PCB_PARAMS
8
0
10
0
20
0
0
ENDSEC
0
EOF
