0
SECTION
2
HEADER
999
*** POWERPCB  HEADER ***
9
$EXTMIN
10
-5.1602033333
20
-11.99635
9
$EXTMAX
10
200.7059633333
20
136.7963493333
9
$FILLMODE
70
0
9
$GRIDMODE
70
1
9
$GRIDUNIT
10
0.05
20
0.05
9
$INSBASE
10
-240.3799993333
20
11.4899993333
9
$LIMCHECK
70
0
9
$PLINEWID
40
0.01
9
$SNAPMODE
70
1
9
$SNAPUNIT
10
0.05
20
0.05
9
$TEXTSIZE
40
2.54
9
$TEXTSTYLE
7
W0$254
9
$USERI1
70
101
9
$USERI2
70
1
9
$USERI5
70
150
9
$VIEWCTR
10
80.3434933333
20
58.5182826667
0
ENDSEC
0
SECTION
2
TABLES
999
*** POWERPCB  LAYER ***
0
TABLE
2
LAYER
70
31
0
LAYER
2
DBLAYERS
70
1
62
-254
6
CONTINUOUS
0
LAYER
2
BOARD_OUTLINE_00
70
0
62
254
6
CONTINUOUS
0
LAYER
2
TEXT_129
70
0
62
146
6
CONTINUOUS
0
LAYER
2
LABEL_INFO
70
1
62
-254
6
CONTINUOUS
0
LAYER
2
LABEL_ATTRIBUTE
70
1
62
-254
6
CONTINUOUS
0
LAYER
2
ATTRIBUTE_04
70
1
62
-1
6
CONTINUOUS
0
LAYER
2
PART_NAME_BOT
70
1
62
-250
6
CONTINUOUS
0
LAYER
2
PART_TYPE_BOT
70
1
62
-250
6
CONTINUOUS
0
LAYER
2
PART_INFO
70
1
62
-254
6
CONTINUOUS
0
LAYER
2
PART_PTS
70
1
62
-254
6
CONTINUOUS
0
LAYER
2
SYM_NAME
70
1
62
-254
6
CONTINUOUS
0
LAYER
2
SYM_TERMINAL
70
1
62
-254
6
CONTINUOUS
0
LAYER
2
PKG_INFO
70
1
62
-254
6
CONTINUOUS
0
LAYER
2
SYM_PART_NAME_126
70
1
62
-254
6
CONTINUOUS
0
LAYER
2
SYM_ATTRIBUTE_126
70
1
62
-254
6
CONTINUOUS
0
LAYER
2
DRIL_PLTE_THRU_01
70
0
62
3
6
CONTINUOUS
0
LAYER
2
DRIL_PLTE_THRU_02
70
0
62
171
6
CONTINUOUS
0
LAYER
2
DRIL_PLTE_THRU_03
70
0
62
222
6
CONTINUOUS
0
LAYER
2
DRIL_PLTE_THRU_04
70
0
62
2
6
CONTINUOUS
0
LAYER
2
PADS_INNER
70
0
62
96
6
CONTINUOUS
0
LAYER
2
PADS_BOT
70
0
62
56
6
CONTINUOUS
0
LAYER
2
PADS_TOP
70
0
62
96
6
CONTINUOUS
0
LAYER
2
PART_BOT_2DLINE_126
70
1
62
-250
6
CONTINUOUS
0
LAYER
2
PADS_XR_128
70
1
62
-250
6
CONTINUOUS
0
LAYER
2
PADS_XR_121
70
1
62
-250
6
CONTINUOUS
0
LAYER
2
PADS_XR_122
70
1
62
-250
6
CONTINUOUS
0
LAYER
2
PADS_XR_123
70
1
62
-250
6
CONTINUOUS
0
LAYER
2
PART_BOT_COPPER_121
70
1
62
-250
6
CONTINUOUS
0
LAYER
2
PART_BOT_CUTOUT_01
70
1
62
-250
6
CONTINUOUS
0
LAYER
2
PCB_PARAMS
70
1
62
-254
6
CONTINUOUS
0
LAYER
2
DRIL_SYMBOL
70
0
62
254
6
CONTINUOUS
0
ENDTAB
999
*** POWERPCB  TEXT STYLE ***
0
TABLE
2
STYLE
70
4
0
STYLE
2
W0$12
70
64
40
0
41
0.75
42
0
50
0
71
0
3
simplex
0
STYLE
2
W0$05
70
64
40
0
41
0.75
42
0
50
0
71
0
3
simplex
0
STYLE
2
W0$254
70
64
40
0
41
0.75
42
0
50
0
71
0
3
simplex
0
STYLE
2
W0$127R0
70
64
40
0
41
0.75
42
0
50
0
71
0
3
simplex
0
ENDTAB
0
ENDSEC
0
SECTION
2
BLOCKS
999
*** POWERPCB  DBLAYER ***
0
BLOCK
2
DBLAYERS
8
0
10
0
20
0
3
DBLAYERS
70
64
0
TEXT
8
DBLAYERS
10
0
20
-3.048
40
1.778
1
__It__Is__Job__Name__:=CM3l IO_V1.4_20240315(2).pcb
999
 *  1.Number             2.Type                  3.RouteColor
999
 *  4.ViaColor           5.PadColor              6.CopperColor
999
 *  7.2DLineColor        8.TextColor             9.ErrorColor
999
 * 10.TopComponentColor 11.BottomComponentColor 12.RoutingDirection
999
 * 13.LayerThickness    14.CopperThickness      15.Dielectric
999
 * 16.IsRouteable       17.IsVisible            18.IsSelectable
999
 * 19.IsPrepreg         20.AssSilkScreen        21.AssPasteMask
999
 * 22.AssSolderMask     23.AssAssembly
0
TEXT
8
DBLAYERS
10
0
20
-6.096
40
1.778
1
Bottom:=4 1 6 6 6 6 15 15 13 0 29 1 0 51435 3.2999999523 1 1 1 0 129 122 128 130 0 0 1 27 0 12 20 
0
TEXT
8
DBLAYERS
10
0
20
-9.144
40
1.778
1
Silkscreen Bottom:=129 3 0 0 0 19 19 19 0 0 19 2 0 0 3.2999999523 0 1 1 0 -1 -1 -1 -1 0 0 0 10 0 19 19 
0
ENDBLK
999
*** POWERPCB  BOARD ***
0
BLOCK
2
BOARD_490
8
0
10
0
20
0
3
BOARD_490
70
64
0
POLYLINE
8
BOARD_OUTLINE_00
66
1
40
0.1
41
0.1
70
1
0
VERTEX
8
BOARD_OUTLINE_00
10
-29.1106446667
20
-3.903866
42
-0.4142135624
0
VERTEX
8
BOARD_OUTLINE_00
10
-25.2039926667
20
0
0
VERTEX
8
BOARD_OUTLINE_00
10
167.1151293333
20
0
42
-0.4142135624
0
VERTEX
8
BOARD_OUTLINE_00
10
171.17
20
-4.0548706667
0
VERTEX
8
BOARD_OUTLINE_00
10
171.17
20
-135.9746426667
42
-0.4142135624
0
VERTEX
8
BOARD_OUTLINE_00
10
167.1546426667
20
-139.99
0
VERTEX
8
BOARD_OUTLINE_00
10
-25.2408066667
20
-139.99
42
-0.4142135624
0
VERTEX
8
BOARD_OUTLINE_00
10
-29.14
20
-136.0108066667
0
VERTEX
8
BOARD_OUTLINE_00
10
-29.14
20
-62.94
0
VERTEX
8
BOARD_OUTLINE_00
10
-11.535
20
-62.94
0
VERTEX
8
BOARD_OUTLINE_00
10
-11.4825
20
-62.8875
0
VERTEX
8
BOARD_OUTLINE_00
10
-11.505
20
-31.03
0
VERTEX
8
BOARD_OUTLINE_00
10
-29.13
20
-31.03
0
SEQEND
0
INSERT
2
SMOOTH_0$1
8
BOARD_OUTLINE_00
10
-29.1106446667
20
-3.903866
0
INSERT
2
SMOOTH_0$1
8
BOARD_OUTLINE_00
10
-25.2039926667
20
0
0
ENDBLK
999
*** POWERPCB  2DLINE ***
0
BLOCK
2
DRAWING_723
8
0
10
0
20
0
3
DRAWING_723
70
64
0
ENDBLK
999
*** POWERPCB  COMPONENT ***
0
BLOCK
2
PART_BOT_7
8
0
10
0
20
0
3
PART_BOT_7
70
64
0
INSERT
2
SYM_BOT_8
8
0
10
0
20
0
0
INSERT
2
PKG_48
8
0
10
0
20
0
41
-1
0
TEXT
8
LABEL_INFO
10
0
20
0
40
0.35
1
0 0 1 1 0 1
72
1
73
1
11
0
21
0
41
0.75
7
W0$05
0
TEXT
8
LABEL_ATTRIBUTE
10
0
20
0
40
0.35
1
Value
72
1
73
1
11
0
21
0
41
0.75
7
W0$05
0
TEXT
8
ATTRIBUTE_04
10
0
20
0
40
0.35
1
TEST
72
1
73
2
11
0
21
0
41
0.75
7
W0$05
0
TEXT
8
PART_NAME_BOT
10
0
20
0
40
1.778
1
P31
73
2
11
0
21
0
41
0.75
7
W0$254
0
TEXT
8
PART_TYPE_BOT
10
0
20
-2.54
40
1.778
1
T-1MM
73
2
11
0
21
-2.54
41
0.75
7
W0$254
0
TEXT
8
PART_INFO
10
0
20
-5.08
40
1.778
1
000000
71
2
73
2
11
0
21
-5.08
41
0.75
7
W0$254
0
TEXT
8
PART_PTS
10
0
20
-7.62
40
1.778
1
1 
71
2
73
2
11
0
21
-7.62
41
0.75
7
W0$254
0
ENDBLK
0
BLOCK
2
PART_BOT_8
8
0
10
0
20
0
3
PART_BOT_8
70
64
0
INSERT
2
SYM_BOT_8
8
0
10
0
20
0
0
INSERT
2
PKG_48
8
0
10
0
20
0
41
-1
0
TEXT
8
LABEL_INFO
10
0
20
0
40
0.35
1
0 0 1 1 0 1
72
1
73
1
11
0
21
0
41
0.75
7
W0$05
0
TEXT
8
LABEL_ATTRIBUTE
10
0
20
0
40
0.35
1
Value
72
1
73
1
11
0
21
0
41
0.75
7
W0$05
0
TEXT
8
ATTRIBUTE_04
10
0
20
0
40
0.35
1
TEST
72
1
73
2
11
0
21
0
41
0.75
7
W0$05
0
TEXT
8
PART_NAME_BOT
10
0
20
0
40
1.778
1
P30
73
2
11
0
21
0
41
0.75
7
W0$254
0
TEXT
8
PART_TYPE_BOT
10
0
20
-2.54
40
1.778
1
T-1MM
73
2
11
0
21
-2.54
41
0.75
7
W0$254
0
TEXT
8
PART_INFO
10
0
20
-5.08
40
1.778
1
000000
71
2
73
2
11
0
21
-5.08
41
0.75
7
W0$254
0
TEXT
8
PART_PTS
10
0
20
-7.62
40
1.778
1
1 
71
2
73
2
11
0
21
-7.62
41
0.75
7
W0$254
0
ENDBLK
0
BLOCK
2
PART_BOT_9
8
0
10
0
20
0
3
PART_BOT_9
70
64
0
INSERT
2
SYM_BOT_8
8
0
10
0
20
0
0
INSERT
2
PKG_48
8
0
10
0
20
0
41
-1
0
TEXT
8
LABEL_INFO
10
0
20
0
40
0.35
1
0 0 1 1 0 1
72
1
73
1
11
0
21
0
41
0.75
7
W0$05
0
TEXT
8
LABEL_ATTRIBUTE
10
0
20
0
40
0.35
1
Value
72
1
73
1
11
0
21
0
41
0.75
7
W0$05
0
TEXT
8
ATTRIBUTE_04
10
0
20
0
40
0.35
1
TEST
72
1
73
2
11
0
21
0
41
0.75
7
W0$05
0
TEXT
8
PART_NAME_BOT
10
0
20
0
40
1.778
1
P29
73
2
11
0
21
0
41
0.75
7
W0$254
0
TEXT
8
PART_TYPE_BOT
10
0
20
-2.54
40
1.778
1
T-1MM
73
2
11
0
21
-2.54
41
0.75
7
W0$254
0
TEXT
8
PART_INFO
10
0
20
-5.08
40
1.778
1
000000
71
2
73
2
11
0
21
-5.08
41
0.75
7
W0$254
0
TEXT
8
PART_PTS
10
0
20
-7.62
40
1.778
1
1 
71
2
73
2
11
0
21
-7.62
41
0.75
7
W0$254
0
ENDBLK
0
BLOCK
2
PART_BOT_10
8
0
10
0
20
0
3
PART_BOT_10
70
64
0
INSERT
2
SYM_BOT_8
8
0
10
0
20
0
0
INSERT
2
PKG_48
8
0
10
0
20
0
41
-1
0
TEXT
8
LABEL_INFO
10
0
20
0
40
0.35
1
0 0 1 1 0 1
72
1
73
1
11
0
21
0
41
0.75
7
W0$05
0
TEXT
8
LABEL_ATTRIBUTE
10
0
20
0
40
0.35
1
Value
72
1
73
1
11
0
21
0
41
0.75
7
W0$05
0
TEXT
8
ATTRIBUTE_04
10
0
20
0
40
0.35
1
TEST
72
1
73
2
11
0
21
0
41
0.75
7
W0$05
0
TEXT
8
PART_NAME_BOT
10
0
20
0
40
1.778
1
P28
73
2
11
0
21
0
41
0.75
7
W0$254
0
TEXT
8
PART_TYPE_BOT
10
0
20
-2.54
40
1.778
1
T-1MM
73
2
11
0
21
-2.54
41
0.75
7
W0$254
0
TEXT
8
PART_INFO
10
0
20
-5.08
40
1.778
1
000000
71
2
73
2
11
0
21
-5.08
41
0.75
7
W0$254
0
TEXT
8
PART_PTS
10
0
20
-7.62
40
1.778
1
1 
71
2
73
2
11
0
21
-7.62
41
0.75
7
W0$254
0
ENDBLK
0
BLOCK
2
PART_BOT_11
8
0
10
0
20
0
3
PART_BOT_11
70
64
0
INSERT
2
SYM_BOT_8
8
0
10
0
20
0
0
INSERT
2
PKG_48
8
0
10
0
20
0
41
-1
0
TEXT
8
LABEL_INFO
10
0
20
0
40
0.35
1
0 0 1 1 0 1
72
1
73
1
11
0
21
0
41
0.75
7
W0$05
0
TEXT
8
LABEL_ATTRIBUTE
10
0
20
0
40
0.35
1
Value
72
1
73
1
11
0
21
0
41
0.75
7
W0$05
0
TEXT
8
ATTRIBUTE_04
10
0
20
0
40
0.35
1
TEST
72
1
73
2
11
0
21
0
41
0.75
7
W0$05
0
TEXT
8
PART_NAME_BOT
10
0
20
0
40
1.778
1
P27
73
2
11
0
21
0
41
0.75
7
W0$254
0
TEXT
8
PART_TYPE_BOT
10
0
20
-2.54
40
1.778
1
T-1MM
73
2
11
0
21
-2.54
41
0.75
7
W0$254
0
TEXT
8
PART_INFO
10
0
20
-5.08
40
1.778
1
000000
71
2
73
2
11
0
21
-5.08
41
0.75
7
W0$254
0
TEXT
8
PART_PTS
10
0
20
-7.62
40
1.778
1
1 
71
2
73
2
11
0
21
-7.62
41
0.75
7
W0$254
0
ENDBLK
0
BLOCK
2
PART_BOT_12
8
0
10
0
20
0
3
PART_BOT_12
70
64
0
INSERT
2
SYM_BOT_8
8
0
10
0
20
0
0
INSERT
2
PKG_48
8
0
10
0
20
0
41
-1
0
TEXT
8
LABEL_INFO
10
0
20
0
40
0.35
1
0 0 1 1 0 1
72
1
73
1
11
0
21
0
41
0.75
7
W0$05
0
TEXT
8
LABEL_ATTRIBUTE
10
0
20
0
40
0.35
1
Value
72
1
73
1
11
0
21
0
41
0.75
7
W0$05
0
TEXT
8
ATTRIBUTE_04
10
0
20
0
40
0.35
1
TEST
72
1
73
2
11
0
21
0
41
0.75
7
W0$05
0
TEXT
8
PART_NAME_BOT
10
0
20
0
40
1.778
1
P26
73
2
11
0
21
0
41
0.75
7
W0$254
0
TEXT
8
PART_TYPE_BOT
10
0
20
-2.54
40
1.778
1
T-1MM
73
2
11
0
21
-2.54
41
0.75
7
W0$254
0
TEXT
8
PART_INFO
10
0
20
-5.08
40
1.778
1
000000
71
2
73
2
11
0
21
-5.08
41
0.75
7
W0$254
0
TEXT
8
PART_PTS
10
0
20
-7.62
40
1.778
1
1 
71
2
73
2
11
0
21
-7.62
41
0.75
7
W0$254
0
ENDBLK
0
BLOCK
2
PART_BOT_13
8
0
10
0
20
0
3
PART_BOT_13
70
64
0
INSERT
2
SYM_BOT_8
8
0
10
0
20
0
0
INSERT
2
PKG_48
8
0
10
0
20
0
41
-1
0
TEXT
8
LABEL_INFO
10
0
20
0
40
0.35
1
0 0 1 1 0 1
72
1
73
1
11
0
21
0
41
0.75
7
W0$05
0
TEXT
8
LABEL_ATTRIBUTE
10
0
20
0
40
0.35
1
Value
72
1
73
1
11
0
21
0
41
0.75
7
W0$05
0
TEXT
8
ATTRIBUTE_04
10
0
20
0
40
0.35
1
TEST
72
1
73
2
11
0
21
0
41
0.75
7
W0$05
0
TEXT
8
PART_NAME_BOT
10
0
20
0
40
1.778
1
P25
73
2
11
0
21
0
41
0.75
7
W0$254
0
TEXT
8
PART_TYPE_BOT
10
0
20
-2.54
40
1.778
1
T-1MM
73
2
11
0
21
-2.54
41
0.75
7
W0$254
0
TEXT
8
PART_INFO
10
0
20
-5.08
40
1.778
1
000000
71
2
73
2
11
0
21
-5.08
41
0.75
7
W0$254
0
TEXT
8
PART_PTS
10
0
20
-7.62
40
1.778
1
1 
71
2
73
2
11
0
21
-7.62
41
0.75
7
W0$254
0
ENDBLK
0
BLOCK
2
PART_BOT_14
8
0
10
0
20
0
3
PART_BOT_14
70
64
0
INSERT
2
SYM_BOT_8
8
0
10
0
20
0
0
INSERT
2
PKG_48
8
0
10
0
20
0
41
-1
0
TEXT
8
LABEL_INFO
10
0
20
0
40
0.35
1
0 0 1 1 0 1
72
1
73
1
11
0
21
0
41
0.75
7
W0$05
0
TEXT
8
LABEL_ATTRIBUTE
10
0
20
0
40
0.35
1
Value
72
1
73
1
11
0
21
0
41
0.75
7
W0$05
0
TEXT
8
ATTRIBUTE_04
10
0
20
0
40
0.35
1
TEST
72
1
73
2
11
0
21
0
41
0.75
7
W0$05
0
TEXT
8
PART_NAME_BOT
10
0
20
0
40
1.778
1
P24
73
2
11
0
21
0
41
0.75
7
W0$254
0
TEXT
8
PART_TYPE_BOT
10
0
20
-2.54
40
1.778
1
T-1MM
73
2
11
0
21
-2.54
41
0.75
7
W0$254
0
TEXT
8
PART_INFO
10
0
20
-5.08
40
1.778
1
000000
71
2
73
2
11
0
21
-5.08
41
0.75
7
W0$254
0
TEXT
8
PART_PTS
10
0
20
-7.62
40
1.778
1
1 
71
2
73
2
11
0
21
-7.62
41
0.75
7
W0$254
0
ENDBLK
0
BLOCK
2
PART_BOT_563
8
0
10
0
20
0
3
PART_BOT_563
70
64
0
INSERT
2
SYM_BOT_25
8
0
10
0
20
0
0
INSERT
2
PKG_32
8
0
10
0
20
0
41
-1
0
TEXT
8
LABEL_INFO
10
0
20
0
40
0.35
1
0 0 1 1 0 1
72
1
73
1
11
0
21
0
41
0.75
7
W0$05
0
TEXT
8
LABEL_ATTRIBUTE
10
0
20
0
40
0.35
1
Value
72
1
73
1
11
0
21
0
41
0.75
7
W0$05
0
TEXT
8
ATTRIBUTE_04
10
0
20
0
40
0.35
1
GND
72
1
73
2
11
0
21
0
41
0.75
7
W0$05
0
TEXT
8
PART_NAME_BOT
10
0
20
0
40
1.778
1
GND_1
73
2
11
0
21
0
41
0.75
7
W0$254
0
TEXT
8
PART_TYPE_BOT
10
0
20
-2.54
40
1.778
1
TP32
73
2
11
0
21
-2.54
41
0.75
7
W0$254
0
TEXT
8
PART_INFO
10
0
20
-5.08
40
1.778
1
000000
71
2
73
2
11
0
21
-5.08
41
0.75
7
W0$254
0
TEXT
8
PART_PTS
10
0
20
-7.62
40
1.778
1
1 
71
2
73
2
11
0
21
-7.62
41
0.75
7
W0$254
0
ENDBLK
0
BLOCK
2
PART_BOT_564
8
0
10
0
20
0
3
PART_BOT_564
70
64
0
INSERT
2
SYM_BOT_25
8
0
10
0
20
0
0
INSERT
2
PKG_32
8
0
10
0
20
0
41
-1
0
TEXT
8
LABEL_INFO
10
0
20
0
40
0.35
1
0 0 1 1 0 1
72
1
73
1
11
0
21
0
41
0.75
7
W0$05
0
TEXT
8
LABEL_ATTRIBUTE
10
0
20
0
40
0.35
1
Value
72
1
73
1
11
0
21
0
41
0.75
7
W0$05
0
TEXT
8
ATTRIBUTE_04
10
0
20
0
40
0.35
1
12V
72
1
73
2
11
0
21
0
41
0.75
7
W0$05
0
TEXT
8
PART_NAME_BOT
10
0
20
0
40
1.778
1
T1
73
2
11
0
21
0
41
0.75
7
W0$254
0
TEXT
8
PART_TYPE_BOT
10
0
20
-2.54
40
1.778
1
TP32
73
2
11
0
21
-2.54
41
0.75
7
W0$254
0
TEXT
8
PART_INFO
10
0
20
-5.08
40
1.778
1
000000
71
2
73
2
11
0
21
-5.08
41
0.75
7
W0$254
0
TEXT
8
PART_PTS
10
0
20
-7.62
40
1.778
1
1 
71
2
73
2
11
0
21
-7.62
41
0.75
7
W0$254
0
ENDBLK
0
BLOCK
2
PART_BOT_587
8
0
10
0
20
0
3
PART_BOT_587
70
64
0
INSERT
2
SYM_BOT_67
8
0
10
0
20
0
0
INSERT
2
PKG_47
8
0
10
0
20
0
41
-1
0
TEXT
8
LABEL_INFO
10
0
20
0
40
0.35
1
0 0 1 1 0 1
72
1
73
1
11
0
21
0
41
0.75
7
W0$05
0
TEXT
8
LABEL_ATTRIBUTE
10
0
20
0
40
0.35
1
Value
72
1
73
1
11
0
21
0
41
0.75
7
W0$05
0
TEXT
8
ATTRIBUTE_04
10
0
20
0
40
0.35
1
MARK
72
1
73
2
11
0
21
0
41
0.75
7
W0$05
0
TEXT
8
PART_NAME_BOT
10
0
20
0
40
1.778
1
M3
73
2
11
0
21
0
41
0.75
7
W0$254
0
TEXT
8
PART_TYPE_BOT
10
0
20
-2.54
40
1.778
1
MARK
73
2
11
0
21
-2.54
41
0.75
7
W0$254
0
TEXT
8
PART_INFO
10
0
20
-5.08
40
1.778
1
000000
71
2
73
2
11
0
21
-5.08
41
0.75
7
W0$254
0
ENDBLK
0
BLOCK
2
PART_BOT_588
8
0
10
0
20
0
3
PART_BOT_588
70
64
0
INSERT
2
SYM_BOT_67
8
0
10
0
20
0
0
INSERT
2
PKG_47
8
0
10
0
20
0
41
-1
0
TEXT
8
LABEL_INFO
10
0
20
0
40
0.35
1
0 0 1 1 0 1
72
1
73
1
11
0
21
0
41
0.75
7
W0$05
0
TEXT
8
LABEL_ATTRIBUTE
10
0
20
0
40
0.35
1
Value
72
1
73
1
11
0
21
0
41
0.75
7
W0$05
0
TEXT
8
ATTRIBUTE_04
10
0
20
0
40
0.35
1
MARK
72
1
73
2
11
0
21
0
41
0.75
7
W0$05
0
TEXT
8
PART_NAME_BOT
10
0
20
0
40
1.778
1
M4
73
2
11
0
21
0
41
0.75
7
W0$254
0
TEXT
8
PART_TYPE_BOT
10
0
20
-2.54
40
1.778
1
MARK
73
2
11
0
21
-2.54
41
0.75
7
W0$254
0
TEXT
8
PART_INFO
10
0
20
-5.08
40
1.778
1
000000
71
2
73
2
11
0
21
-5.08
41
0.75
7
W0$254
0
ENDBLK
0
BLOCK
2
PART_BOT_590
8
0
10
0
20
0
3
PART_BOT_590
70
64
0
INSERT
2
SYM_BOT_67
8
0
10
0
20
0
0
INSERT
2
PKG_47
8
0
10
0
20
0
41
-1
0
TEXT
8
LABEL_INFO
10
0
20
0
40
0.35
1
0 0 1 1 0 1
72
1
73
1
11
0
21
0
41
0.75
7
W0$05
0
TEXT
8
LABEL_ATTRIBUTE
10
0
20
0
40
0.35
1
Value
72
1
73
1
11
0
21
0
41
0.75
7
W0$05
0
TEXT
8
ATTRIBUTE_04
10
0
20
0
40
0.35
1
MARK
72
1
73
2
11
0
21
0
41
0.75
7
W0$05
0
TEXT
8
PART_NAME_BOT
10
0
20
0
40
1.778
1
M6
73
2
11
0
21
0
41
0.75
7
W0$254
0
TEXT
8
PART_TYPE_BOT
10
0
20
-2.54
40
1.778
1
MARK
73
2
11
0
21
-2.54
41
0.75
7
W0$254
0
TEXT
8
PART_INFO
10
0
20
-5.08
40
1.778
1
000000
71
2
73
2
11
0
21
-5.08
41
0.75
7
W0$254
0
ENDBLK
0
BLOCK
2
PART_BOT_591
8
0
10
0
20
0
3
PART_BOT_591
70
64
0
INSERT
2
SYM_BOT_8
8
0
10
0
20
0
0
INSERT
2
PKG_48
8
0
10
0
20
0
41
-1
0
TEXT
8
LABEL_INFO
10
0
20
0
40
0.35
1
0 0 1 1 0 1
72
1
73
1
11
0
21
0
41
0.75
7
W0$05
0
TEXT
8
LABEL_ATTRIBUTE
10
0
20
0
40
0.35
1
Value
72
1
73
1
11
0
21
0
41
0.75
7
W0$05
0
TEXT
8
ATTRIBUTE_04
10
0
20
0
40
0.35
1
TEST
72
1
73
2
11
0
21
0
41
0.75
7
W0$05
0
TEXT
8
PART_NAME_BOT
10
0
20
0
40
1.778
1
P1
73
2
11
0
21
0
41
0.75
7
W0$254
0
TEXT
8
PART_TYPE_BOT
10
0
20
-2.54
40
1.778
1
T-1MM
73
2
11
0
21
-2.54
41
0.75
7
W0$254
0
TEXT
8
PART_INFO
10
0
20
-5.08
40
1.778
1
000000
71
2
73
2
11
0
21
-5.08
41
0.75
7
W0$254
0
TEXT
8
PART_PTS
10
0
20
-7.62
40
1.778
1
1 
71
2
73
2
11
0
21
-7.62
41
0.75
7
W0$254
0
ENDBLK
0
BLOCK
2
PART_BOT_592
8
0
10
0
20
0
3
PART_BOT_592
70
64
0
INSERT
2
SYM_BOT_8
8
0
10
0
20
0
0
INSERT
2
PKG_48
8
0
10
0
20
0
41
-1
0
TEXT
8
LABEL_INFO
10
0
20
0
40
0.35
1
0 0 1 1 0 1
72
1
73
1
11
0
21
0
41
0.75
7
W0$05
0
TEXT
8
LABEL_ATTRIBUTE
10
0
20
0
40
0.35
1
Value
72
1
73
1
11
0
21
0
41
0.75
7
W0$05
0
TEXT
8
ATTRIBUTE_04
10
0
20
0
40
0.35
1
TEST
72
1
73
2
11
0
21
0
41
0.75
7
W0$05
0
TEXT
8
PART_NAME_BOT
10
0
20
0
40
1.778
1
P17
73
2
11
0
21
0
41
0.75
7
W0$254
0
TEXT
8
PART_TYPE_BOT
10
0
20
-2.54
40
1.778
1
T-1MM
73
2
11
0
21
-2.54
41
0.75
7
W0$254
0
TEXT
8
PART_INFO
10
0
20
-5.08
40
1.778
1
000000
71
2
73
2
11
0
21
-5.08
41
0.75
7
W0$254
0
TEXT
8
PART_PTS
10
0
20
-7.62
40
1.778
1
1 
71
2
73
2
11
0
21
-7.62
41
0.75
7
W0$254
0
ENDBLK
0
BLOCK
2
PART_BOT_593
8
0
10
0
20
0
3
PART_BOT_593
70
64
0
INSERT
2
SYM_BOT_8
8
0
10
0
20
0
0
INSERT
2
PKG_48
8
0
10
0
20
0
41
-1
0
TEXT
8
LABEL_INFO
10
0
20
0
40
0.35
1
0 0 1 1 0 1
72
1
73
1
11
0
21
0
41
0.75
7
W0$05
0
TEXT
8
LABEL_ATTRIBUTE
10
0
20
0
40
0.35
1
Value
72
1
73
1
11
0
21
0
41
0.75
7
W0$05
0
TEXT
8
ATTRIBUTE_04
10
0
20
0
40
0.35
1
TEST
72
1
73
2
11
0
21
0
41
0.75
7
W0$05
0
TEXT
8
PART_NAME_BOT
10
0
20
0
40
1.778
1
P16
73
2
11
0
21
0
41
0.75
7
W0$254
0
TEXT
8
PART_TYPE_BOT
10
0
20
-2.54
40
1.778
1
T-1MM
73
2
11
0
21
-2.54
41
0.75
7
W0$254
0
TEXT
8
PART_INFO
10
0
20
-5.08
40
1.778
1
000000
71
2
73
2
11
0
21
-5.08
41
0.75
7
W0$254
0
TEXT
8
PART_PTS
10
0
20
-7.62
40
1.778
1
1 
71
2
73
2
11
0
21
-7.62
41
0.75
7
W0$254
0
ENDBLK
0
BLOCK
2
PART_BOT_594
8
0
10
0
20
0
3
PART_BOT_594
70
64
0
INSERT
2
SYM_BOT_8
8
0
10
0
20
0
0
INSERT
2
PKG_48
8
0
10
0
20
0
41
-1
0
TEXT
8
LABEL_INFO
10
0
20
0
40
0.35
1
0 0 1 1 0 1
72
1
73
1
11
0
21
0
41
0.75
7
W0$05
0
TEXT
8
LABEL_ATTRIBUTE
10
0
20
0
40
0.35
1
Value
72
1
73
1
11
0
21
0
41
0.75
7
W0$05
0
TEXT
8
ATTRIBUTE_04
10
0
20
0
40
0.35
1
TEST
72
1
73
2
11
0
21
0
41
0.75
7
W0$05
0
TEXT
8
PART_NAME_BOT
10
0
20
0
40
1.778
1
P15
73
2
11
0
21
0
41
0.75
7
W0$254
0
TEXT
8
PART_TYPE_BOT
10
0
20
-2.54
40
1.778
1
T-1MM
73
2
11
0
21
-2.54
41
0.75
7
W0$254
0
TEXT
8
PART_INFO
10
0
20
-5.08
40
1.778
1
000000
71
2
73
2
11
0
21
-5.08
41
0.75
7
W0$254
0
TEXT
8
PART_PTS
10
0
20
-7.62
40
1.778
1
1 
71
2
73
2
11
0
21
-7.62
41
0.75
7
W0$254
0
ENDBLK
0
BLOCK
2
PART_BOT_595
8
0
10
0
20
0
3
PART_BOT_595
70
64
0
INSERT
2
SYM_BOT_8
8
0
10
0
20
0
0
INSERT
2
PKG_48
8
0
10
0
20
0
41
-1
0
TEXT
8
LABEL_INFO
10
0
20
0
40
0.35
1
0 0 1 1 0 1
72
1
73
1
11
0
21
0
41
0.75
7
W0$05
0
TEXT
8
LABEL_ATTRIBUTE
10
0
20
0
40
0.35
1
Value
72
1
73
1
11
0
21
0
41
0.75
7
W0$05
0
TEXT
8
ATTRIBUTE_04
10
0
20
0
40
0.35
1
TEST
72
1
73
2
11
0
21
0
41
0.75
7
W0$05
0
TEXT
8
PART_NAME_BOT
10
0
20
0
40
1.778
1
P14
73
2
11
0
21
0
41
0.75
7
W0$254
0
TEXT
8
PART_TYPE_BOT
10
0
20
-2.54
40
1.778
1
T-1MM
73
2
11
0
21
-2.54
41
0.75
7
W0$254
0
TEXT
8
PART_INFO
10
0
20
-5.08
40
1.778
1
000000
71
2
73
2
11
0
21
-5.08
41
0.75
7
W0$254
0
TEXT
8
PART_PTS
10
0
20
-7.62
40
1.778
1
1 
71
2
73
2
11
0
21
-7.62
41
0.75
7
W0$254
0
ENDBLK
0
BLOCK
2
PART_BOT_596
8
0
10
0
20
0
3
PART_BOT_596
70
64
0
INSERT
2
SYM_BOT_8
8
0
10
0
20
0
0
INSERT
2
PKG_48
8
0
10
0
20
0
41
-1
0
TEXT
8
LABEL_INFO
10
0
20
0
40
0.35
1
0 0 1 1 0 1
72
1
73
1
11
0
21
0
41
0.75
7
W0$05
0
TEXT
8
LABEL_ATTRIBUTE
10
0
20
0
40
0.35
1
Value
72
1
73
1
11
0
21
0
41
0.75
7
W0$05
0
TEXT
8
ATTRIBUTE_04
10
0
20
0
40
0.35
1
TEST
72
1
73
2
11
0
21
0
41
0.75
7
W0$05
0
TEXT
8
PART_NAME_BOT
10
0
20
0
40
1.778
1
P10
73
2
11
0
21
0
41
0.75
7
W0$254
0
TEXT
8
PART_TYPE_BOT
10
0
20
-2.54
40
1.778
1
T-1MM
73
2
11
0
21
-2.54
41
0.75
7
W0$254
0
TEXT
8
PART_INFO
10
0
20
-5.08
40
1.778
1
000000
71
2
73
2
11
0
21
-5.08
41
0.75
7
W0$254
0
TEXT
8
PART_PTS
10
0
20
-7.62
40
1.778
1
1 
71
2
73
2
11
0
21
-7.62
41
0.75
7
W0$254
0
ENDBLK
0
BLOCK
2
PART_BOT_597
8
0
10
0
20
0
3
PART_BOT_597
70
64
0
INSERT
2
SYM_BOT_8
8
0
10
0
20
0
0
INSERT
2
PKG_48
8
0
10
0
20
0
41
-1
0
TEXT
8
LABEL_INFO
10
0
20
0
40
0.35
1
0 0 1 1 0 1
72
1
73
1
11
0
21
0
41
0.75
7
W0$05
0
TEXT
8
LABEL_ATTRIBUTE
10
0
20
0
40
0.35
1
Value
72
1
73
1
11
0
21
0
41
0.75
7
W0$05
0
TEXT
8
ATTRIBUTE_04
10
0
20
0
40
0.35
1
TEST
72
1
73
2
11
0
21
0
41
0.75
7
W0$05
0
TEXT
8
PART_NAME_BOT
10
0
20
0
40
1.778
1
P11
73
2
11
0
21
0
41
0.75
7
W0$254
0
TEXT
8
PART_TYPE_BOT
10
0
20
-2.54
40
1.778
1
T-1MM
73
2
11
0
21
-2.54
41
0.75
7
W0$254
0
TEXT
8
PART_INFO
10
0
20
-5.08
40
1.778
1
000000
71
2
73
2
11
0
21
-5.08
41
0.75
7
W0$254
0
TEXT
8
PART_PTS
10
0
20
-7.62
40
1.778
1
1 
71
2
73
2
11
0
21
-7.62
41
0.75
7
W0$254
0
ENDBLK
0
BLOCK
2
PART_BOT_598
8
0
10
0
20
0
3
PART_BOT_598
70
64
0
INSERT
2
SYM_BOT_8
8
0
10
0
20
0
0
INSERT
2
PKG_48
8
0
10
0
20
0
41
-1
0
TEXT
8
LABEL_INFO
10
0
20
0
40
0.35
1
0 0 1 1 0 1
72
1
73
1
11
0
21
0
41
0.75
7
W0$05
0
TEXT
8
LABEL_ATTRIBUTE
10
0
20
0
40
0.35
1
Value
72
1
73
1
11
0
21
0
41
0.75
7
W0$05
0
TEXT
8
ATTRIBUTE_04
10
0
20
0
40
0.35
1
TEST
72
1
73
2
11
0
21
0
41
0.75
7
W0$05
0
TEXT
8
PART_NAME_BOT
10
0
20
0
40
1.778
1
P12
73
2
11
0
21
0
41
0.75
7
W0$254
0
TEXT
8
PART_TYPE_BOT
10
0
20
-2.54
40
1.778
1
T-1MM
73
2
11
0
21
-2.54
41
0.75
7
W0$254
0
TEXT
8
PART_INFO
10
0
20
-5.08
40
1.778
1
000000
71
2
73
2
11
0
21
-5.08
41
0.75
7
W0$254
0
TEXT
8
PART_PTS
10
0
20
-7.62
40
1.778
1
1 
71
2
73
2
11
0
21
-7.62
41
0.75
7
W0$254
0
ENDBLK
0
BLOCK
2
PART_BOT_599
8
0
10
0
20
0
3
PART_BOT_599
70
64
0
INSERT
2
SYM_BOT_8
8
0
10
0
20
0
0
INSERT
2
PKG_48
8
0
10
0
20
0
41
-1
0
TEXT
8
LABEL_INFO
10
0
20
0
40
0.35
1
0 0 1 1 0 1
72
1
73
1
11
0
21
0
41
0.75
7
W0$05
0
TEXT
8
LABEL_ATTRIBUTE
10
0
20
0
40
0.35
1
Value
72
1
73
1
11
0
21
0
41
0.75
7
W0$05
0
TEXT
8
ATTRIBUTE_04
10
0
20
0
40
0.35
1
TEST
72
1
73
2
11
0
21
0
41
0.75
7
W0$05
0
TEXT
8
PART_NAME_BOT
10
0
20
0
40
1.778
1
P13
73
2
11
0
21
0
41
0.75
7
W0$254
0
TEXT
8
PART_TYPE_BOT
10
0
20
-2.54
40
1.778
1
T-1MM
73
2
11
0
21
-2.54
41
0.75
7
W0$254
0
TEXT
8
PART_INFO
10
0
20
-5.08
40
1.778
1
000000
71
2
73
2
11
0
21
-5.08
41
0.75
7
W0$254
0
TEXT
8
PART_PTS
10
0
20
-7.62
40
1.778
1
1 
71
2
73
2
11
0
21
-7.62
41
0.75
7
W0$254
0
ENDBLK
0
BLOCK
2
PART_BOT_600
8
0
10
0
20
0
3
PART_BOT_600
70
64
0
INSERT
2
SYM_BOT_8
8
0
10
0
20
0
0
INSERT
2
PKG_48
8
0
10
0
20
0
41
-1
0
TEXT
8
LABEL_INFO
10
0
20
0
40
0.35
1
0 0 1 1 0 1
72
1
73
1
11
0
21
0
41
0.75
7
W0$05
0
TEXT
8
LABEL_ATTRIBUTE
10
0
20
0
40
0.35
1
Value
72
1
73
1
11
0
21
0
41
0.75
7
W0$05
0
TEXT
8
ATTRIBUTE_04
10
0
20
0
40
0.35
1
TEST
72
1
73
2
11
0
21
0
41
0.75
7
W0$05
0
TEXT
8
PART_NAME_BOT
10
0
20
0
40
1.778
1
P18
73
2
11
0
21
0
41
0.75
7
W0$254
0
TEXT
8
PART_TYPE_BOT
10
0
20
-2.54
40
1.778
1
T-1MM
73
2
11
0
21
-2.54
41
0.75
7
W0$254
0
TEXT
8
PART_INFO
10
0
20
-5.08
40
1.778
1
000000
71
2
73
2
11
0
21
-5.08
41
0.75
7
W0$254
0
TEXT
8
PART_PTS
10
0
20
-7.62
40
1.778
1
1 
71
2
73
2
11
0
21
-7.62
41
0.75
7
W0$254
0
ENDBLK
0
BLOCK
2
PART_BOT_601
8
0
10
0
20
0
3
PART_BOT_601
70
64
0
INSERT
2
SYM_BOT_8
8
0
10
0
20
0
0
INSERT
2
PKG_48
8
0
10
0
20
0
41
-1
0
TEXT
8
LABEL_INFO
10
0
20
0
40
0.35
1
0 0 1 1 0 1
72
1
73
1
11
0
21
0
41
0.75
7
W0$05
0
TEXT
8
LABEL_ATTRIBUTE
10
0
20
0
40
0.35
1
Value
72
1
73
1
11
0
21
0
41
0.75
7
W0$05
0
TEXT
8
ATTRIBUTE_04
10
0
20
0
40
0.35
1
TEST
72
1
73
2
11
0
21
0
41
0.75
7
W0$05
0
TEXT
8
PART_NAME_BOT
10
0
20
0
40
1.778
1
P2
73
2
11
0
21
0
41
0.75
7
W0$254
0
TEXT
8
PART_TYPE_BOT
10
0
20
-2.54
40
1.778
1
T-1MM
73
2
11
0
21
-2.54
41
0.75
7
W0$254
0
TEXT
8
PART_INFO
10
0
20
-5.08
40
1.778
1
000000
71
2
73
2
11
0
21
-5.08
41
0.75
7
W0$254
0
TEXT
8
PART_PTS
10
0
20
-7.62
40
1.778
1
1 
71
2
73
2
11
0
21
-7.62
41
0.75
7
W0$254
0
ENDBLK
0
BLOCK
2
PART_BOT_602
8
0
10
0
20
0
3
PART_BOT_602
70
64
0
INSERT
2
SYM_BOT_8
8
0
10
0
20
0
0
INSERT
2
PKG_48
8
0
10
0
20
0
41
-1
0
TEXT
8
LABEL_INFO
10
0
20
0
40
0.35
1
0 0 1 1 0 1
72
1
73
1
11
0
21
0
41
0.75
7
W0$05
0
TEXT
8
LABEL_ATTRIBUTE
10
0
20
0
40
0.35
1
Value
72
1
73
1
11
0
21
0
41
0.75
7
W0$05
0
TEXT
8
ATTRIBUTE_04
10
0
20
0
40
0.35
1
TEST
72
1
73
2
11
0
21
0
41
0.75
7
W0$05
0
TEXT
8
PART_NAME_BOT
10
0
20
0
40
1.778
1
P4
73
2
11
0
21
0
41
0.75
7
W0$254
0
TEXT
8
PART_TYPE_BOT
10
0
20
-2.54
40
1.778
1
T-1MM
73
2
11
0
21
-2.54
41
0.75
7
W0$254
0
TEXT
8
PART_INFO
10
0
20
-5.08
40
1.778
1
000000
71
2
73
2
11
0
21
-5.08
41
0.75
7
W0$254
0
TEXT
8
PART_PTS
10
0
20
-7.62
40
1.778
1
1 
71
2
73
2
11
0
21
-7.62
41
0.75
7
W0$254
0
ENDBLK
0
BLOCK
2
PART_BOT_603
8
0
10
0
20
0
3
PART_BOT_603
70
64
0
INSERT
2
SYM_BOT_8
8
0
10
0
20
0
0
INSERT
2
PKG_48
8
0
10
0
20
0
41
-1
0
TEXT
8
LABEL_INFO
10
0
20
0
40
0.35
1
0 0 1 1 0 1
72
1
73
1
11
0
21
0
41
0.75
7
W0$05
0
TEXT
8
LABEL_ATTRIBUTE
10
0
20
0
40
0.35
1
Value
72
1
73
1
11
0
21
0
41
0.75
7
W0$05
0
TEXT
8
ATTRIBUTE_04
10
0
20
0
40
0.35
1
TEST
72
1
73
2
11
0
21
0
41
0.75
7
W0$05
0
TEXT
8
PART_NAME_BOT
10
0
20
0
40
1.778
1
P5
73
2
11
0
21
0
41
0.75
7
W0$254
0
TEXT
8
PART_TYPE_BOT
10
0
20
-2.54
40
1.778
1
T-1MM
73
2
11
0
21
-2.54
41
0.75
7
W0$254
0
TEXT
8
PART_INFO
10
0
20
-5.08
40
1.778
1
000000
71
2
73
2
11
0
21
-5.08
41
0.75
7
W0$254
0
TEXT
8
PART_PTS
10
0
20
-7.62
40
1.778
1
1 
71
2
73
2
11
0
21
-7.62
41
0.75
7
W0$254
0
ENDBLK
0
BLOCK
2
PART_BOT_604
8
0
10
0
20
0
3
PART_BOT_604
70
64
0
INSERT
2
SYM_BOT_8
8
0
10
0
20
0
0
INSERT
2
PKG_48
8
0
10
0
20
0
41
-1
0
TEXT
8
LABEL_INFO
10
0
20
0
40
0.35
1
0 0 1 1 0 1
72
1
73
1
11
0
21
0
41
0.75
7
W0$05
0
TEXT
8
LABEL_ATTRIBUTE
10
0
20
0
40
0.35
1
Value
72
1
73
1
11
0
21
0
41
0.75
7
W0$05
0
TEXT
8
ATTRIBUTE_04
10
0
20
0
40
0.35
1
TEST
72
1
73
2
11
0
21
0
41
0.75
7
W0$05
0
TEXT
8
PART_NAME_BOT
10
0
20
0
40
1.778
1
P6
73
2
11
0
21
0
41
0.75
7
W0$254
0
TEXT
8
PART_TYPE_BOT
10
0
20
-2.54
40
1.778
1
T-1MM
73
2
11
0
21
-2.54
41
0.75
7
W0$254
0
TEXT
8
PART_INFO
10
0
20
-5.08
40
1.778
1
000000
71
2
73
2
11
0
21
-5.08
41
0.75
7
W0$254
0
TEXT
8
PART_PTS
10
0
20
-7.62
40
1.778
1
1 
71
2
73
2
11
0
21
-7.62
41
0.75
7
W0$254
0
ENDBLK
0
BLOCK
2
PART_BOT_605
8
0
10
0
20
0
3
PART_BOT_605
70
64
0
INSERT
2
SYM_BOT_8
8
0
10
0
20
0
0
INSERT
2
PKG_48
8
0
10
0
20
0
41
-1
0
TEXT
8
LABEL_INFO
10
0
20
0
40
0.35
1
0 0 1 1 0 1
72
1
73
1
11
0
21
0
41
0.75
7
W0$05
0
TEXT
8
LABEL_ATTRIBUTE
10
0
20
0
40
0.35
1
Value
72
1
73
1
11
0
21
0
41
0.75
7
W0$05
0
TEXT
8
ATTRIBUTE_04
10
0
20
0
40
0.35
1
TEST
72
1
73
2
11
0
21
0
41
0.75
7
W0$05
0
TEXT
8
PART_NAME_BOT
10
0
20
0
40
1.778
1
P7
73
2
11
0
21
0
41
0.75
7
W0$254
0
TEXT
8
PART_TYPE_BOT
10
0
20
-2.54
40
1.778
1
T-1MM
73
2
11
0
21
-2.54
41
0.75
7
W0$254
0
TEXT
8
PART_INFO
10
0
20
-5.08
40
1.778
1
000000
71
2
73
2
11
0
21
-5.08
41
0.75
7
W0$254
0
TEXT
8
PART_PTS
10
0
20
-7.62
40
1.778
1
1 
71
2
73
2
11
0
21
-7.62
41
0.75
7
W0$254
0
ENDBLK
0
BLOCK
2
PART_BOT_606
8
0
10
0
20
0
3
PART_BOT_606
70
64
0
INSERT
2
SYM_BOT_8
8
0
10
0
20
0
0
INSERT
2
PKG_48
8
0
10
0
20
0
41
-1
0
TEXT
8
LABEL_INFO
10
0
20
0
40
0.35
1
0 0 1 1 0 1
72
1
73
1
11
0
21
0
41
0.75
7
W0$05
0
TEXT
8
LABEL_ATTRIBUTE
10
0
20
0
40
0.35
1
Value
72
1
73
1
11
0
21
0
41
0.75
7
W0$05
0
TEXT
8
ATTRIBUTE_04
10
0
20
0
40
0.35
1
TEST
72
1
73
2
11
0
21
0
41
0.75
7
W0$05
0
TEXT
8
PART_NAME_BOT
10
0
20
0
40
1.778
1
P8
73
2
11
0
21
0
41
0.75
7
W0$254
0
TEXT
8
PART_TYPE_BOT
10
0
20
-2.54
40
1.778
1
T-1MM
73
2
11
0
21
-2.54
41
0.75
7
W0$254
0
TEXT
8
PART_INFO
10
0
20
-5.08
40
1.778
1
000000
71
2
73
2
11
0
21
-5.08
41
0.75
7
W0$254
0
TEXT
8
PART_PTS
10
0
20
-7.62
40
1.778
1
1 
71
2
73
2
11
0
21
-7.62
41
0.75
7
W0$254
0
ENDBLK
0
BLOCK
2
PART_BOT_607
8
0
10
0
20
0
3
PART_BOT_607
70
64
0
INSERT
2
SYM_BOT_8
8
0
10
0
20
0
0
INSERT
2
PKG_48
8
0
10
0
20
0
41
-1
0
TEXT
8
LABEL_INFO
10
0
20
0
40
0.35
1
0 0 1 1 0 1
72
1
73
1
11
0
21
0
41
0.75
7
W0$05
0
TEXT
8
LABEL_ATTRIBUTE
10
0
20
0
40
0.35
1
Value
72
1
73
1
11
0
21
0
41
0.75
7
W0$05
0
TEXT
8
ATTRIBUTE_04
10
0
20
0
40
0.35
1
TEST
72
1
73
2
11
0
21
0
41
0.75
7
W0$05
0
TEXT
8
PART_NAME_BOT
10
0
20
0
40
1.778
1
P9
73
2
11
0
21
0
41
0.75
7
W0$254
0
TEXT
8
PART_TYPE_BOT
10
0
20
-2.54
40
1.778
1
T-1MM
73
2
11
0
21
-2.54
41
0.75
7
W0$254
0
TEXT
8
PART_INFO
10
0
20
-5.08
40
1.778
1
000000
71
2
73
2
11
0
21
-5.08
41
0.75
7
W0$254
0
TEXT
8
PART_PTS
10
0
20
-7.62
40
1.778
1
1 
71
2
73
2
11
0
21
-7.62
41
0.75
7
W0$254
0
ENDBLK
0
BLOCK
2
PART_BOT_608
8
0
10
0
20
0
3
PART_BOT_608
70
64
0
INSERT
2
SYM_BOT_8
8
0
10
0
20
0
0
INSERT
2
PKG_48
8
0
10
0
20
0
41
-1
0
TEXT
8
LABEL_INFO
10
0
20
0
40
0.35
1
0 0 1 1 0 1
72
1
73
1
11
0
21
0
41
0.75
7
W0$05
0
TEXT
8
LABEL_ATTRIBUTE
10
0
20
0
40
0.35
1
Value
72
1
73
1
11
0
21
0
41
0.75
7
W0$05
0
TEXT
8
ATTRIBUTE_04
10
0
20
0
40
0.35
1
TEST
72
1
73
2
11
0
21
0
41
0.75
7
W0$05
0
TEXT
8
PART_NAME_BOT
10
0
20
0
40
1.778
1
P35
73
2
11
0
21
0
41
0.75
7
W0$254
0
TEXT
8
PART_TYPE_BOT
10
0
20
-2.54
40
1.778
1
T-1MM
73
2
11
0
21
-2.54
41
0.75
7
W0$254
0
TEXT
8
PART_INFO
10
0
20
-5.08
40
1.778
1
000000
71
2
73
2
11
0
21
-5.08
41
0.75
7
W0$254
0
TEXT
8
PART_PTS
10
0
20
-7.62
40
1.778
1
1 
71
2
73
2
11
0
21
-7.62
41
0.75
7
W0$254
0
ENDBLK
0
BLOCK
2
PART_BOT_609
8
0
10
0
20
0
3
PART_BOT_609
70
64
0
INSERT
2
SYM_BOT_8
8
0
10
0
20
0
0
INSERT
2
PKG_48
8
0
10
0
20
0
41
-1
0
TEXT
8
LABEL_INFO
10
0
20
0
40
0.35
1
0 0 1 1 0 1
72
1
73
1
11
0
21
0
41
0.75
7
W0$05
0
TEXT
8
LABEL_ATTRIBUTE
10
0
20
0
40
0.35
1
Value
72
1
73
1
11
0
21
0
41
0.75
7
W0$05
0
TEXT
8
ATTRIBUTE_04
10
0
20
0
40
0.35
1
TEST
72
1
73
2
11
0
21
0
41
0.75
7
W0$05
0
TEXT
8
PART_NAME_BOT
10
0
20
0
40
1.778
1
P34
73
2
11
0
21
0
41
0.75
7
W0$254
0
TEXT
8
PART_TYPE_BOT
10
0
20
-2.54
40
1.778
1
T-1MM
73
2
11
0
21
-2.54
41
0.75
7
W0$254
0
TEXT
8
PART_INFO
10
0
20
-5.08
40
1.778
1
000000
71
2
73
2
11
0
21
-5.08
41
0.75
7
W0$254
0
TEXT
8
PART_PTS
10
0
20
-7.62
40
1.778
1
1 
71
2
73
2
11
0
21
-7.62
41
0.75
7
W0$254
0
ENDBLK
0
BLOCK
2
PART_BOT_610
8
0
10
0
20
0
3
PART_BOT_610
70
64
0
INSERT
2
SYM_BOT_8
8
0
10
0
20
0
0
INSERT
2
PKG_48
8
0
10
0
20
0
41
-1
0
TEXT
8
LABEL_INFO
10
0
20
0
40
0.35
1
0 0 1 1 0 1
72
1
73
1
11
0
21
0
41
0.75
7
W0$05
0
TEXT
8
LABEL_ATTRIBUTE
10
0
20
0
40
0.35
1
Value
72
1
73
1
11
0
21
0
41
0.75
7
W0$05
0
TEXT
8
ATTRIBUTE_04
10
0
20
0
40
0.35
1
TEST
72
1
73
2
11
0
21
0
41
0.75
7
W0$05
0
TEXT
8
PART_NAME_BOT
10
0
20
0
40
1.778
1
P36
73
2
11
0
21
0
41
0.75
7
W0$254
0
TEXT
8
PART_TYPE_BOT
10
0
20
-2.54
40
1.778
1
T-1MM
73
2
11
0
21
-2.54
41
0.75
7
W0$254
0
TEXT
8
PART_INFO
10
0
20
-5.08
40
1.778
1
000000
71
2
73
2
11
0
21
-5.08
41
0.75
7
W0$254
0
TEXT
8
PART_PTS
10
0
20
-7.62
40
1.778
1
1 
71
2
73
2
11
0
21
-7.62
41
0.75
7
W0$254
0
ENDBLK
0
BLOCK
2
PART_BOT_611
8
0
10
0
20
0
3
PART_BOT_611
70
64
0
INSERT
2
SYM_BOT_8
8
0
10
0
20
0
0
INSERT
2
PKG_48
8
0
10
0
20
0
41
-1
0
TEXT
8
LABEL_INFO
10
0
20
0
40
0.35
1
0 0 1 1 0 1
72
1
73
1
11
0
21
0
41
0.75
7
W0$05
0
TEXT
8
LABEL_ATTRIBUTE
10
0
20
0
40
0.35
1
Value
72
1
73
1
11
0
21
0
41
0.75
7
W0$05
0
TEXT
8
ATTRIBUTE_04
10
0
20
0
40
0.35
1
TEST
72
1
73
2
11
0
21
0
41
0.75
7
W0$05
0
TEXT
8
PART_NAME_BOT
10
0
20
0
40
1.778
1
P37
73
2
11
0
21
0
41
0.75
7
W0$254
0
TEXT
8
PART_TYPE_BOT
10
0
20
-2.54
40
1.778
1
T-1MM
73
2
11
0
21
-2.54
41
0.75
7
W0$254
0
TEXT
8
PART_INFO
10
0
20
-5.08
40
1.778
1
000000
71
2
73
2
11
0
21
-5.08
41
0.75
7
W0$254
0
TEXT
8
PART_PTS
10
0
20
-7.62
40
1.778
1
1 
71
2
73
2
11
0
21
-7.62
41
0.75
7
W0$254
0
ENDBLK
0
BLOCK
2
PART_BOT_612
8
0
10
0
20
0
3
PART_BOT_612
70
64
0
INSERT
2
SYM_BOT_68
8
0
10
0
20
0
0
INSERT
2
PKG_49
8
0
10
0
20
0
41
-1
0
TEXT
8
LABEL_INFO
10
0
20
0
40
0.35
1
0 0 1 1 0 1
72
1
73
1
11
0
21
0
41
0.75
7
W0$05
0
TEXT
8
LABEL_ATTRIBUTE
10
0
20
0
40
0.35
1
Value
72
1
73
1
11
0
21
0
41
0.75
7
W0$05
0
TEXT
8
ATTRIBUTE_04
10
0
20
0
40
0.35
1
TEST
72
1
73
2
11
0
21
0
41
0.75
7
W0$05
0
TEXT
8
PART_NAME_BOT
10
0
20
0
40
1.778
1
P19
73
2
11
0
21
0
41
0.75
7
W0$254
0
TEXT
8
PART_TYPE_BOT
10
0
20
-2.54
40
1.778
1
TP_0R70
73
2
11
0
21
-2.54
41
0.75
7
W0$254
0
TEXT
8
PART_INFO
10
0
20
-5.08
40
1.778
1
000000
71
2
73
2
11
0
21
-5.08
41
0.75
7
W0$254
0
TEXT
8
PART_PTS
10
0
20
-7.62
40
1.778
1
1 
71
2
73
2
11
0
21
-7.62
41
0.75
7
W0$254
0
ENDBLK
0
BLOCK
2
PART_BOT_613
8
0
10
0
20
0
3
PART_BOT_613
70
64
0
INSERT
2
SYM_BOT_68
8
0
10
0
20
0
0
INSERT
2
PKG_49
8
0
10
0
20
0
41
-1
0
TEXT
8
LABEL_INFO
10
0
20
0
40
0.35
1
0 0 1 1 0 1
72
1
73
1
11
0
21
0
41
0.75
7
W0$05
0
TEXT
8
LABEL_ATTRIBUTE
10
0
20
0
40
0.35
1
Value
72
1
73
1
11
0
21
0
41
0.75
7
W0$05
0
TEXT
8
ATTRIBUTE_04
10
0
20
0
40
0.35
1
TEST
72
1
73
2
11
0
21
0
41
0.75
7
W0$05
0
TEXT
8
PART_NAME_BOT
10
0
20
0
40
1.778
1
P20
73
2
11
0
21
0
41
0.75
7
W0$254
0
TEXT
8
PART_TYPE_BOT
10
0
20
-2.54
40
1.778
1
TP_0R70
73
2
11
0
21
-2.54
41
0.75
7
W0$254
0
TEXT
8
PART_INFO
10
0
20
-5.08
40
1.778
1
000000
71
2
73
2
11
0
21
-5.08
41
0.75
7
W0$254
0
TEXT
8
PART_PTS
10
0
20
-7.62
40
1.778
1
1 
71
2
73
2
11
0
21
-7.62
41
0.75
7
W0$254
0
ENDBLK
0
BLOCK
2
PART_BOT_614
8
0
10
0
20
0
3
PART_BOT_614
70
64
0
INSERT
2
SYM_BOT_68
8
0
10
0
20
0
0
INSERT
2
PKG_49
8
0
10
0
20
0
41
-1
0
TEXT
8
LABEL_INFO
10
0
20
0
40
0.35
1
0 0 1 1 0 1
72
1
73
1
11
0
21
0
41
0.75
7
W0$05
0
TEXT
8
LABEL_ATTRIBUTE
10
0
20
0
40
0.35
1
Value
72
1
73
1
11
0
21
0
41
0.75
7
W0$05
0
TEXT
8
ATTRIBUTE_04
10
0
20
0
40
0.35
1
TEST
72
1
73
2
11
0
21
0
41
0.75
7
W0$05
0
TEXT
8
PART_NAME_BOT
10
0
20
0
40
1.778
1
P21
73
2
11
0
21
0
41
0.75
7
W0$254
0
TEXT
8
PART_TYPE_BOT
10
0
20
-2.54
40
1.778
1
TP_0R70
73
2
11
0
21
-2.54
41
0.75
7
W0$254
0
TEXT
8
PART_INFO
10
0
20
-5.08
40
1.778
1
000000
71
2
73
2
11
0
21
-5.08
41
0.75
7
W0$254
0
TEXT
8
PART_PTS
10
0
20
-7.62
40
1.778
1
1 
71
2
73
2
11
0
21
-7.62
41
0.75
7
W0$254
0
ENDBLK
0
BLOCK
2
PART_BOT_615
8
0
10
0
20
0
3
PART_BOT_615
70
64
0
INSERT
2
SYM_BOT_68
8
0
10
0
20
0
0
INSERT
2
PKG_49
8
0
10
0
20
0
41
-1
0
TEXT
8
LABEL_INFO
10
0
20
0
40
0.35
1
0 0 1 1 0 1
72
1
73
1
11
0
21
0
41
0.75
7
W0$05
0
TEXT
8
LABEL_ATTRIBUTE
10
0
20
0
40
0.35
1
Value
72
1
73
1
11
0
21
0
41
0.75
7
W0$05
0
TEXT
8
ATTRIBUTE_04
10
0
20
0
40
0.35
1
TP_0.7
72
1
73
2
11
0
21
0
41
0.75
7
W0$05
0
TEXT
8
PART_NAME_BOT
10
0
20
0
40
1.778
1
TP1
73
2
11
0
21
0
41
0.75
7
W0$254
0
TEXT
8
PART_TYPE_BOT
10
0
20
-2.54
40
1.778
1
TP_0R70
73
2
11
0
21
-2.54
41
0.75
7
W0$254
0
TEXT
8
PART_INFO
10
0
20
-5.08
40
1.778
1
000000
71
2
73
2
11
0
21
-5.08
41
0.75
7
W0$254
0
TEXT
8
PART_PTS
10
0
20
-7.62
40
1.778
1
1 
71
2
73
2
11
0
21
-7.62
41
0.75
7
W0$254
0
ENDBLK
0
BLOCK
2
PART_BOT_616
8
0
10
0
20
0
3
PART_BOT_616
70
64
0
INSERT
2
SYM_BOT_68
8
0
10
0
20
0
0
INSERT
2
PKG_49
8
0
10
0
20
0
41
-1
0
TEXT
8
LABEL_INFO
10
0
20
0
40
0.35
1
0 0 1 1 0 1
72
1
73
1
11
0
21
0
41
0.75
7
W0$05
0
TEXT
8
LABEL_ATTRIBUTE
10
0
20
0
40
0.35
1
Value
72
1
73
1
11
0
21
0
41
0.75
7
W0$05
0
TEXT
8
ATTRIBUTE_04
10
0
20
0
40
0.35
1
TP_0.7
72
1
73
2
11
0
21
0
41
0.75
7
W0$05
0
TEXT
8
PART_NAME_BOT
10
0
20
0
40
1.778
1
TP2
73
2
11
0
21
0
41
0.75
7
W0$254
0
TEXT
8
PART_TYPE_BOT
10
0
20
-2.54
40
1.778
1
TP_0R70
73
2
11
0
21
-2.54
41
0.75
7
W0$254
0
TEXT
8
PART_INFO
10
0
20
-5.08
40
1.778
1
000000
71
2
73
2
11
0
21
-5.08
41
0.75
7
W0$254
0
TEXT
8
PART_PTS
10
0
20
-7.62
40
1.778
1
1 
71
2
73
2
11
0
21
-7.62
41
0.75
7
W0$254
0
ENDBLK
0
BLOCK
2
PART_BOT_617
8
0
10
0
20
0
3
PART_BOT_617
70
64
0
INSERT
2
SYM_BOT_68
8
0
10
0
20
0
0
INSERT
2
PKG_49
8
0
10
0
20
0
41
-1
0
TEXT
8
LABEL_INFO
10
0
20
0
40
0.35
1
0 0 1 1 0 1
72
1
73
1
11
0
21
0
41
0.75
7
W0$05
0
TEXT
8
LABEL_ATTRIBUTE
10
0
20
0
40
0.35
1
Value
72
1
73
1
11
0
21
0
41
0.75
7
W0$05
0
TEXT
8
ATTRIBUTE_04
10
0
20
0
40
0.35
1
TP_0.7
72
1
73
2
11
0
21
0
41
0.75
7
W0$05
0
TEXT
8
PART_NAME_BOT
10
0
20
0
40
1.778
1
TP8
73
2
11
0
21
0
41
0.75
7
W0$254
0
TEXT
8
PART_TYPE_BOT
10
0
20
-2.54
40
1.778
1
TP_0R70
73
2
11
0
21
-2.54
41
0.75
7
W0$254
0
TEXT
8
PART_INFO
10
0
20
-5.08
40
1.778
1
000000
71
2
73
2
11
0
21
-5.08
41
0.75
7
W0$254
0
TEXT
8
PART_PTS
10
0
20
-7.62
40
1.778
1
1 
71
2
73
2
11
0
21
-7.62
41
0.75
7
W0$254
0
ENDBLK
0
BLOCK
2
PART_BOT_618
8
0
10
0
20
0
3
PART_BOT_618
70
64
0
INSERT
2
SYM_BOT_68
8
0
10
0
20
0
0
INSERT
2
PKG_49
8
0
10
0
20
0
41
-1
0
TEXT
8
LABEL_INFO
10
0
20
0
40
0.35
1
0 0 1 1 0 1
72
1
73
1
11
0
21
0
41
0.75
7
W0$05
0
TEXT
8
LABEL_ATTRIBUTE
10
0
20
0
40
0.35
1
Value
72
1
73
1
11
0
21
0
41
0.75
7
W0$05
0
TEXT
8
ATTRIBUTE_04
10
0
20
0
40
0.35
1
TP_0.7
72
1
73
2
11
0
21
0
41
0.75
7
W0$05
0
TEXT
8
PART_NAME_BOT
10
0
20
0
40
1.778
1
TP9
73
2
11
0
21
0
41
0.75
7
W0$254
0
TEXT
8
PART_TYPE_BOT
10
0
20
-2.54
40
1.778
1
TP_0R70
73
2
11
0
21
-2.54
41
0.75
7
W0$254
0
TEXT
8
PART_INFO
10
0
20
-5.08
40
1.778
1
000000
71
2
73
2
11
0
21
-5.08
41
0.75
7
W0$254
0
TEXT
8
PART_PTS
10
0
20
-7.62
40
1.778
1
1 
71
2
73
2
11
0
21
-7.62
41
0.75
7
W0$254
0
ENDBLK
0
BLOCK
2
PART_BOT_619
8
0
10
0
20
0
3
PART_BOT_619
70
64
0
INSERT
2
SYM_BOT_68
8
0
10
0
20
0
0
INSERT
2
PKG_49
8
0
10
0
20
0
41
-1
0
TEXT
8
LABEL_INFO
10
0
20
0
40
0.35
1
0 0 1 1 0 1
72
1
73
1
11
0
21
0
41
0.75
7
W0$05
0
TEXT
8
LABEL_ATTRIBUTE
10
0
20
0
40
0.35
1
Value
72
1
73
1
11
0
21
0
41
0.75
7
W0$05
0
TEXT
8
ATTRIBUTE_04
10
0
20
0
40
0.35
1
TEST
72
1
73
2
11
0
21
0
41
0.75
7
W0$05
0
TEXT
8
PART_NAME_BOT
10
0
20
0
40
1.778
1
P23
73
2
11
0
21
0
41
0.75
7
W0$254
0
TEXT
8
PART_TYPE_BOT
10
0
20
-2.54
40
1.778
1
TP_0R70
73
2
11
0
21
-2.54
41
0.75
7
W0$254
0
TEXT
8
PART_INFO
10
0
20
-5.08
40
1.778
1
000000
71
2
73
2
11
0
21
-5.08
41
0.75
7
W0$254
0
TEXT
8
PART_PTS
10
0
20
-7.62
40
1.778
1
1 
71
2
73
2
11
0
21
-7.62
41
0.75
7
W0$254
0
ENDBLK
0
BLOCK
2
SYM_BOT_8
8
0
10
0
20
0
3
SYM_BOT_8
70
64
0
TEXT
8
SYM_NAME
10
0
20
0
40
1.778
1
T-1MM
41
0.75
0
INSERT
2
PART_BODY_BOT_762
8
0
10
0
20
0
0
INSERT
2
STK_BOT_7
8
0
10
0
20
0
0
TEXT
8
SYM_TERMINAL
10
0
20
-3.048
40
1.778
1
1
0
ENDBLK
0
BLOCK
2
PKG_48
8
0
10
0
20
0
3
PKG_48
70
64
0
TEXT
8
PKG_INFO
10
0
20
0
40
1.778
1
*SYM:= 8
0
TEXT
8
PKG_INFO
10
0
20
-3.048
40
1.778
1
*PKG:= 0 T-1MM UND
0
ENDBLK
0
BLOCK
2
SYM_BOT_25
8
0
10
0
20
0
3
SYM_BOT_25
70
64
0
TEXT
8
SYM_NAME
10
0
20
0
40
1.778
1
TP32
41
0.75
0
INSERT
2
PART_BODY_BOT_779
8
0
10
0
20
0
0
INSERT
2
STK_BOT_21
8
0
10
0
20
0
0
TEXT
8
SYM_TERMINAL
10
0
20
-3.048
40
1.778
1
1
0
ENDBLK
0
BLOCK
2
PKG_32
8
0
10
0
20
0
3
PKG_32
70
64
0
TEXT
8
PKG_INFO
10
0
20
0
40
1.778
1
*SYM:= 25
0
TEXT
8
PKG_INFO
10
0
20
-3.048
40
1.778
1
*PKG:= 0 TP32 UND
0
ENDBLK
0
BLOCK
2
SYM_BOT_67
8
0
10
0
20
0
3
SYM_BOT_67
70
64
0
TEXT
8
SYM_NAME
10
0
20
0
40
1.778
1
MARK
41
0.75
0
INSERT
2
PART_BODY_BOT_821
8
0
10
0
20
0
0
INSERT
2
STK_BOT_97
8
0
10
0
20
0
0
TEXT
8
SYM_TERMINAL
10
0
20
-3.048
40
1.778
1
1
0
ENDBLK
0
BLOCK
2
PKG_47
8
0
10
0
20
0
3
PKG_47
70
64
0
TEXT
8
PKG_INFO
10
0
20
0
40
1.778
1
*SYM:= 67
0
TEXT
8
PKG_INFO
10
0
20
-3.048
40
1.778
1
*PKG:= 0 MARK UND
0
ENDBLK
0
BLOCK
2
SYM_BOT_68
8
0
10
0
20
0
3
SYM_BOT_68
70
64
0
TEXT
8
SYM_NAME
10
0
20
0
40
1.778
1
TP_0R70
41
0.75
0
TEXT
8
SYM_PART_NAME_126
10
-2.338
20
2.369
40
0.889
1
 
41
0.75
7
W0$127R0
0
TEXT
8
SYM_ATTRIBUTE_126
10
-2.338
20
1.099
40
0.889
1
Comment
41
0.75
7
W0$127R0
0
INSERT
2
PART_BODY_BOT_822
8
0
10
0
20
0
0
INSERT
2
STK_BOT_98
8
0
10
0
20
0
0
TEXT
8
SYM_TERMINAL
10
0
20
-3.048
40
1.778
1
1
0
ENDBLK
0
BLOCK
2
PKG_49
8
0
10
0
20
0
3
PKG_49
70
64
0
TEXT
8
PKG_INFO
10
0
20
0
40
1.778
1
*SYM:= 68
0
TEXT
8
PKG_INFO
10
0
20
-3.048
40
1.778
1
*PKG:= 0 TP_0R70 UND
0
ENDBLK
0
BLOCK
2
PART_BODY_BOT_762
8
0
10
0
20
0
3
PART_BODY_BOT_762
70
64
0
ENDBLK
0
BLOCK
2
STK_BOT_7
8
0
10
0
20
0
3
STK_BOT_7
70
64
0
INSERT
2
DRIL_HOLE_0
8
DRIL_PLTE_THRU_01
10
0
20
0
0
INSERT
2
DRIL_HOLE_0
8
DRIL_PLTE_THRU_02
10
0
20
0
0
INSERT
2
DRIL_HOLE_0
8
DRIL_PLTE_THRU_03
10
0
20
0
0
INSERT
2
DRIL_HOLE_0
8
DRIL_PLTE_THRU_04
10
0
20
0
0
INSERT
2
PAD_0
8
PADS_INNER
10
0
20
0
0
INSERT
2
PAD_1
8
PADS_BOT
10
0
20
0
0
INSERT
2
PAD_0
8
PADS_TOP
10
0
20
0
0
ENDBLK
0
BLOCK
2
PART_BODY_BOT_779
8
0
10
0
20
0
3
PART_BODY_BOT_779
70
64
0
POLYLINE
8
PART_BOT_2DLINE_126
66
1
40
0.127
41
0.127
70
1
0
VERTEX
8
PART_BOT_2DLINE_126
10
-0.567944
20
0
42
1
0
VERTEX
8
PART_BOT_2DLINE_126
10
0.567944
20
0
42
1
0
SEQEND
0
ENDBLK
0
BLOCK
2
STK_BOT_21
8
0
10
0
20
0
3
STK_BOT_21
70
64
0
INSERT
2
DRIL_HOLE_0
8
DRIL_PLTE_THRU_01
10
0
20
0
0
INSERT
2
DRIL_HOLE_0
8
DRIL_PLTE_THRU_02
10
0
20
0
0
INSERT
2
DRIL_HOLE_0
8
DRIL_PLTE_THRU_03
10
0
20
0
0
INSERT
2
DRIL_HOLE_0
8
DRIL_PLTE_THRU_04
10
0
20
0
0
INSERT
2
PAD_0
8
PADS_XR_128
10
0
20
0
0
INSERT
2
PAD_0
8
PADS_INNER
10
0
20
0
0
INSERT
2
PAD_2
8
PADS_XR_121
10
0
20
0
0
INSERT
2
PAD_0
8
PADS_XR_122
10
0
20
0
0
INSERT
2
PAD_3
8
PADS_XR_123
10
0
20
0
0
INSERT
2
PAD_3
8
PADS_BOT
10
0
20
0
0
INSERT
2
PAD_0
8
PADS_TOP
10
0
20
0
0
ENDBLK
0
BLOCK
2
PART_BODY_BOT_821
8
0
10
0
20
0
3
PART_BODY_BOT_821
70
64
0
POLYLINE
8
PART_BOT_COPPER_121
66
1
40
1
41
1
70
1
0
VERTEX
8
PART_BOT_COPPER_121
10
0.5
20
0
42
1
0
VERTEX
8
PART_BOT_COPPER_121
10
-0.5
20
0
42
1
0
SEQEND
0
POLYLINE
8
PART_BOT_CUTOUT_01
66
1
40
0.15
41
0.15
70
1
0
VERTEX
8
PART_BOT_CUTOUT_01
10
1.725
20
0
42
1
0
VERTEX
8
PART_BOT_CUTOUT_01
10
-1.725
20
0
42
1
0
SEQEND
0
ENDBLK
0
BLOCK
2
STK_BOT_97
8
0
10
0
20
0
3
STK_BOT_97
70
64
0
INSERT
2
DRIL_HOLE_0
8
DRIL_PLTE_THRU_01
10
0
20
0
0
INSERT
2
DRIL_HOLE_0
8
DRIL_PLTE_THRU_02
10
0
20
0
0
INSERT
2
DRIL_HOLE_0
8
DRIL_PLTE_THRU_03
10
0
20
0
0
INSERT
2
DRIL_HOLE_0
8
DRIL_PLTE_THRU_04
10
0
20
0
0
INSERT
2
PAD_0
8
PADS_INNER
10
0
20
0
0
INSERT
2
PAD_4
8
PADS_BOT
10
0
20
0
0
INSERT
2
PAD_0
8
PADS_TOP
10
0
20
0
0
ENDBLK
0
BLOCK
2
PART_BODY_BOT_822
8
0
10
0
20
0
3
PART_BODY_BOT_822
70
64
0
POLYLINE
8
PART_BOT_2DLINE_126
66
1
40
0.100076
41
0.100076
70
1
0
VERTEX
8
PART_BOT_2DLINE_126
10
0.450088
20
0
42
1
0
VERTEX
8
PART_BOT_2DLINE_126
10
-0.450088
20
0
42
1
0
SEQEND
0
ENDBLK
0
BLOCK
2
STK_BOT_98
8
0
10
0
20
0
3
STK_BOT_98
70
64
0
INSERT
2
DRIL_HOLE_0
8
DRIL_PLTE_THRU_01
10
0
20
0
0
INSERT
2
DRIL_HOLE_0
8
DRIL_PLTE_THRU_02
10
0
20
0
0
INSERT
2
DRIL_HOLE_0
8
DRIL_PLTE_THRU_03
10
0
20
0
0
INSERT
2
DRIL_HOLE_0
8
DRIL_PLTE_THRU_04
10
0
20
0
0
INSERT
2
PAD_0
8
PADS_INNER
10
0
20
0
0
INSERT
2
PAD_5
8
PADS_BOT
10
0
20
0
0
INSERT
2
PAD_0
8
PADS_TOP
10
0
20
0
0
ENDBLK
999
*** POWERPCB  PCB PARAMETER ***
0
BLOCK
2
PCB_PARAMS
8
0
10
0
20
0
3
PCB_PARAMS
70
64
999
 *  1.Job name           2.Backupfile name       3.CursorType
999
 *  4.TearDropFlag       5.HighlighNetsFlag      6.HatchDisplayFlag
999
 *  7.PadsFlag           8.TracksFlag            9.ViasFlag
999
 * 10.CopperFlag        11.LinesFlag            12.TextFlag
999
 * 13.TopComponentFlag  14.BottomComponentFlag  16.ObjectSnapFlags
0
TEXT
8
PCB_PARAMS
10
0
20
-3.048
40
1.778
1
A:=CM3lIO_V1.4_20240315(2).pcb <> 5 0 1 1 1 1 1 1 1 1 1 1 32 502 0
999
 *  1.RefDesHeight       2.RefDesWidth           3.DefaultWidth
999
 *  4.VGX                5.VGY                   6.OVR
999
 *  7.HatchGrid          8.ObjectSnapRadius
0
TEXT
8
PCB_PARAMS
10
0
20
-6.096
40
1.778
1
B:=2.54 0.254 0.1 0.05 0.05 0.0762 0.1 2.54
999
 *  1.ScaleFactor        2.NetAttributeFlags     3.BackupInterval
999
 *  4.WorkingLevel       5.HatchMode             6.HatchDirection
999
 *  7.ConnectionColor    8.BackgroundColor       9.ForegroundColor
999
 * 10.BoardOutlineColor
0
TEXT
8
PCB_PARAMS
10
0
20
-9.144
40
1.778
1
C:=3.8774447441 10002 3 3 0 0 8 0 8 8
999
 * MitreAngle0 - MitreAngle6
0
TEXT
8
PCB_PARAMS
10
0
20
-12.192
40
1.778
1
D:=324000000 324000000 324000000 324000000 324000000 324000000 324000000
999
 * Hatch & Keepout Parameters
0
TEXT
8
PCB_PARAMS
10
0
20
-15.24
40
1.778
1
E:=0.1 0 0 2.54 0 1
999
 * Fanout Parameters
0
TEXT
8
PCB_PARAMS
10
0
20
-18.288
40
1.778
1
F:=0.01 0.01 6.35 1 2 0 1 1 0 0 1 1 1 1
999
 * Pad Entry Parameters
0
TEXT
8
PCB_PARAMS
10
0
20
-21.336
40
1.778
1
P:= 1 1 1 1
999
 * DFF Parameters
0
TEXT
8
PCB_PARAMS
10
0
20
-24.384
40
1.778
1
Q:=89.9999 3967 114300 114300 114300 5 4 114300 114300 114300 114300 1 114300 1 114300 1 114300 0
0
ENDBLK
0
BLOCK
2
DRIL_SYMBOL_0
8
0
10
0
20
0
3
DRIL_SYMBOL_0
70
64
0
ENDBLK
999
*** POWERPCB  SMOOTH CIRCLE ***
0
BLOCK
2
SMOOTH_0$1
8
0
10
0
20
0
3
SMOOTH_0$1
70
64
0
POLYLINE
8
0
66
1
40
0.05
41
0.05
70
1
0
VERTEX
8
0
10
-0.025
20
0
42
1
0
VERTEX
8
0
10
0.025
20
0
42
1
0
SEQEND
0
ENDBLK
0
BLOCK
2
PAD_0
8
0
10
0
20
0
3
PAD_0
70
64
0
POLYLINE
8
0
70
1
66
1
0
VERTEX
8
0
10
0
20
0
42
1
0
VERTEX
8
0
10
0
20
0
42
1
0
SEQEND
0
ENDBLK
0
BLOCK
2
PAD_1
8
0
10
0
20
0
3
PAD_1
70
64
0
POLYLINE
8
0
70
1
66
1
40
0.4
41
0.4
0
VERTEX
8
0
10
0
20
-0.2
42
1
0
VERTEX
8
0
10
0
20
0.2
42
1
0
SEQEND
0
ENDBLK
0
BLOCK
2
PAD_2
8
0
10
0
20
0
3
PAD_2
70
64
0
POLYLINE
8
0
70
1
66
1
40
0.4572
41
0.4572
0
VERTEX
8
0
10
0
20
-0.2286
42
1
0
VERTEX
8
0
10
0
20
0.2286
42
1
0
SEQEND
0
ENDBLK
0
BLOCK
2
PAD_3
8
0
10
0
20
0
3
PAD_3
70
64
0
POLYLINE
8
0
70
1
66
1
40
0.4064
41
0.4064
0
VERTEX
8
0
10
0
20
-0.2032
42
1
0
VERTEX
8
0
10
0
20
0.2032
42
1
0
SEQEND
0
ENDBLK
0
BLOCK
2
PAD_4
8
0
10
0
20
0
3
PAD_4
70
64
0
POLYLINE
8
0
70
1
66
1
40
0.5
41
0.5
0
VERTEX
8
0
10
0
20
-0.25
42
1
0
VERTEX
8
0
10
0
20
0.25
42
1
0
SEQEND
0
ENDBLK
0
BLOCK
2
PAD_5
8
0
10
0
20
0
3
PAD_5
70
64
0
POLYLINE
8
0
70
1
66
1
40
0.3499986667
41
0.3499986667
0
VERTEX
8
0
10
0
20
-0.1749993333
42
1
0
VERTEX
8
0
10
0
20
0.1749993333
42
1
0
SEQEND
0
ENDBLK
999
*** POWERPCB  DRILL HOLE ***
0
BLOCK
2
DRIL_HOLE_0
8
0
10
0
20
0
3
DRIL_HOLE_0
70
64
0
POLYLINE
8
0
66
1
70
1
0
VERTEX
8
0
10
0
20
0
42
1
0
VERTEX
8
0
10
0
20
0
42
1
0
SEQEND
0
INSERT
2
DRIL_SYMBOL_0
8
0
10
0
20
0
0
ENDBLK
0
ENDSEC
0
SECTION
2
ENTITIES
999
*** POWERPCB  DBLAYER ***
0
INSERT
2
DBLAYERS
8
0
10
0
20
0
999
*** POWERPCB  BOARD ***
0
INSERT
2
BOARD_490
8
0
10
24.03
20
131.41
999
*** POWERPCB  2DLINE ***
0
INSERT
2
DRAWING_723
8
0
10
19.05
20
124.75
999
*** POWERPCB  FREE TEXT ***
0
TEXT
8
TEXT_129
10
63.25
20
123.85
40
0.84
1
GND
71
2
50
90
41
0.75
7
W0$12
0
TEXT
8
TEXT_129
10
66.85
20
123.65
40
0.84
1
TX
71
2
50
90
41
0.75
7
W0$12
0
TEXT
8
TEXT_129
10
70.25
20
123.75
40
0.84
1
RX
71
2
50
90
41
0.75
7
W0$12
0
TEXT
8
TEXT_129
10
47.65
20
124
40
0.84
1
CAN_VSS
71
2
50
90
41
0.75
7
W0$12
0
TEXT
8
TEXT_129
10
51.25
20
123.8
40
0.84
1
CANL
71
2
50
90
41
0.75
7
W0$12
0
TEXT
8
TEXT_129
10
54.65
20
123.9
40
0.84
1
CANH
71
2
50
90
41
0.75
7
W0$12
0
TEXT
8
TEXT_129
10
35.7
20
123.9
40
0.84
1
RS485_B
71
2
50
90
41
0.75
7
W0$12
0
TEXT
8
TEXT_129
10
32.3
20
123.8
40
0.84
1
RS485_A
71
2
50
90
41
0.75
7
W0$12
0
TEXT
8
TEXT_129
10
28.7
20
124
40
0.84
1
GND
71
2
50
90
41
0.75
7
W0$12
0
TEXT
8
TEXT_129
10
39.15
20
123.6
40
0.84
1
GND
71
2
50
90
41
0.75
7
W0$12
0
TEXT
8
TEXT_129
10
16.75
20
123.85
40
0.84
1
GND
71
2
50
90
41
0.75
7
W0$12
0
TEXT
8
TEXT_129
10
20.15
20
123.95
40
0.84
1
12V
71
2
50
90
41
0.75
7
W0$12
0
TEXT
8
TEXT_129
10
20.95
20
89.75
40
0.84
1
5V
71
2
41
0.75
7
W0$12
0
TEXT
8
TEXT_129
10
21.055334
20
92.165
40
0.84
1
GND
71
2
41
0.75
7
W0$12
0
TEXT
8
TEXT_129
10
21.055334
20
94.715
40
0.84
1
GND
71
2
41
0.75
7
W0$12
0
TEXT
8
TEXT_129
10
21
20
97.35
40
0.84
1
12V
71
2
41
0.75
7
W0$12
999
*** POWERPCB  COMPONENT ***
0
INSERT
2
PART_BOT_7
8
0
10
118.5
20
84.65
41
-1
0
INSERT
2
PART_BOT_8
8
0
10
119.4
20
86.2
41
-1
0
INSERT
2
PART_BOT_9
8
0
10
120.6
20
86.2
41
-1
0
INSERT
2
PART_BOT_10
8
0
10
120.5
20
84.55
41
-1
0
INSERT
2
PART_BOT_11
8
0
10
121.8
20
84.55
41
-1
0
INSERT
2
PART_BOT_12
8
0
10
122.2
20
86.2
41
-1
0
INSERT
2
PART_BOT_13
8
0
10
123
20
84.55
41
-1
0
INSERT
2
PART_BOT_14
8
0
10
124.2
20
84.45
41
-1
0
INSERT
2
PART_BOT_563
8
0
10
17.2
20
129.6
41
-1
0
INSERT
2
PART_BOT_564
8
0
10
19.5
20
129.75
41
-1
0
INSERT
2
PART_BOT_587
8
0
10
-2.25
20
4.95
41
-1
0
INSERT
2
PART_BOT_588
8
0
10
192.75
20
110.7
41
-1
0
INSERT
2
PART_BOT_590
8
0
10
192.8
20
4.15
41
-1
0
INSERT
2
PART_BOT_591
8
0
10
69.55
20
128.25
41
-1
0
INSERT
2
PART_BOT_592
8
0
10
105.1
20
52
41
-1
0
INSERT
2
PART_BOT_593
8
0
10
106.35
20
52
41
-1
0
INSERT
2
PART_BOT_594
8
0
10
108.35
20
52
41
-1
0
INSERT
2
PART_BOT_595
8
0
10
119.05
20
51.95
41
-1
0
INSERT
2
PART_BOT_596
8
0
10
79.3
20
49.55
41
-1
0
INSERT
2
PART_BOT_597
8
0
10
78.05
20
50.95
41
-1
0
INSERT
2
PART_BOT_598
8
0
10
78.1
20
49.55
41
-1
0
INSERT
2
PART_BOT_599
8
0
10
79.35
20
50.8
41
-1
0
INSERT
2
PART_BOT_600
8
0
10
107.2
20
83.5
41
-1
0
INSERT
2
PART_BOT_601
8
0
10
66.05
20
128.25
41
-1
0
INSERT
2
PART_BOT_602
8
0
10
84.35
20
50.55
41
-1
0
INSERT
2
PART_BOT_603
8
0
10
83.1
20
50.55
41
-1
0
INSERT
2
PART_BOT_604
8
0
10
81.95
20
50.75
41
-1
0
INSERT
2
PART_BOT_605
8
0
10
82.05
20
49.65
41
-1
0
INSERT
2
PART_BOT_606
8
0
10
80.5
20
49.55
41
-1
0
INSERT
2
PART_BOT_607
8
0
10
80.55
20
50.8
41
-1
0
INSERT
2
PART_BOT_608
8
0
10
86.4
20
84.2
41
-1
0
INSERT
2
PART_BOT_609
8
0
10
104.8
20
48.8
41
-1
0
INSERT
2
PART_BOT_610
8
0
10
86.4
20
82.05
41
-1
0
INSERT
2
PART_BOT_611
8
0
10
80.05
20
81.5
41
-1
0
INSERT
2
PART_BOT_612
8
0
10
12.9
20
58.35
50
-270
41
-1
0
INSERT
2
PART_BOT_613
8
0
10
4.8
20
123.9
41
-1
0
INSERT
2
PART_BOT_614
8
0
10
19.5
20
128.4
41
-1
0
INSERT
2
PART_BOT_615
8
0
10
28.05
20
60.6
50
-270
41
-1
0
INSERT
2
PART_BOT_616
8
0
10
29.75
20
60.55
50
-270
41
-1
0
INSERT
2
PART_BOT_617
8
0
10
27.35
20
96.9
41
-1
0
INSERT
2
PART_BOT_618
8
0
10
28.7
20
96.9
41
-1
0
INSERT
2
PART_BOT_619
8
0
10
4.8
20
125.25
41
-1
999
*** POWERPCB  PCB PARAMETER ***
0
INSERT
2
PCB_PARAMS
8
0
10
0
20
0
0
ENDSEC
0
EOF
