0
SECTION
2
HEADER
999
*** POWERPCB  HEADER ***
9
$EXTMIN
10
-3.55
20
-4.494436
9
$EXTMAX
10
156.56
20
86.55
9
$FILLMODE
70
0
9
$GRIDMODE
70
1
9
$GRIDUNIT
10
0.05
20
0.05
9
$INSBASE
10
19.68
20
-137.47
9
$LIMCHECK
70
0
9
$PLINEWID
40
0.000254
9
$SNAPMODE
70
1
9
$SNAPUNIT
10
0.05
20
0.05
9
$TEXTSIZE
40
2.54
9
$TEXTSTYLE
7
W0$254
9
$USERI1
70
101
9
$USERI2
70
1
9
$USERI5
70
150
9
$VIEWCTR
10
85.2286406667
20
35.5983593333
0
ENDSEC
0
SECTION
2
TABLES
999
*** POWERPCB  LAYER ***
0
TABLE
2
LAYER
70
39
0
LAYER
2
DBLAYERS
70
1
62
-254
6
CONTINUOUS
0
LAYER
2
BOARD_OUTLINE_00
70
0
62
254
6
CONTINUOUS
0
LAYER
2
2D_LINE_00
70
0
62
1
6
CONTINUOUS
0
LAYER
2
LABEL_INFO
70
1
62
-254
6
CONTINUOUS
0
LAYER
2
LABEL_ATTRIBUTE
70
1
62
-254
6
CONTINUOUS
0
LAYER
2
ATTRIBUTE_129
70
1
62
-250
6
CONTINUOUS
0
LAYER
2
PART_NAME_126
70
0
62
6
6
CONTINUOUS
0
LAYER
2
ATTRIBUTE_04
70
0
62
112
6
CONTINUOUS
0
LAYER
2
PART_NAME_129
70
0
62
130
6
CONTINUOUS
0
LAYER
2
PART_TYPE_BOT
70
1
62
-250
6
CONTINUOUS
0
LAYER
2
PART_INFO
70
1
62
-254
6
CONTINUOUS
0
LAYER
2
PART_PTS
70
1
62
-254
6
CONTINUOUS
0
LAYER
2
PART_NAME_BOT
70
1
62
-250
6
CONTINUOUS
0
LAYER
2
PART_TYPE_129
70
1
62
-250
6
CONTINUOUS
0
LAYER
2
SYM_NAME
70
1
62
-254
6
CONTINUOUS
0
LAYER
2
SYM_ATTRIBUTE_126
70
1
62
-254
6
CONTINUOUS
0
LAYER
2
SYM_PART_NAME_126
70
1
62
-254
6
CONTINUOUS
0
LAYER
2
SYM_TERMINAL
70
1
62
-254
6
CONTINUOUS
0
LAYER
2
PKG_INFO
70
1
62
-254
6
CONTINUOUS
0
LAYER
2
SYM_PART_TYPE_126
70
1
62
-254
6
CONTINUOUS
0
LAYER
2
PART_BOT_2DLINE_126
70
1
62
-250
6
CONTINUOUS
0
LAYER
2
DRIL_PLTE_THRU_01
70
0
62
3
6
CONTINUOUS
0
LAYER
2
DRIL_PLTE_THRU_02
70
0
62
171
6
CONTINUOUS
0
LAYER
2
DRIL_PLTE_THRU_03
70
0
62
222
6
CONTINUOUS
0
LAYER
2
DRIL_PLTE_THRU_04
70
0
62
2
6
CONTINUOUS
0
LAYER
2
PADS_INNER
70
0
62
96
6
CONTINUOUS
0
LAYER
2
PADS_BOT
70
0
62
56
6
CONTINUOUS
0
LAYER
2
PADS_TOP
70
0
62
96
6
CONTINUOUS
0
LAYER
2
DRIL_NPLTE_THRU_01
70
0
62
3
6
CONTINUOUS
0
LAYER
2
DRIL_NPLTE_THRU_02
70
0
62
171
6
CONTINUOUS
0
LAYER
2
DRIL_NPLTE_THRU_03
70
0
62
222
6
CONTINUOUS
0
LAYER
2
DRIL_NPLTE_THRU_04
70
0
62
2
6
CONTINUOUS
0
LAYER
2
PADS_XR_121
70
1
62
-250
6
CONTINUOUS
0
LAYER
2
PART_BOT_COPPER_121
70
1
62
-250
6
CONTINUOUS
0
LAYER
2
PART_BOT_CUTOUT_01
70
1
62
-250
6
CONTINUOUS
0
LAYER
2
PART_TOP_COPPER_121
70
1
62
-250
6
CONTINUOUS
0
LAYER
2
PART_TOP_CUTOUT_01
70
0
62
255
6
CONTINUOUS
0
LAYER
2
PCB_PARAMS
70
1
62
-254
6
CONTINUOUS
0
LAYER
2
DRIL_SYMBOL
70
0
62
254
6
CONTINUOUS
0
ENDTAB
999
*** POWERPCB  TEXT STYLE ***
0
TABLE
2
STYLE
70
6
0
STYLE
2
W0$127
70
64
40
0
41
0.75
42
0
50
0
71
0
3
simplex
0
STYLE
2
W0$05
70
64
40
0
41
0.75
42
0
50
0
71
0
3
simplex
0
STYLE
2
W0$07
70
64
40
0
41
0.75
42
0
50
0
71
0
3
simplex
0
STYLE
2
W0$254
70
64
40
0
41
0.75
42
0
50
0
71
0
3
simplex
0
STYLE
2
W0$127R0
70
64
40
0
41
0.75
42
0
50
0
71
0
3
simplex
0
STYLE
2
W0$127R1
70
64
40
0
41
0.75
42
0
50
0
71
0
3
simplex
0
ENDTAB
0
ENDSEC
0
SECTION
2
BLOCKS
999
*** POWERPCB  DBLAYER ***
0
BLOCK
2
DBLAYERS
8
0
10
0
20
0
3
DBLAYERS
70
64
0
TEXT
8
DBLAYERS
10
0
20
-3.048
40
1.778
1
__It__Is__Job__Name__:=CM3_IO_V133_202302142222.pcb
999
 *  1.Number             2.Type                  3.RouteColor
999
 *  4.ViaColor           5.PadColor              6.CopperColor
999
 *  7.2DLineColor        8.TextColor             9.ErrorColor
999
 * 10.TopComponentColor 11.BottomComponentColor 12.RoutingDirection
999
 * 13.LayerThickness    14.CopperThickness      15.Dielectric
999
 * 16.IsRouteable       17.IsVisible            18.IsSelectable
999
 * 19.IsPrepreg         20.AssSilkScreen        21.AssPasteMask
999
 * 22.AssSolderMask     23.AssAssembly
0
TEXT
8
DBLAYERS
10
0
20
-6.096
40
1.778
1
Bottom:=4 1 6 6 6 6 6 6 14 0 29 1 0 51435 3.2999999523 1 1 1 0 129 122 128 130 0 0 1 7 0 26 12 
0
TEXT
8
DBLAYERS
10
0
20
-9.144
40
1.778
1
Silkscreen Bottom:=129 3 0 0 0 0 28 28 0 0 15 2 0 0 3.2999999523 0 1 1 0 -1 -1 -1 -1 0 0 0 27 0 0 0 
0
ENDBLK
999
*** POWERPCB  BOARD ***
0
BLOCK
2
BOARD_1
8
0
10
0
20
0
3
BOARD_1
70
64
0
POLYLINE
8
BOARD_OUTLINE_00
66
1
40
0.1
41
0.1
70
1
0
VERTEX
8
BOARD_OUTLINE_00
10
0
20
-3.5
42
-0.4142135624
0
VERTEX
8
BOARD_OUTLINE_00
10
3.5
20
0
0
VERTEX
8
BOARD_OUTLINE_00
10
156.51
20
0
42
-0.4142135624
0
VERTEX
8
BOARD_OUTLINE_00
10
160.01
20
-3.5
0
VERTEX
8
BOARD_OUTLINE_00
10
160.01
20
-86.52
42
-0.4142135624
0
VERTEX
8
BOARD_OUTLINE_00
10
156.51
20
-90.02
0
VERTEX
8
BOARD_OUTLINE_00
10
3.5
20
-90.02
42
-0.4142135624
0
VERTEX
8
BOARD_OUTLINE_00
10
0
20
-86.52
0
SEQEND
0
INSERT
2
SMOOTH_0$1
8
BOARD_OUTLINE_00
10
0
20
-3.5
0
INSERT
2
SMOOTH_0$1
8
BOARD_OUTLINE_00
10
3.5
20
0
0
ENDBLK
999
*** POWERPCB  2DLINE ***
0
BLOCK
2
DRAWING_9
8
0
10
0
20
0
3
DRAWING_9
70
64
0
POLYLINE
8
2D_LINE_00
66
1
40
0.1
41
0.1
70
1
0
VERTEX
8
2D_LINE_00
10
0
20
0
0
VERTEX
8
2D_LINE_00
10
1.55
20
0
0
VERTEX
8
2D_LINE_00
10
1.55
20
-1.5
0
VERTEX
8
2D_LINE_00
10
0
20
-1.5
0
SEQEND
0
INSERT
2
SMOOTH_0$1
8
2D_LINE_00
10
0
20
0
0
INSERT
2
SMOOTH_0$1
8
2D_LINE_00
10
1.55
20
0
0
INSERT
2
SMOOTH_0$1
8
2D_LINE_00
10
1.55
20
-1.5
0
INSERT
2
SMOOTH_0$1
8
2D_LINE_00
10
0
20
-1.5
0
ENDBLK
999
*** POWERPCB  COMPONENT ***
0
BLOCK
2
PART_BOT_150
8
0
10
0
20
0
3
PART_BOT_150
70
64
0
INSERT
2
SYM_BOT_12
8
0
10
0
20
0
0
INSERT
2
PKG_7
8
0
10
0
20
0
41
-1
0
TEXT
8
LABEL_INFO
10
-3.6405813333
20
0.8500033333
40
0.889
1
0 324000000 1 1 0 1
72
1
73
1
11
-3.6405813333
21
0.8500033333
50
180
41
0.75
7
W0$127
0
TEXT
8
LABEL_ATTRIBUTE
10
-3.6405813333
20
0.8500033333
40
0.889
1
Comment
72
1
73
1
11
-3.6405813333
21
0.8500033333
50
180
41
0.75
7
W0$127
0
TEXT
8
ATTRIBUTE_129
10
-3.6405813333
20
0.8500033333
40
0.889
1
 
72
1
73
2
11
-3.6405813333
21
0.8500033333
50
180
41
0.75
7
W0$127
0
TEXT
8
LABEL_INFO
10
-3.6405813333
20
0.850004
40
0.35
1
0 324000000 1 1 0 1
72
1
73
1
11
-3.6405813333
21
0.850004
50
180
41
0.75
7
W0$05
0
TEXT
8
LABEL_ATTRIBUTE
10
-3.6405813333
20
0.850004
40
0.35
1
Ref.Des.
72
1
73
1
11
-3.6405813333
21
0.850004
50
180
41
0.75
7
W0$05
0
TEXT
8
PART_NAME_126
10
-3.6405813333
20
0.850004
40
0.35
1
CN14A1
72
1
73
2
11
-3.6405813333
21
0.850004
50
180
41
0.75
7
W0$05
0
TEXT
8
LABEL_INFO
10
0
20
0
40
0.35
1
0 0 1 1 0 1
72
1
73
1
11
0
21
0
41
0.75
7
W0$05
0
TEXT
8
LABEL_ATTRIBUTE
10
0
20
0
40
0.35
1
Value
72
1
73
1
11
0
21
0
41
0.75
7
W0$05
0
TEXT
8
ATTRIBUTE_04
10
0
20
0
40
0.35
1
TF_SD_SOCKET
72
1
73
2
11
0
21
0
41
0.75
7
W0$05
0
TEXT
8
LABEL_INFO
10
-3.6405813333
20
0.8500033333
40
0.49
1
0 324000000 1 1 0 1
72
1
73
1
11
-3.6405813333
21
0.8500033333
50
180
41
0.75
7
W0$07
0
TEXT
8
LABEL_ATTRIBUTE
10
-3.6405813333
20
0.8500033333
40
0.49
1
Ref.Des.
72
1
73
1
11
-3.6405813333
21
0.8500033333
50
180
41
0.75
7
W0$07
0
TEXT
8
PART_NAME_129
10
-3.6405813333
20
0.8500033333
40
0.49
1
CN14A1
72
1
73
2
11
-3.6405813333
21
0.8500033333
50
180
41
0.75
7
W0$07
0
TEXT
8
PART_TYPE_BOT
10
-3.6405813333
20
0.1500033333
40
0.49
1
TF-CKT01-009D
72
1
73
2
11
-3.6405813333
21
0.1500033333
50
180
41
0.75
7
W0$07
0
TEXT
8
PART_INFO
10
-3.6405813333
20
-0.5499966667
40
0.49
1
000010
71
2
72
1
73
2
11
-3.6405813333
21
-0.5499966667
50
180
41
0.75
7
W0$07
0
TEXT
8
PART_PTS
10
-3.6405813333
20
-1.2499966667
40
0.49
1
1 2 3 4 5 6 7 8 9 10 11 12 13 
71
2
72
1
73
2
11
-3.6405813333
21
-1.2499966667
50
180
41
0.75
7
W0$07
0
ENDBLK
0
BLOCK
2
PART_BOT_249
8
0
10
0
20
0
3
PART_BOT_249
70
64
0
INSERT
2
SYM_BOT_42
8
0
10
0
20
0
0
INSERT
2
PKG_36
8
0
10
0
20
0
41
-1
0
TEXT
8
LABEL_INFO
10
0
20
0.0000006667
40
0.889
1
0 0 1 1 0 1
72
1
73
1
11
0
21
0.0000006667
41
0.75
7
W0$127
0
TEXT
8
LABEL_ATTRIBUTE
10
0
20
0.0000006667
40
0.889
1
Comment
72
1
73
1
11
0
21
0.0000006667
41
0.75
7
W0$127
0
TEXT
8
ATTRIBUTE_129
10
0
20
0.0000006667
40
0.889
1
 
72
1
73
2
11
0
21
0.0000006667
41
0.75
7
W0$127
0
TEXT
8
LABEL_INFO
10
0
20
0.0000006667
40
0.35
1
0 0 1 1 0 1
72
1
73
1
11
0
21
0.0000006667
41
0.75
7
W0$05
0
TEXT
8
LABEL_ATTRIBUTE
10
0
20
0.0000006667
40
0.35
1
Ref.Des.
72
1
73
1
11
0
21
0.0000006667
41
0.75
7
W0$05
0
TEXT
8
PART_NAME_126
10
0
20
0.0000006667
40
0.35
1
P1
72
1
73
2
11
0
21
0.0000006667
41
0.75
7
W0$05
0
TEXT
8
LABEL_INFO
10
0
20
0
40
0.35
1
0 0 1 1 0 1
72
1
73
1
11
0
21
0
41
0.75
7
W0$05
0
TEXT
8
LABEL_ATTRIBUTE
10
0
20
0
40
0.35
1
Value
72
1
73
1
11
0
21
0
41
0.75
7
W0$05
0
TEXT
8
ATTRIBUTE_04
10
0
20
0
40
0.35
1
TEST
72
1
73
2
11
0
21
0
41
0.75
7
W0$05
0
TEXT
8
PART_TYPE_BOT
10
0
20
-0.5
40
0.35
1
TP_0R70
72
1
73
2
11
0
21
-0.5
41
0.75
7
W0$05
0
TEXT
8
PART_INFO
10
0
20
-1
40
0.35
1
000000
71
2
72
1
73
2
11
0
21
-1
41
0.75
7
W0$05
0
TEXT
8
PART_PTS
10
0
20
-1.5
40
0.35
1
1 
71
2
72
1
73
2
11
0
21
-1.5
41
0.75
7
W0$05
0
ENDBLK
0
BLOCK
2
PART_BOT_250
8
0
10
0
20
0
3
PART_BOT_250
70
64
0
INSERT
2
SYM_BOT_42
8
0
10
0
20
0
0
INSERT
2
PKG_36
8
0
10
0
20
0
41
-1
0
TEXT
8
LABEL_INFO
10
0
20
0
40
0.889
1
0 0 1 1 0 1
72
1
73
1
11
0
21
0
41
0.75
7
W0$127
0
TEXT
8
LABEL_ATTRIBUTE
10
0
20
0
40
0.889
1
Comment
72
1
73
1
11
0
21
0
41
0.75
7
W0$127
0
TEXT
8
ATTRIBUTE_129
10
0
20
0
40
0.889
1
 
72
1
73
2
11
0
21
0
41
0.75
7
W0$127
0
TEXT
8
LABEL_INFO
10
0
20
0
40
0.35
1
0 0 1 1 0 1
72
1
73
1
11
0
21
0
41
0.75
7
W0$05
0
TEXT
8
LABEL_ATTRIBUTE
10
0
20
0
40
0.35
1
Ref.Des.
72
1
73
1
11
0
21
0
41
0.75
7
W0$05
0
TEXT
8
PART_NAME_126
10
0
20
0
40
0.35
1
P2
72
1
73
2
11
0
21
0
41
0.75
7
W0$05
0
TEXT
8
LABEL_INFO
10
0
20
0
40
0.35
1
0 0 1 1 0 1
72
1
73
1
11
0
21
0
41
0.75
7
W0$05
0
TEXT
8
LABEL_ATTRIBUTE
10
0
20
0
40
0.35
1
Value
72
1
73
1
11
0
21
0
41
0.75
7
W0$05
0
TEXT
8
ATTRIBUTE_04
10
0
20
0
40
0.35
1
TEST
72
1
73
2
11
0
21
0
41
0.75
7
W0$05
0
TEXT
8
PART_TYPE_BOT
10
0
20
-0.5
40
0.35
1
TP_0R70
72
1
73
2
11
0
21
-0.5
41
0.75
7
W0$05
0
TEXT
8
PART_INFO
10
0
20
-1
40
0.35
1
000000
71
2
72
1
73
2
11
0
21
-1
41
0.75
7
W0$05
0
TEXT
8
PART_PTS
10
0
20
-1.5
40
0.35
1
1 
71
2
72
1
73
2
11
0
21
-1.5
41
0.75
7
W0$05
0
ENDBLK
0
BLOCK
2
PART_BOT_251
8
0
10
0
20
0
3
PART_BOT_251
70
64
0
INSERT
2
SYM_BOT_42
8
0
10
0
20
0
0
INSERT
2
PKG_36
8
0
10
0
20
0
41
-1
0
TEXT
8
LABEL_INFO
10
0
20
0
40
0.889
1
0 0 1 1 0 1
72
1
73
1
11
0
21
0
41
0.75
7
W0$127
0
TEXT
8
LABEL_ATTRIBUTE
10
0
20
0
40
0.889
1
Comment
72
1
73
1
11
0
21
0
41
0.75
7
W0$127
0
TEXT
8
ATTRIBUTE_129
10
0
20
0
40
0.889
1
 
72
1
73
2
11
0
21
0
41
0.75
7
W0$127
0
TEXT
8
LABEL_INFO
10
0
20
0
40
0.35
1
0 0 1 1 0 1
72
1
73
1
11
0
21
0
41
0.75
7
W0$05
0
TEXT
8
LABEL_ATTRIBUTE
10
0
20
0
40
0.35
1
Ref.Des.
72
1
73
1
11
0
21
0
41
0.75
7
W0$05
0
TEXT
8
PART_NAME_126
10
0
20
0
40
0.35
1
P3
72
1
73
2
11
0
21
0
41
0.75
7
W0$05
0
TEXT
8
LABEL_INFO
10
0
20
0
40
0.35
1
0 0 1 1 0 1
72
1
73
1
11
0
21
0
41
0.75
7
W0$05
0
TEXT
8
LABEL_ATTRIBUTE
10
0
20
0
40
0.35
1
Value
72
1
73
1
11
0
21
0
41
0.75
7
W0$05
0
TEXT
8
ATTRIBUTE_04
10
0
20
0
40
0.35
1
TEST
72
1
73
2
11
0
21
0
41
0.75
7
W0$05
0
TEXT
8
PART_TYPE_BOT
10
0
20
-0.5
40
0.35
1
TP_0R70
72
1
73
2
11
0
21
-0.5
41
0.75
7
W0$05
0
TEXT
8
PART_INFO
10
0
20
-1
40
0.35
1
000000
71
2
72
1
73
2
11
0
21
-1
41
0.75
7
W0$05
0
TEXT
8
PART_PTS
10
0
20
-1.5
40
0.35
1
1 
71
2
72
1
73
2
11
0
21
-1.5
41
0.75
7
W0$05
0
ENDBLK
0
BLOCK
2
PART_BOT_252
8
0
10
0
20
0
3
PART_BOT_252
70
64
0
INSERT
2
SYM_BOT_42
8
0
10
0
20
0
0
INSERT
2
PKG_36
8
0
10
0
20
0
41
-1
0
TEXT
8
LABEL_INFO
10
0.0000006667
20
0
40
0.889
1
0 0 1 1 0 1
72
1
73
1
11
0.0000006667
21
0
41
0.75
7
W0$127
0
TEXT
8
LABEL_ATTRIBUTE
10
0.0000006667
20
0
40
0.889
1
Comment
72
1
73
1
11
0.0000006667
21
0
41
0.75
7
W0$127
0
TEXT
8
ATTRIBUTE_129
10
0.0000006667
20
0
40
0.889
1
 
72
1
73
2
11
0.0000006667
21
0
41
0.75
7
W0$127
0
TEXT
8
LABEL_INFO
10
0.0000006667
20
0
40
0.35
1
0 0 1 1 0 1
72
1
73
1
11
0.0000006667
21
0
41
0.75
7
W0$05
0
TEXT
8
LABEL_ATTRIBUTE
10
0.0000006667
20
0
40
0.35
1
Ref.Des.
72
1
73
1
11
0.0000006667
21
0
41
0.75
7
W0$05
0
TEXT
8
PART_NAME_126
10
0.0000006667
20
0
40
0.35
1
P4
72
1
73
2
11
0.0000006667
21
0
41
0.75
7
W0$05
0
TEXT
8
LABEL_INFO
10
0
20
0
40
0.35
1
0 0 1 1 0 1
72
1
73
1
11
0
21
0
41
0.75
7
W0$05
0
TEXT
8
LABEL_ATTRIBUTE
10
0
20
0
40
0.35
1
Value
72
1
73
1
11
0
21
0
41
0.75
7
W0$05
0
TEXT
8
ATTRIBUTE_04
10
0
20
0
40
0.35
1
TEST
72
1
73
2
11
0
21
0
41
0.75
7
W0$05
0
TEXT
8
PART_TYPE_BOT
10
0
20
-0.5
40
0.35
1
TP_0R70
72
1
73
2
11
0
21
-0.5
41
0.75
7
W0$05
0
TEXT
8
PART_INFO
10
0
20
-1
40
0.35
1
000000
71
2
72
1
73
2
11
0
21
-1
41
0.75
7
W0$05
0
TEXT
8
PART_PTS
10
0
20
-1.5
40
0.35
1
1 
71
2
72
1
73
2
11
0
21
-1.5
41
0.75
7
W0$05
0
ENDBLK
0
BLOCK
2
PART_BOT_253
8
0
10
0
20
0
3
PART_BOT_253
70
64
0
INSERT
2
SYM_BOT_42
8
0
10
0
20
0
0
INSERT
2
PKG_36
8
0
10
0
20
0
41
-1
0
TEXT
8
LABEL_INFO
10
0
20
0
40
0.889
1
0 0 1 1 0 1
72
1
73
1
11
0
21
0
41
0.75
7
W0$127
0
TEXT
8
LABEL_ATTRIBUTE
10
0
20
0
40
0.889
1
Comment
72
1
73
1
11
0
21
0
41
0.75
7
W0$127
0
TEXT
8
ATTRIBUTE_129
10
0
20
0
40
0.889
1
 
72
1
73
2
11
0
21
0
41
0.75
7
W0$127
0
TEXT
8
LABEL_INFO
10
0
20
0
40
0.35
1
0 0 1 1 0 1
72
1
73
1
11
0
21
0
41
0.75
7
W0$05
0
TEXT
8
LABEL_ATTRIBUTE
10
0
20
0
40
0.35
1
Value
72
1
73
1
11
0
21
0
41
0.75
7
W0$05
0
TEXT
8
ATTRIBUTE_04
10
0
20
0
40
0.35
1
TEST
72
1
73
2
11
0
21
0
41
0.75
7
W0$05
0
TEXT
8
PART_NAME_BOT
10
0
20
0
40
1.778
1
P5
73
2
11
0
21
0
41
0.75
7
W0$254
0
TEXT
8
PART_TYPE_BOT
10
0
20
-2.54
40
1.778
1
TP_0R70
73
2
11
0
21
-2.54
41
0.75
7
W0$254
0
TEXT
8
PART_INFO
10
0
20
-5.08
40
1.778
1
000000
71
2
73
2
11
0
21
-5.08
41
0.75
7
W0$254
0
TEXT
8
PART_PTS
10
0
20
-7.62
40
1.778
1
1 
71
2
73
2
11
0
21
-7.62
41
0.75
7
W0$254
0
ENDBLK
0
BLOCK
2
PART_BOT_254
8
0
10
0
20
0
3
PART_BOT_254
70
64
0
INSERT
2
SYM_BOT_42
8
0
10
0
20
0
0
INSERT
2
PKG_36
8
0
10
0
20
0
41
-1
0
TEXT
8
LABEL_INFO
10
0
20
0
40
0.889
1
0 0 1 1 0 1
72
1
73
1
11
0
21
0
41
0.75
7
W0$127
0
TEXT
8
LABEL_ATTRIBUTE
10
0
20
0
40
0.889
1
Comment
72
1
73
1
11
0
21
0
41
0.75
7
W0$127
0
TEXT
8
ATTRIBUTE_129
10
0
20
0
40
0.889
1
 
72
1
73
2
11
0
21
0
41
0.75
7
W0$127
0
TEXT
8
LABEL_INFO
10
0
20
0
40
0.35
1
0 0 1 1 0 1
72
1
73
1
11
0
21
0
41
0.75
7
W0$05
0
TEXT
8
LABEL_ATTRIBUTE
10
0
20
0
40
0.35
1
Ref.Des.
72
1
73
1
11
0
21
0
41
0.75
7
W0$05
0
TEXT
8
PART_NAME_126
10
0
20
0
40
0.35
1
P6
72
1
73
2
11
0
21
0
41
0.75
7
W0$05
0
TEXT
8
LABEL_INFO
10
0
20
0
40
0.35
1
0 0 1 1 0 1
72
1
73
1
11
0
21
0
41
0.75
7
W0$05
0
TEXT
8
LABEL_ATTRIBUTE
10
0
20
0
40
0.35
1
Value
72
1
73
1
11
0
21
0
41
0.75
7
W0$05
0
TEXT
8
ATTRIBUTE_04
10
0
20
0
40
0.35
1
TEST
72
1
73
2
11
0
21
0
41
0.75
7
W0$05
0
TEXT
8
PART_TYPE_BOT
10
0
20
-0.5
40
0.35
1
TP_0R70
72
1
73
2
11
0
21
-0.5
41
0.75
7
W0$05
0
TEXT
8
PART_INFO
10
0
20
-1
40
0.35
1
000000
71
2
72
1
73
2
11
0
21
-1
41
0.75
7
W0$05
0
TEXT
8
PART_PTS
10
0
20
-1.5
40
0.35
1
1 
71
2
72
1
73
2
11
0
21
-1.5
41
0.75
7
W0$05
0
ENDBLK
0
BLOCK
2
PART_BOT_452
8
0
10
0
20
0
3
PART_BOT_452
70
64
0
INSERT
2
SYM_BOT_42
8
0
10
0
20
0
0
INSERT
2
PKG_36
8
0
10
0
20
0
41
-1
0
TEXT
8
LABEL_INFO
10
0
20
0
40
0.889
1
0 144968400 1 1 0 1
72
1
73
1
11
0
21
0
50
80.538
41
0.75
7
W0$127
0
TEXT
8
LABEL_ATTRIBUTE
10
0
20
0
40
0.889
1
Comment
72
1
73
1
11
0
21
0
50
80.538
41
0.75
7
W0$127
0
TEXT
8
ATTRIBUTE_129
10
0
20
0
40
0.889
1
 
72
1
73
2
11
0
21
0
50
80.538
41
0.75
7
W0$127
0
TEXT
8
LABEL_INFO
10
0
20
0
40
0.35
1
0 144968400 1 1 0 1
72
1
73
1
11
0
21
0
50
80.538
41
0.75
7
W0$05
0
TEXT
8
LABEL_ATTRIBUTE
10
0
20
0
40
0.35
1
Ref.Des.
72
1
73
1
11
0
21
0
50
80.538
41
0.75
7
W0$05
0
TEXT
8
PART_NAME_126
10
0
20
0
40
0.35
1
TP1
72
1
73
2
11
0
21
0
50
80.538
41
0.75
7
W0$05
0
TEXT
8
LABEL_INFO
10
0
20
0
40
0.35
1
0 0 1 1 0 1
72
1
73
1
11
0
21
0
41
0.75
7
W0$05
0
TEXT
8
LABEL_ATTRIBUTE
10
0
20
0
40
0.35
1
Value
72
1
73
1
11
0
21
0
41
0.75
7
W0$05
0
TEXT
8
ATTRIBUTE_04
10
0
20
0
40
0.35
1
TP_0.7
72
1
73
2
11
0
21
0
41
0.75
7
W0$05
0
TEXT
8
PART_TYPE_BOT
10
0
20
-0.5
40
0.35
1
TP_0R70
72
1
73
2
11
0
21
-0.5
41
0.75
7
W0$05
0
TEXT
8
PART_INFO
10
0
20
-1
40
0.35
1
000000
71
2
72
1
73
2
11
0
21
-1
41
0.75
7
W0$05
0
TEXT
8
PART_PTS
10
0
20
-1.5
40
0.35
1
1 
71
2
72
1
73
2
11
0
21
-1.5
41
0.75
7
W0$05
0
ENDBLK
0
BLOCK
2
PART_BOT_453
8
0
10
0
20
0
3
PART_BOT_453
70
64
0
INSERT
2
SYM_BOT_42
8
0
10
0
20
0
0
INSERT
2
PKG_36
8
0
10
0
20
0
41
-1
0
TEXT
8
LABEL_INFO
10
0
20
0
40
0.889
1
0 0 1 1 0 1
72
1
73
1
11
0
21
0
41
0.75
7
W0$127
0
TEXT
8
LABEL_ATTRIBUTE
10
0
20
0
40
0.889
1
Comment
72
1
73
1
11
0
21
0
41
0.75
7
W0$127
0
TEXT
8
ATTRIBUTE_129
10
0
20
0
40
0.889
1
 
72
1
73
2
11
0
21
0
41
0.75
7
W0$127
0
TEXT
8
LABEL_INFO
10
0
20
0
40
0.35
1
0 0 1 1 0 1
72
1
73
1
11
0
21
0
41
0.75
7
W0$05
0
TEXT
8
LABEL_ATTRIBUTE
10
0
20
0
40
0.35
1
Ref.Des.
72
1
73
1
11
0
21
0
41
0.75
7
W0$05
0
TEXT
8
PART_NAME_126
10
0
20
0
40
0.35
1
TP10
72
1
73
2
11
0
21
0
41
0.75
7
W0$05
0
TEXT
8
LABEL_INFO
10
0
20
0
40
0.35
1
0 0 1 1 0 1
72
1
73
1
11
0
21
0
41
0.75
7
W0$05
0
TEXT
8
LABEL_ATTRIBUTE
10
0
20
0
40
0.35
1
Value
72
1
73
1
11
0
21
0
41
0.75
7
W0$05
0
TEXT
8
ATTRIBUTE_04
10
0
20
0
40
0.35
1
TP_0.7
72
1
73
2
11
0
21
0
41
0.75
7
W0$05
0
TEXT
8
PART_TYPE_BOT
10
0
20
-0.5
40
0.35
1
TP_0R70
72
1
73
2
11
0
21
-0.5
41
0.75
7
W0$05
0
TEXT
8
PART_INFO
10
0
20
-1
40
0.35
1
000000
71
2
72
1
73
2
11
0
21
-1
41
0.75
7
W0$05
0
TEXT
8
PART_PTS
10
0
20
-1.5
40
0.35
1
1 
71
2
72
1
73
2
11
0
21
-1.5
41
0.75
7
W0$05
0
ENDBLK
0
BLOCK
2
PART_BOT_454
8
0
10
0
20
0
3
PART_BOT_454
70
64
0
INSERT
2
SYM_BOT_42
8
0
10
0
20
0
0
INSERT
2
PKG_36
8
0
10
0
20
0
41
-1
0
TEXT
8
LABEL_INFO
10
0
20
0
40
0.889
1
0 0 1 1 0 1
72
1
73
1
11
0
21
0
41
0.75
7
W0$127
0
TEXT
8
LABEL_ATTRIBUTE
10
0
20
0
40
0.889
1
Comment
72
1
73
1
11
0
21
0
41
0.75
7
W0$127
0
TEXT
8
ATTRIBUTE_129
10
0
20
0
40
0.889
1
 
72
1
73
2
11
0
21
0
41
0.75
7
W0$127
0
TEXT
8
LABEL_INFO
10
0
20
0
40
0.35
1
0 0 1 1 0 1
72
1
73
1
11
0
21
0
41
0.75
7
W0$05
0
TEXT
8
LABEL_ATTRIBUTE
10
0
20
0
40
0.35
1
Value
72
1
73
1
11
0
21
0
41
0.75
7
W0$05
0
TEXT
8
ATTRIBUTE_04
10
0
20
0
40
0.35
1
TP_0.7
72
1
73
2
11
0
21
0
41
0.75
7
W0$05
0
TEXT
8
PART_NAME_BOT
10
0
20
0
40
1.778
1
TP11
73
2
11
0
21
0
41
0.75
7
W0$254
0
TEXT
8
PART_TYPE_BOT
10
0
20
-2.54
40
1.778
1
TP_0R70
73
2
11
0
21
-2.54
41
0.75
7
W0$254
0
TEXT
8
PART_INFO
10
0
20
-5.08
40
1.778
1
000000
71
2
73
2
11
0
21
-5.08
41
0.75
7
W0$254
0
TEXT
8
PART_PTS
10
0
20
-7.62
40
1.778
1
1 
71
2
73
2
11
0
21
-7.62
41
0.75
7
W0$254
0
ENDBLK
0
BLOCK
2
PART_BOT_455
8
0
10
0
20
0
3
PART_BOT_455
70
64
0
INSERT
2
SYM_BOT_42
8
0
10
0
20
0
0
INSERT
2
PKG_36
8
0
10
0
20
0
41
-1
0
TEXT
8
LABEL_INFO
10
0
20
0
40
0.889
1
0 144968400 1 1 0 1
72
1
73
1
11
0
21
0
50
80.538
41
0.75
7
W0$127
0
TEXT
8
LABEL_ATTRIBUTE
10
0
20
0
40
0.889
1
Comment
72
1
73
1
11
0
21
0
50
80.538
41
0.75
7
W0$127
0
TEXT
8
ATTRIBUTE_129
10
0
20
0
40
0.889
1
 
72
1
73
2
11
0
21
0
50
80.538
41
0.75
7
W0$127
0
TEXT
8
LABEL_INFO
10
0
20
0
40
0.35
1
0 144968400 1 1 0 1
72
1
73
1
11
0
21
0
50
80.538
41
0.75
7
W0$05
0
TEXT
8
LABEL_ATTRIBUTE
10
0
20
0
40
0.35
1
Ref.Des.
72
1
73
1
11
0
21
0
50
80.538
41
0.75
7
W0$05
0
TEXT
8
PART_NAME_126
10
0
20
0
40
0.35
1
TP2
72
1
73
2
11
0
21
0
50
80.538
41
0.75
7
W0$05
0
TEXT
8
LABEL_INFO
10
0
20
0
40
0.35
1
0 0 1 1 0 1
72
1
73
1
11
0
21
0
41
0.75
7
W0$05
0
TEXT
8
LABEL_ATTRIBUTE
10
0
20
0
40
0.35
1
Value
72
1
73
1
11
0
21
0
41
0.75
7
W0$05
0
TEXT
8
ATTRIBUTE_04
10
0
20
0
40
0.35
1
TP_0.7
72
1
73
2
11
0
21
0
41
0.75
7
W0$05
0
TEXT
8
PART_TYPE_BOT
10
0
20
-0.5
40
0.35
1
TP_0R70
72
1
73
2
11
0
21
-0.5
41
0.75
7
W0$05
0
TEXT
8
PART_INFO
10
0
20
-1
40
0.35
1
000000
71
2
72
1
73
2
11
0
21
-1
41
0.75
7
W0$05
0
TEXT
8
PART_PTS
10
0
20
-1.5
40
0.35
1
1 
71
2
72
1
73
2
11
0
21
-1.5
41
0.75
7
W0$05
0
ENDBLK
0
BLOCK
2
PART_BOT_456
8
0
10
0
20
0
3
PART_BOT_456
70
64
0
INSERT
2
SYM_BOT_42
8
0
10
0
20
0
0
INSERT
2
PKG_36
8
0
10
0
20
0
41
-1
0
TEXT
8
LABEL_INFO
10
0
20
0
40
0.889
1
0 144968400 1 1 0 1
72
1
73
1
11
0
21
0
50
80.538
41
0.75
7
W0$127
0
TEXT
8
LABEL_ATTRIBUTE
10
0
20
0
40
0.889
1
Comment
72
1
73
1
11
0
21
0
50
80.538
41
0.75
7
W0$127
0
TEXT
8
ATTRIBUTE_129
10
0
20
0
40
0.889
1
 
72
1
73
2
11
0
21
0
50
80.538
41
0.75
7
W0$127
0
TEXT
8
LABEL_INFO
10
0
20
0
40
0.35
1
0 144968400 1 1 0 1
72
1
73
1
11
0
21
0
50
80.538
41
0.75
7
W0$05
0
TEXT
8
LABEL_ATTRIBUTE
10
0
20
0
40
0.35
1
Ref.Des.
72
1
73
1
11
0
21
0
50
80.538
41
0.75
7
W0$05
0
TEXT
8
PART_NAME_126
10
0
20
0
40
0.35
1
TP3
72
1
73
2
11
0
21
0
50
80.538
41
0.75
7
W0$05
0
TEXT
8
LABEL_INFO
10
0
20
0
40
0.35
1
0 0 1 1 0 1
72
1
73
1
11
0
21
0
41
0.75
7
W0$05
0
TEXT
8
LABEL_ATTRIBUTE
10
0
20
0
40
0.35
1
Value
72
1
73
1
11
0
21
0
41
0.75
7
W0$05
0
TEXT
8
ATTRIBUTE_04
10
0
20
0
40
0.35
1
TP_0.7
72
1
73
2
11
0
21
0
41
0.75
7
W0$05
0
TEXT
8
PART_TYPE_BOT
10
0
20
-0.5
40
0.35
1
TP_0R70
72
1
73
2
11
0
21
-0.5
41
0.75
7
W0$05
0
TEXT
8
PART_INFO
10
0
20
-1
40
0.35
1
000000
71
2
72
1
73
2
11
0
21
-1
41
0.75
7
W0$05
0
TEXT
8
PART_PTS
10
0
20
-1.5
40
0.35
1
1 
71
2
72
1
73
2
11
0
21
-1.5
41
0.75
7
W0$05
0
ENDBLK
0
BLOCK
2
PART_BOT_457
8
0
10
0
20
0
3
PART_BOT_457
70
64
0
INSERT
2
SYM_BOT_42
8
0
10
0
20
0
0
INSERT
2
PKG_36
8
0
10
0
20
0
41
-1
0
TEXT
8
LABEL_INFO
10
0
20
0
40
0.889
1
0 144968400 1 1 0 1
72
1
73
1
11
0
21
0
50
80.538
41
0.75
7
W0$127
0
TEXT
8
LABEL_ATTRIBUTE
10
0
20
0
40
0.889
1
Comment
72
1
73
1
11
0
21
0
50
80.538
41
0.75
7
W0$127
0
TEXT
8
ATTRIBUTE_129
10
0
20
0
40
0.889
1
 
72
1
73
2
11
0
21
0
50
80.538
41
0.75
7
W0$127
0
TEXT
8
LABEL_INFO
10
0
20
0
40
0.35
1
0 144968400 1 1 0 1
72
1
73
1
11
0
21
0
50
80.538
41
0.75
7
W0$05
0
TEXT
8
LABEL_ATTRIBUTE
10
0
20
0
40
0.35
1
Ref.Des.
72
1
73
1
11
0
21
0
50
80.538
41
0.75
7
W0$05
0
TEXT
8
PART_NAME_126
10
0
20
0
40
0.35
1
TP4
72
1
73
2
11
0
21
0
50
80.538
41
0.75
7
W0$05
0
TEXT
8
LABEL_INFO
10
0
20
0
40
0.35
1
0 0 1 1 0 1
72
1
73
1
11
0
21
0
41
0.75
7
W0$05
0
TEXT
8
LABEL_ATTRIBUTE
10
0
20
0
40
0.35
1
Value
72
1
73
1
11
0
21
0
41
0.75
7
W0$05
0
TEXT
8
ATTRIBUTE_04
10
0
20
0
40
0.35
1
TP_0.7
72
1
73
2
11
0
21
0
41
0.75
7
W0$05
0
TEXT
8
PART_TYPE_BOT
10
0
20
-0.5
40
0.35
1
TP_0R70
72
1
73
2
11
0
21
-0.5
41
0.75
7
W0$05
0
TEXT
8
PART_INFO
10
0
20
-1
40
0.35
1
000000
71
2
72
1
73
2
11
0
21
-1
41
0.75
7
W0$05
0
TEXT
8
PART_PTS
10
0
20
-1.5
40
0.35
1
1 
71
2
72
1
73
2
11
0
21
-1.5
41
0.75
7
W0$05
0
ENDBLK
0
BLOCK
2
PART_BOT_458
8
0
10
0
20
0
3
PART_BOT_458
70
64
0
INSERT
2
SYM_BOT_42
8
0
10
0
20
0
0
INSERT
2
PKG_36
8
0
10
0
20
0
41
-1
0
TEXT
8
LABEL_INFO
10
0
20
0
40
0.889
1
0 144968400 1 1 0 1
72
1
73
1
11
0
21
0
50
80.538
41
0.75
7
W0$127
0
TEXT
8
LABEL_ATTRIBUTE
10
0
20
0
40
0.889
1
Comment
72
1
73
1
11
0
21
0
50
80.538
41
0.75
7
W0$127
0
TEXT
8
ATTRIBUTE_129
10
0
20
0
40
0.889
1
 
72
1
73
2
11
0
21
0
50
80.538
41
0.75
7
W0$127
0
TEXT
8
LABEL_INFO
10
0
20
0
40
0.35
1
0 144968400 1 1 0 1
72
1
73
1
11
0
21
0
50
80.538
41
0.75
7
W0$05
0
TEXT
8
LABEL_ATTRIBUTE
10
0
20
0
40
0.35
1
Ref.Des.
72
1
73
1
11
0
21
0
50
80.538
41
0.75
7
W0$05
0
TEXT
8
PART_NAME_126
10
0
20
0
40
0.35
1
TP5
72
1
73
2
11
0
21
0
50
80.538
41
0.75
7
W0$05
0
TEXT
8
LABEL_INFO
10
0
20
0
40
0.35
1
0 0 1 1 0 1
72
1
73
1
11
0
21
0
41
0.75
7
W0$05
0
TEXT
8
LABEL_ATTRIBUTE
10
0
20
0
40
0.35
1
Value
72
1
73
1
11
0
21
0
41
0.75
7
W0$05
0
TEXT
8
ATTRIBUTE_04
10
0
20
0
40
0.35
1
TP_0.7
72
1
73
2
11
0
21
0
41
0.75
7
W0$05
0
TEXT
8
PART_TYPE_BOT
10
0
20
-0.5
40
0.35
1
TP_0R70
72
1
73
2
11
0
21
-0.5
41
0.75
7
W0$05
0
TEXT
8
PART_INFO
10
0
20
-1
40
0.35
1
000000
71
2
72
1
73
2
11
0
21
-1
41
0.75
7
W0$05
0
TEXT
8
PART_PTS
10
0
20
-1.5
40
0.35
1
1 
71
2
72
1
73
2
11
0
21
-1.5
41
0.75
7
W0$05
0
ENDBLK
0
BLOCK
2
PART_BOT_459
8
0
10
0
20
0
3
PART_BOT_459
70
64
0
INSERT
2
SYM_BOT_42
8
0
10
0
20
0
0
INSERT
2
PKG_36
8
0
10
0
20
0
41
-1
0
TEXT
8
LABEL_INFO
10
0
20
0
40
0.889
1
0 0 1 1 0 1
72
1
73
1
11
0
21
0
41
0.75
7
W0$127
0
TEXT
8
LABEL_ATTRIBUTE
10
0
20
0
40
0.889
1
Comment
72
1
73
1
11
0
21
0
41
0.75
7
W0$127
0
TEXT
8
ATTRIBUTE_129
10
0
20
0
40
0.889
1
 
72
1
73
2
11
0
21
0
41
0.75
7
W0$127
0
TEXT
8
LABEL_INFO
10
0
20
0
40
0.35
1
0 0 1 1 0 1
72
1
73
1
11
0
21
0
41
0.75
7
W0$05
0
TEXT
8
LABEL_ATTRIBUTE
10
0
20
0
40
0.35
1
Ref.Des.
72
1
73
1
11
0
21
0
41
0.75
7
W0$05
0
TEXT
8
PART_NAME_126
10
0
20
0
40
0.35
1
TP6
72
1
73
2
11
0
21
0
41
0.75
7
W0$05
0
TEXT
8
LABEL_INFO
10
0
20
0
40
0.35
1
0 0 1 1 0 1
72
1
73
1
11
0
21
0
41
0.75
7
W0$05
0
TEXT
8
LABEL_ATTRIBUTE
10
0
20
0
40
0.35
1
Value
72
1
73
1
11
0
21
0
41
0.75
7
W0$05
0
TEXT
8
ATTRIBUTE_04
10
0
20
0
40
0.35
1
TP_0.7
72
1
73
2
11
0
21
0
41
0.75
7
W0$05
0
TEXT
8
PART_TYPE_BOT
10
0
20
-0.5
40
0.35
1
TP_0R70
72
1
73
2
11
0
21
-0.5
41
0.75
7
W0$05
0
TEXT
8
PART_INFO
10
0
20
-1
40
0.35
1
000000
71
2
72
1
73
2
11
0
21
-1
41
0.75
7
W0$05
0
TEXT
8
PART_PTS
10
0
20
-1.5
40
0.35
1
1 
71
2
72
1
73
2
11
0
21
-1.5
41
0.75
7
W0$05
0
ENDBLK
0
BLOCK
2
PART_BOT_460
8
0
10
0
20
0
3
PART_BOT_460
70
64
0
INSERT
2
SYM_BOT_42
8
0
10
0
20
0
0
INSERT
2
PKG_36
8
0
10
0
20
0
41
-1
0
TEXT
8
LABEL_INFO
10
0
20
0
40
0.889
1
0 324000000 1 1 0 1
72
1
73
1
11
0
21
0
50
180
41
0.75
7
W0$127
0
TEXT
8
LABEL_ATTRIBUTE
10
0
20
0
40
0.889
1
Comment
72
1
73
1
11
0
21
0
50
180
41
0.75
7
W0$127
0
TEXT
8
ATTRIBUTE_129
10
0
20
0
40
0.889
1
 
72
1
73
2
11
0
21
0
50
180
41
0.75
7
W0$127
0
TEXT
8
LABEL_INFO
10
0
20
0
40
0.35
1
0 0 1 1 0 1
72
1
73
1
11
0
21
0
41
0.75
7
W0$05
0
TEXT
8
LABEL_ATTRIBUTE
10
0
20
0
40
0.35
1
Value
72
1
73
1
11
0
21
0
41
0.75
7
W0$05
0
TEXT
8
ATTRIBUTE_04
10
0
20
0
40
0.35
1
TP_0.7
72
1
73
2
11
0
21
0
41
0.75
7
W0$05
0
TEXT
8
PART_NAME_BOT
10
0
20
0
40
1.778
1
TP7
73
2
11
0
21
0
41
0.75
7
W0$254
0
TEXT
8
PART_TYPE_BOT
10
0
20
-2.54
40
1.778
1
TP_0R70
73
2
11
0
21
-2.54
41
0.75
7
W0$254
0
TEXT
8
PART_INFO
10
0
20
-5.08
40
1.778
1
000000
71
2
73
2
11
0
21
-5.08
41
0.75
7
W0$254
0
TEXT
8
PART_PTS
10
0
20
-7.62
40
1.778
1
1 
71
2
73
2
11
0
21
-7.62
41
0.75
7
W0$254
0
ENDBLK
0
BLOCK
2
PART_BOT_461
8
0
10
0
20
0
3
PART_BOT_461
70
64
0
INSERT
2
SYM_BOT_42
8
0
10
0
20
0
0
INSERT
2
PKG_36
8
0
10
0
20
0
41
-1
0
TEXT
8
LABEL_INFO
10
0
20
0
40
0.889
1
0 324000000 1 1 0 1
72
1
73
1
11
0
21
0
50
180
41
0.75
7
W0$127
0
TEXT
8
LABEL_ATTRIBUTE
10
0
20
0
40
0.889
1
Comment
72
1
73
1
11
0
21
0
50
180
41
0.75
7
W0$127
0
TEXT
8
ATTRIBUTE_129
10
0
20
0
40
0.889
1
 
72
1
73
2
11
0
21
0
50
180
41
0.75
7
W0$127
0
TEXT
8
LABEL_INFO
10
0
20
0
40
0.35
1
0 0 1 1 0 1
72
1
73
1
11
0
21
0
41
0.75
7
W0$05
0
TEXT
8
LABEL_ATTRIBUTE
10
0
20
0
40
0.35
1
Value
72
1
73
1
11
0
21
0
41
0.75
7
W0$05
0
TEXT
8
ATTRIBUTE_04
10
0
20
0
40
0.35
1
TP_0.7
72
1
73
2
11
0
21
0
41
0.75
7
W0$05
0
TEXT
8
PART_NAME_BOT
10
0
20
0
40
1.778
1
TP8
73
2
11
0
21
0
41
0.75
7
W0$254
0
TEXT
8
PART_TYPE_BOT
10
0
20
-2.54
40
1.778
1
TP_0R70
73
2
11
0
21
-2.54
41
0.75
7
W0$254
0
TEXT
8
PART_INFO
10
0
20
-5.08
40
1.778
1
000000
71
2
73
2
11
0
21
-5.08
41
0.75
7
W0$254
0
TEXT
8
PART_PTS
10
0
20
-7.62
40
1.778
1
1 
71
2
73
2
11
0
21
-7.62
41
0.75
7
W0$254
0
ENDBLK
0
BLOCK
2
PART_BOT_462
8
0
10
0
20
0
3
PART_BOT_462
70
64
0
INSERT
2
SYM_BOT_42
8
0
10
0
20
0
0
INSERT
2
PKG_36
8
0
10
0
20
0
41
-1
0
TEXT
8
LABEL_INFO
10
0
20
0
40
0.889
1
0 0 1 1 0 1
72
1
73
1
11
0
21
0
41
0.75
7
W0$127
0
TEXT
8
LABEL_ATTRIBUTE
10
0
20
0
40
0.889
1
Comment
72
1
73
1
11
0
21
0
41
0.75
7
W0$127
0
TEXT
8
ATTRIBUTE_129
10
0
20
0
40
0.889
1
 
72
1
73
2
11
0
21
0
41
0.75
7
W0$127
0
TEXT
8
LABEL_INFO
10
0
20
0
40
0.35
1
0 0 1 1 0 1
72
1
73
1
11
0
21
0
41
0.75
7
W0$05
0
TEXT
8
LABEL_ATTRIBUTE
10
0
20
0
40
0.35
1
Value
72
1
73
1
11
0
21
0
41
0.75
7
W0$05
0
TEXT
8
ATTRIBUTE_04
10
0
20
0
40
0.35
1
TP_0.7
72
1
73
2
11
0
21
0
41
0.75
7
W0$05
0
TEXT
8
PART_NAME_BOT
10
0
20
0
40
1.778
1
TP9
73
2
11
0
21
0
41
0.75
7
W0$254
0
TEXT
8
PART_TYPE_BOT
10
0
20
-2.54
40
1.778
1
TP_0R70
73
2
11
0
21
-2.54
41
0.75
7
W0$254
0
TEXT
8
PART_INFO
10
0
20
-5.08
40
1.778
1
000000
71
2
73
2
11
0
21
-5.08
41
0.75
7
W0$254
0
TEXT
8
PART_PTS
10
0
20
-7.62
40
1.778
1
1 
71
2
73
2
11
0
21
-7.62
41
0.75
7
W0$254
0
ENDBLK
0
BLOCK
2
PART_BOT_521
8
0
10
0
20
0
3
PART_BOT_521
70
64
0
INSERT
2
SYM_BOT_68
8
0
10
0
20
0
0
INSERT
2
PKG_61
8
0
10
0
20
0
41
-1
0
TEXT
8
LABEL_INFO
10
0
20
0
40
0.7
1
1 0 1 1 0 1
72
1
73
1
11
0
21
0
41
0.75
7
W0$127
0
TEXT
8
LABEL_ATTRIBUTE
10
0
20
0
40
0.7
1
PartType
72
1
73
1
11
0
21
0
41
0.75
7
W0$127
0
TEXT
8
PART_TYPE_129
10
0
20
0
40
0.7
1
TP_1R00
72
1
73
2
11
0
21
0
41
0.75
7
W0$127
0
TEXT
8
LABEL_INFO
10
0
20
0
40
0.35
1
0 0 1 1 0 1
72
1
73
1
11
0
21
0
41
0.75
7
W0$05
0
TEXT
8
LABEL_ATTRIBUTE
10
0
20
0
40
0.35
1
Value
72
1
73
1
11
0
21
0
41
0.75
7
W0$05
0
TEXT
8
ATTRIBUTE_04
10
0
20
0
40
0.35
1
TP_1.0
72
1
73
2
11
0
21
0
41
0.75
7
W0$05
0
TEXT
8
PART_NAME_BOT
10
0
20
0
40
1.778
1
TP14
73
2
11
0
21
0
41
0.75
7
W0$254
0
TEXT
8
PART_INFO
10
0
20
-2.54
40
1.778
1
000000
71
2
73
2
11
0
21
-2.54
41
0.75
7
W0$254
0
TEXT
8
PART_PTS
10
0
20
-5.08
40
1.778
1
1 
71
2
73
2
11
0
21
-5.08
41
0.75
7
W0$254
0
ENDBLK
0
BLOCK
2
PART_BOT_522
8
0
10
0
20
0
3
PART_BOT_522
70
64
0
INSERT
2
SYM_BOT_68
8
0
10
0
20
0
0
INSERT
2
PKG_61
8
0
10
0
20
0
41
-1
0
TEXT
8
LABEL_INFO
10
0
20
0
40
0.7
1
1 0 1 1 0 1
72
1
73
1
11
0
21
0
41
0.75
7
W0$127
0
TEXT
8
LABEL_ATTRIBUTE
10
0
20
0
40
0.7
1
PartType
72
1
73
1
11
0
21
0
41
0.75
7
W0$127
0
TEXT
8
PART_TYPE_129
10
0
20
0
40
0.7
1
TP_1R00
72
1
73
2
11
0
21
0
41
0.75
7
W0$127
0
TEXT
8
LABEL_INFO
10
0
20
0
40
0.35
1
0 0 1 1 0 1
72
1
73
1
11
0
21
0
41
0.75
7
W0$05
0
TEXT
8
LABEL_ATTRIBUTE
10
0
20
0
40
0.35
1
Value
72
1
73
1
11
0
21
0
41
0.75
7
W0$05
0
TEXT
8
ATTRIBUTE_04
10
0
20
0
40
0.35
1
TP_1.0
72
1
73
2
11
0
21
0
41
0.75
7
W0$05
0
TEXT
8
PART_NAME_BOT
10
0
20
0
40
1.778
1
TP15
73
2
11
0
21
0
41
0.75
7
W0$254
0
TEXT
8
PART_INFO
10
0
20
-2.54
40
1.778
1
000000
71
2
73
2
11
0
21
-2.54
41
0.75
7
W0$254
0
TEXT
8
PART_PTS
10
0
20
-5.08
40
1.778
1
1 
71
2
73
2
11
0
21
-5.08
41
0.75
7
W0$254
0
ENDBLK
0
BLOCK
2
PART_BOT_523
8
0
10
0
20
0
3
PART_BOT_523
70
64
0
INSERT
2
SYM_BOT_68
8
0
10
0
20
0
0
INSERT
2
PKG_61
8
0
10
0
20
0
41
-1
0
TEXT
8
LABEL_INFO
10
0
20
0
40
0.7
1
1 0 1 1 0 1
72
1
73
1
11
0
21
0
41
0.75
7
W0$127
0
TEXT
8
LABEL_ATTRIBUTE
10
0
20
0
40
0.7
1
PartType
72
1
73
1
11
0
21
0
41
0.75
7
W0$127
0
TEXT
8
PART_TYPE_129
10
0
20
0
40
0.7
1
TP_1R00
72
1
73
2
11
0
21
0
41
0.75
7
W0$127
0
TEXT
8
LABEL_INFO
10
0
20
0
40
0.35
1
0 0 1 1 0 1
72
1
73
1
11
0
21
0
41
0.75
7
W0$05
0
TEXT
8
LABEL_ATTRIBUTE
10
0
20
0
40
0.35
1
Value
72
1
73
1
11
0
21
0
41
0.75
7
W0$05
0
TEXT
8
ATTRIBUTE_04
10
0
20
0
40
0.35
1
TP_1.0
72
1
73
2
11
0
21
0
41
0.75
7
W0$05
0
TEXT
8
PART_NAME_BOT
10
0
20
0
40
1.778
1
TP16
73
2
11
0
21
0
41
0.75
7
W0$254
0
TEXT
8
PART_INFO
10
0
20
-2.54
40
1.778
1
000000
71
2
73
2
11
0
21
-2.54
41
0.75
7
W0$254
0
TEXT
8
PART_PTS
10
0
20
-5.08
40
1.778
1
1 
71
2
73
2
11
0
21
-5.08
41
0.75
7
W0$254
0
ENDBLK
0
BLOCK
2
PART_BOT_539
8
0
10
0
20
0
3
PART_BOT_539
70
64
0
INSERT
2
SYM_BOT_73
8
0
10
0
20
0
0
INSERT
2
PKG_66
8
0
10
0
20
0
41
-1
0
TEXT
8
LABEL_INFO
10
0
20
0
40
0.35
1
0 0 1 1 0 1
72
1
73
1
11
0
21
0
41
0.75
7
W0$05
0
TEXT
8
LABEL_ATTRIBUTE
10
0
20
0
40
0.35
1
Value
72
1
73
1
11
0
21
0
41
0.75
7
W0$05
0
TEXT
8
ATTRIBUTE_04
10
0
20
0
40
0.35
1
MARK
72
1
73
2
11
0
21
0
41
0.75
7
W0$05
0
TEXT
8
LABEL_INFO
10
0
20
0
40
0.35
1
0 0 1 1 0 1
72
1
73
1
11
0
21
0
41
0.75
7
W0$05
0
TEXT
8
LABEL_ATTRIBUTE
10
0
20
0
40
0.35
1
Ref.Des.
72
1
73
1
11
0
21
0
41
0.75
7
W0$05
0
TEXT
8
PART_NAME_126
10
0
20
0
40
0.35
1
M1
72
1
73
2
11
0
21
0
41
0.75
7
W0$05
0
TEXT
8
PART_TYPE_BOT
10
0
20
-0.5
40
0.35
1
MARK
72
1
73
2
11
0
21
-0.5
41
0.75
7
W0$05
0
TEXT
8
PART_INFO
10
0
20
-1
40
0.35
1
000001
71
2
72
1
73
2
11
0
21
-1
41
0.75
7
W0$05
0
ENDBLK
0
BLOCK
2
PART_BOT_540
8
0
10
0
20
0
3
PART_BOT_540
70
64
0
INSERT
2
SYM_BOT_73
8
0
10
0
20
0
0
INSERT
2
PKG_66
8
0
10
0
20
0
41
-1
0
TEXT
8
LABEL_INFO
10
0
20
0
40
0.35
1
0 0 1 1 0 1
72
1
73
1
11
0
21
0
41
0.75
7
W0$05
0
TEXT
8
LABEL_ATTRIBUTE
10
0
20
0
40
0.35
1
Value
72
1
73
1
11
0
21
0
41
0.75
7
W0$05
0
TEXT
8
ATTRIBUTE_04
10
0
20
0
40
0.35
1
MARK
72
1
73
2
11
0
21
0
41
0.75
7
W0$05
0
TEXT
8
LABEL_INFO
10
0
20
0
40
0.35
1
0 0 1 1 0 1
72
1
73
1
11
0
21
0
41
0.75
7
W0$05
0
TEXT
8
LABEL_ATTRIBUTE
10
0
20
0
40
0.35
1
Ref.Des.
72
1
73
1
11
0
21
0
41
0.75
7
W0$05
0
TEXT
8
PART_NAME_126
10
0
20
0
40
0.35
1
M2
72
1
73
2
11
0
21
0
41
0.75
7
W0$05
0
TEXT
8
PART_TYPE_BOT
10
0
20
-0.5
40
0.35
1
MARK
72
1
73
2
11
0
21
-0.5
41
0.75
7
W0$05
0
TEXT
8
PART_INFO
10
0
20
-1
40
0.35
1
000001
71
2
72
1
73
2
11
0
21
-1
41
0.75
7
W0$05
0
ENDBLK
0
BLOCK
2
SYM_BOT_12
8
0
10
0
20
0
3
SYM_BOT_12
70
64
0
TEXT
8
SYM_NAME
10
0
20
0
40
1.778
1
TF-CKT01-009D
41
0.75
0
TEXT
8
SYM_ATTRIBUTE_126
10
-11.3155986667
20
9.6031973333
40
0.889
1
Comment
41
0.75
7
W0$127R0
0
TEXT
8
SYM_PART_NAME_126
10
-11.3155986667
20
10.8731973333
40
0.889
1
 
41
0.75
7
W0$127R0
0
INSERT
2
PART_BODY_BOT_261
8
0
10
0
20
0
0
INSERT
2
STK_BOT_14
8
0
10
-10.5156
20
3.20001
0
TEXT
8
SYM_TERMINAL
10
0
20
-3.048
40
1.778
1
1
0
INSERT
2
STK_BOT_14
8
0
10
-10.5156
20
2.1000126667
0
TEXT
8
SYM_TERMINAL
10
0
20
-6.096
40
1.778
1
2
0
INSERT
2
STK_BOT_14
8
0
10
-10.5156
20
1.0000146667
0
TEXT
8
SYM_TERMINAL
10
0
20
-9.144
40
1.778
1
3
0
INSERT
2
STK_BOT_14
8
0
10
-10.5156
20
-0.1000086667
0
TEXT
8
SYM_TERMINAL
10
0
20
-12.192
40
1.778
1
4
0
INSERT
2
STK_BOT_14
8
0
10
-10.5156
20
-1.1999806667
0
TEXT
8
SYM_TERMINAL
10
0
20
-15.24
40
1.778
1
5
0
INSERT
2
STK_BOT_14
8
0
10
-10.5156
20
-2.300004
0
TEXT
8
SYM_TERMINAL
10
0
20
-18.288
40
1.778
1
6
0
INSERT
2
STK_BOT_14
8
0
10
-10.5156
20
-3.400002
0
TEXT
8
SYM_TERMINAL
10
0
20
-21.336
40
1.778
1
7
0
INSERT
2
STK_BOT_14
8
0
10
-10.5156
20
-4.5
0
TEXT
8
SYM_TERMINAL
10
0
20
-24.384
40
1.778
1
8
0
INSERT
2
STK_BOT_14
8
0
10
-10.5156
20
-5.5999973333
0
TEXT
8
SYM_TERMINAL
10
0
20
-27.432
40
1.778
1
9
0
INSERT
2
STK_BOT_15
8
0
10
-10.0156
20
-6.99999
0
TEXT
8
SYM_TERMINAL
10
0
20
-30.48
40
1.778
1
10
0
INSERT
2
STK_BOT_16
8
0
10
-0.4155953333
20
-6.7999953333
0
TEXT
8
SYM_TERMINAL
10
0
20
-33.528
40
1.778
1
11
0
INSERT
2
STK_BOT_16
8
0
10
-0.4155953333
20
8.6999986667
0
TEXT
8
SYM_TERMINAL
10
0
20
-36.576
40
1.778
1
12
0
INSERT
2
STK_BOT_15
8
0
10
-10.0156013333
20
8.6999986667
0
TEXT
8
SYM_TERMINAL
10
0
20
-39.624
40
1.778
1
13
0
INSERT
2
STK_BOT_17
8
0
10
0
20
4
0
TEXT
8
SYM_TERMINAL
10
0
20
-42.672
40
1.778
1
14
0
INSERT
2
STK_BOT_17
8
0
10
0
20
-4
0
TEXT
8
SYM_TERMINAL
10
0
20
-45.72
40
1.778
1
15
0
ENDBLK
0
BLOCK
2
PKG_7
8
0
10
0
20
0
3
PKG_7
70
64
0
TEXT
8
PKG_INFO
10
0
20
0
40
1.778
1
*SYM:= 12
0
TEXT
8
PKG_INFO
10
0
20
-3.048
40
1.778
1
*PKG:= 0 TF-CKT01-009D UND
0
ENDBLK
0
BLOCK
2
SYM_BOT_42
8
0
10
0
20
0
3
SYM_BOT_42
70
64
0
TEXT
8
SYM_NAME
10
0
20
0
40
1.778
1
TP_0R70
41
0.75
0
TEXT
8
SYM_PART_NAME_126
10
-2.338
20
2.369
40
0.889
1
 
41
0.75
7
W0$127R0
0
TEXT
8
SYM_ATTRIBUTE_126
10
-2.338
20
1.099
40
0.889
1
Comment
41
0.75
7
W0$127R0
0
INSERT
2
PART_BODY_BOT_291
8
0
10
0
20
0
0
INSERT
2
STK_BOT_62
8
0
10
0
20
0
0
TEXT
8
SYM_TERMINAL
10
0
20
-3.048
40
1.778
1
1
0
ENDBLK
0
BLOCK
2
PKG_36
8
0
10
0
20
0
3
PKG_36
70
64
0
TEXT
8
PKG_INFO
10
0
20
0
40
1.778
1
*SYM:= 42
0
TEXT
8
PKG_INFO
10
0
20
-3.048
40
1.778
1
*PKG:= 0 TP_0R70 UND
0
ENDBLK
0
BLOCK
2
SYM_BOT_68
8
0
10
0
20
0
3
SYM_BOT_68
70
64
0
TEXT
8
SYM_NAME
10
0
20
0
40
1.778
1
TP_1R00
41
0.75
0
TEXT
8
SYM_PART_NAME_126
10
0.127
20
0.1093746667
40
0.7
1
 
72
1
73
1
11
0.127
21
0.1093746667
41
0.75
7
W0$127R1
0
TEXT
8
SYM_PART_TYPE_126
10
0.127
20
0.1093746667
40
0.7
1
 
72
1
73
1
11
0.127
21
0.1093746667
41
0.75
7
W0$127R1
0
INSERT
2
PART_BODY_BOT_317
8
0
10
0
20
0
0
INSERT
2
STK_BOT_98
8
0
10
0
20
0
0
TEXT
8
SYM_TERMINAL
10
0
20
-3.048
40
1.778
1
1
0
ENDBLK
0
BLOCK
2
PKG_61
8
0
10
0
20
0
3
PKG_61
70
64
0
TEXT
8
PKG_INFO
10
0
20
0
40
1.778
1
*SYM:= 68
0
TEXT
8
PKG_INFO
10
0
20
-3.048
40
1.778
1
*PKG:= 0 TP_1R00 UND
0
ENDBLK
0
BLOCK
2
SYM_BOT_73
8
0
10
0
20
0
3
SYM_BOT_73
70
64
0
TEXT
8
SYM_NAME
10
0
20
0
40
1.778
1
MARK
41
0.75
0
INSERT
2
PART_BODY_BOT_322
8
0
10
0
20
0
0
INSERT
2
STK_BOT_107
8
0
10
0
20
0
0
TEXT
8
SYM_TERMINAL
10
0
20
-3.048
40
1.778
1
1
0
ENDBLK
0
BLOCK
2
PKG_66
8
0
10
0
20
0
3
PKG_66
70
64
0
TEXT
8
PKG_INFO
10
0
20
0
40
1.778
1
*SYM:= 74 73
0
TEXT
8
PKG_INFO
10
0
20
-3.048
40
1.778
1
*PKG:= 0 MARK UND
0
TEXT
8
PKG_INFO
10
0
20
-6.096
40
1.778
1
*GATE:=0
0
TEXT
8
PKG_INFO
10
0
20
-9.144
40
1.778
1
*GATEPIN:= 0 9 1 <>
0
ENDBLK
0
BLOCK
2
PART_BODY_BOT_261
8
0
10
0
20
0
3
PART_BODY_BOT_261
70
64
0
POLYLINE
8
PART_BOT_2DLINE_126
66
1
40
0.10008
41
0.10008
39
-1.85
70
1
0
VERTEX
8
PART_BOT_2DLINE_126
10
3.984396
20
-6.3999933333
0
VERTEX
8
PART_BOT_2DLINE_126
10
3.984396
20
8.2999993333
0
VERTEX
8
PART_BOT_2DLINE_126
10
-10.5156
20
8.2999993333
0
VERTEX
8
PART_BOT_2DLINE_126
10
-10.5156
20
-6.3999933333
0
SEQEND
0
INSERT
2
SMOOTH_0$10008
8
PART_BOT_2DLINE_126
10
3.984396
20
-6.3999933333
0
INSERT
2
SMOOTH_0$10008
8
PART_BOT_2DLINE_126
10
3.984396
20
8.2999993333
0
INSERT
2
SMOOTH_0$10008
8
PART_BOT_2DLINE_126
10
-10.5156
20
8.2999993333
0
INSERT
2
SMOOTH_0$10008
8
PART_BOT_2DLINE_126
10
-10.5156
20
-6.3999933333
0
ENDBLK
0
BLOCK
2
STK_BOT_14
8
0
10
0
20
0
3
STK_BOT_14
70
64
0
INSERT
2
DRIL_HOLE_0
8
DRIL_PLTE_THRU_01
10
0
20
0
0
INSERT
2
DRIL_HOLE_0
8
DRIL_PLTE_THRU_02
10
0
20
0
0
INSERT
2
DRIL_HOLE_0
8
DRIL_PLTE_THRU_03
10
0
20
0
0
INSERT
2
DRIL_HOLE_0
8
DRIL_PLTE_THRU_04
10
0
20
0
0
INSERT
2
PAD_0
8
PADS_INNER
10
0
20
0
0
INSERT
2
PAD_1
8
PADS_BOT
10
0
20
0
0
INSERT
2
PAD_0
8
PADS_TOP
10
0
20
0
0
ENDBLK
0
BLOCK
2
STK_BOT_15
8
0
10
0
20
0
3
STK_BOT_15
70
64
0
INSERT
2
DRIL_HOLE_0
8
DRIL_PLTE_THRU_01
10
0
20
0
0
INSERT
2
DRIL_HOLE_0
8
DRIL_PLTE_THRU_02
10
0
20
0
0
INSERT
2
DRIL_HOLE_0
8
DRIL_PLTE_THRU_03
10
0
20
0
0
INSERT
2
DRIL_HOLE_0
8
DRIL_PLTE_THRU_04
10
0
20
0
0
INSERT
2
PAD_0
8
PADS_INNER
10
0
20
0
0
INSERT
2
PAD_2
8
PADS_BOT
10
0
20
0
0
INSERT
2
PAD_0
8
PADS_TOP
10
0
20
0
0
ENDBLK
0
BLOCK
2
STK_BOT_16
8
0
10
0
20
0
3
STK_BOT_16
70
64
0
INSERT
2
DRIL_HOLE_0
8
DRIL_PLTE_THRU_01
10
0
20
0
0
INSERT
2
DRIL_HOLE_0
8
DRIL_PLTE_THRU_02
10
0
20
0
0
INSERT
2
DRIL_HOLE_0
8
DRIL_PLTE_THRU_03
10
0
20
0
0
INSERT
2
DRIL_HOLE_0
8
DRIL_PLTE_THRU_04
10
0
20
0
0
INSERT
2
PAD_0
8
PADS_INNER
10
0
20
0
0
INSERT
2
PAD_3
8
PADS_BOT
10
0
20
0
0
INSERT
2
PAD_0
8
PADS_TOP
10
0
20
0
0
ENDBLK
0
BLOCK
2
STK_BOT_17
8
0
10
0
20
0
3
STK_BOT_17
70
64
0
INSERT
2
DRIL_HOLE_0$9
8
DRIL_NPLTE_THRU_01
10
0
20
0
0
INSERT
2
DRIL_HOLE_0$9
8
DRIL_NPLTE_THRU_02
10
0
20
0
0
INSERT
2
DRIL_HOLE_0$9
8
DRIL_NPLTE_THRU_03
10
0
20
0
0
INSERT
2
DRIL_HOLE_0$9
8
DRIL_NPLTE_THRU_04
10
0
20
0
0
INSERT
2
PAD_4
8
PADS_INNER
10
0
20
0
0
INSERT
2
PAD_4
8
PADS_BOT
10
0
20
0
0
INSERT
2
PAD_4
8
PADS_TOP
10
0
20
0
0
ENDBLK
0
BLOCK
2
PART_BODY_BOT_291
8
0
10
0
20
0
3
PART_BODY_BOT_291
70
64
0
POLYLINE
8
PART_BOT_2DLINE_126
66
1
40
0.10008
41
0.10008
70
1
0
VERTEX
8
PART_BOT_2DLINE_126
10
0.450088
20
0
42
1
0
VERTEX
8
PART_BOT_2DLINE_126
10
-0.450088
20
0
42
1
0
SEQEND
0
ENDBLK
0
BLOCK
2
STK_BOT_62
8
0
10
0
20
0
3
STK_BOT_62
70
64
0
INSERT
2
DRIL_HOLE_0
8
DRIL_PLTE_THRU_01
10
0
20
0
0
INSERT
2
DRIL_HOLE_0
8
DRIL_PLTE_THRU_02
10
0
20
0
0
INSERT
2
DRIL_HOLE_0
8
DRIL_PLTE_THRU_03
10
0
20
0
0
INSERT
2
DRIL_HOLE_0
8
DRIL_PLTE_THRU_04
10
0
20
0
0
INSERT
2
PAD_0
8
PADS_INNER
10
0
20
0
0
INSERT
2
PAD_5
8
PADS_BOT
10
0
20
0
0
INSERT
2
PAD_0
8
PADS_TOP
10
0
20
0
0
ENDBLK
0
BLOCK
2
PART_BODY_BOT_317
8
0
10
0
20
0
3
PART_BODY_BOT_317
70
64
0
POLYLINE
8
PART_BOT_2DLINE_126
66
1
40
0.1
41
0.1
70
1
0
VERTEX
8
PART_BOT_2DLINE_126
10
0.6
20
0
42
1
0
VERTEX
8
PART_BOT_2DLINE_126
10
-0.6
20
0
42
1
0
SEQEND
0
ENDBLK
0
BLOCK
2
STK_BOT_98
8
0
10
0
20
0
3
STK_BOT_98
70
64
0
INSERT
2
DRIL_HOLE_0
8
DRIL_PLTE_THRU_01
10
0
20
0
0
INSERT
2
DRIL_HOLE_0
8
DRIL_PLTE_THRU_02
10
0
20
0
0
INSERT
2
DRIL_HOLE_0
8
DRIL_PLTE_THRU_03
10
0
20
0
0
INSERT
2
DRIL_HOLE_0
8
DRIL_PLTE_THRU_04
10
0
20
0
0
INSERT
2
PAD_6
8
PADS_XR_121
10
0
20
0
0
INSERT
2
PAD_0
8
PADS_INNER
10
0
20
0
0
INSERT
2
PAD_7
8
PADS_BOT
10
0
20
0
0
INSERT
2
PAD_0
8
PADS_TOP
10
0
20
0
0
ENDBLK
0
BLOCK
2
PART_BODY_BOT_322
8
0
10
0
20
0
3
PART_BODY_BOT_322
70
64
0
POLYLINE
8
PART_BOT_COPPER_121
66
1
40
1
41
1
70
1
0
VERTEX
8
PART_BOT_COPPER_121
10
0.5
20
0
42
1
0
VERTEX
8
PART_BOT_COPPER_121
10
-0.5
20
0
42
1
0
SEQEND
0
POLYLINE
8
PART_BOT_CUTOUT_01
66
1
40
0.15
41
0.15
70
1
0
VERTEX
8
PART_BOT_CUTOUT_01
10
1.725
20
0
42
1
0
VERTEX
8
PART_BOT_CUTOUT_01
10
-1.725
20
0
42
1
0
SEQEND
0
ENDBLK
0
BLOCK
2
STK_BOT_107
8
0
10
0
20
0
3
STK_BOT_107
70
64
0
INSERT
2
DRIL_HOLE_0
8
DRIL_PLTE_THRU_01
10
0
20
0
0
INSERT
2
DRIL_HOLE_0
8
DRIL_PLTE_THRU_02
10
0
20
0
0
INSERT
2
DRIL_HOLE_0
8
DRIL_PLTE_THRU_03
10
0
20
0
0
INSERT
2
DRIL_HOLE_0
8
DRIL_PLTE_THRU_04
10
0
20
0
0
INSERT
2
PAD_0
8
PADS_INNER
10
0
20
0
0
INSERT
2
PAD_7
8
PADS_BOT
10
0
20
0
0
INSERT
2
PAD_0
8
PADS_TOP
10
0
20
0
0
ENDBLK
0
BLOCK
2
SYM_TOP_74
8
0
10
0
20
0
3
SYM_TOP_74
70
64
0
TEXT
8
SYM_NAME
10
0
20
0
40
1.778
1
MARK-1
41
0.75
0
INSERT
2
PART_BODY_TOP_323
8
0
10
0
20
0
0
INSERT
2
STK_TOP_107
8
0
10
0
20
0
0
TEXT
8
SYM_TERMINAL
10
0
20
-3.048
40
1.778
1
1
0
ENDBLK
0
BLOCK
2
PART_BODY_TOP_323
8
0
10
0
20
0
3
PART_BODY_TOP_323
70
64
0
POLYLINE
8
PART_TOP_COPPER_121
66
1
40
1
41
1
70
1
0
VERTEX
8
PART_TOP_COPPER_121
10
0.5
20
0
42
1
0
VERTEX
8
PART_TOP_COPPER_121
10
-0.5
20
0
42
1
0
SEQEND
0
POLYLINE
8
PART_TOP_CUTOUT_01
66
1
40
0.15
41
0.15
70
1
0
VERTEX
8
PART_TOP_CUTOUT_01
10
1.725
20
0
42
1
0
VERTEX
8
PART_TOP_CUTOUT_01
10
-1.725
20
0
42
1
0
SEQEND
0
ENDBLK
0
BLOCK
2
STK_TOP_107
8
0
10
0
20
0
3
STK_TOP_107
70
64
0
INSERT
2
DRIL_HOLE_0
8
DRIL_PLTE_THRU_01
10
0
20
0
0
INSERT
2
DRIL_HOLE_0
8
DRIL_PLTE_THRU_02
10
0
20
0
0
INSERT
2
DRIL_HOLE_0
8
DRIL_PLTE_THRU_03
10
0
20
0
0
INSERT
2
DRIL_HOLE_0
8
DRIL_PLTE_THRU_04
10
0
20
0
0
INSERT
2
PAD_0
8
PADS_INNER
10
0
20
0
0
INSERT
2
PAD_0
8
PADS_BOT
10
0
20
0
0
INSERT
2
PAD_7
8
PADS_TOP
10
0
20
0
0
ENDBLK
999
*** POWERPCB  PCB PARAMETER ***
0
BLOCK
2
PCB_PARAMS
8
0
10
0
20
0
3
PCB_PARAMS
70
64
999
 *  1.Job name           2.Backupfile name       3.CursorType
999
 *  4.TearDropFlag       5.HighlighNetsFlag      6.HatchDisplayFlag
999
 *  7.PadsFlag           8.TracksFlag            9.ViasFlag
999
 * 10.CopperFlag        11.LinesFlag            12.TextFlag
999
 * 13.TopComponentFlag  14.BottomComponentFlag  16.ObjectSnapFlags
0
TEXT
8
PCB_PARAMS
10
0
20
-3.048
40
1.778
1
A:=CM3_IO_V133_202302142222.pcb <> 5 0 1 1 1 1 1 1 1 1 1 1 32 502 0
999
 *  1.RefDesHeight       2.RefDesWidth           3.DefaultWidth
999
 *  4.VGX                5.VGY                   6.OVR
999
 *  7.HatchGrid          8.ObjectSnapRadius
0
TEXT
8
PCB_PARAMS
10
0
20
-6.096
40
1.778
1
B:=2.54 0.254 0.1 0.05 0.05 0.0762 0.1 2.54
999
 *  1.ScaleFactor        2.NetAttributeFlags     3.BackupInterval
999
 *  4.WorkingLevel       5.HatchMode             6.HatchDirection
999
 *  7.ConnectionColor    8.BackgroundColor       9.ForegroundColor
999
 * 10.BoardOutlineColor
0
TEXT
8
PCB_PARAMS
10
0
20
-9.144
40
1.778
1
C:=5.9608659744 10002 3 1 0 0 8 0 8 8
999
 * MitreAngle0 - MitreAngle6
0
TEXT
8
PCB_PARAMS
10
0
20
-12.192
40
1.778
1
D:=324000000 324000000 324000000 324000000 324000000 324000000 324000000
999
 * Hatch & Keepout Parameters
0
TEXT
8
PCB_PARAMS
10
0
20
-15.24
40
1.778
1
E:=0.1 0 0 2.54 0 1
999
 * Fanout Parameters
0
TEXT
8
PCB_PARAMS
10
0
20
-18.288
40
1.778
1
F:=0.01 0.01 6.35 1 2 0 1 1 0 0 1 1 1 1
999
 * Pad Entry Parameters
0
TEXT
8
PCB_PARAMS
10
0
20
-21.336
40
1.778
1
P:= 1 1 1 1
999
 * DFF Parameters
0
TEXT
8
PCB_PARAMS
10
0
20
-24.384
40
1.778
1
Q:=89.9999 3967 114300 114300 114300 5 4 114300 114300 114300 114300 1 114300 1 114300 1 114300 0
0
ENDBLK
0
BLOCK
2
DRIL_SYMBOL_0
8
0
10
0
20
0
3
DRIL_SYMBOL_0
70
64
0
ENDBLK
0
BLOCK
2
DRIL_SYMBOL_0$9
8
0
10
0
20
0
3
DRIL_SYMBOL_0$9
70
64
0
POLYLINE
8
DRIL_SYMBOL
66
1
40
0.0508
41
0.0508
0
VERTEX
8
DRIL_SYMBOL
10
0
20
-0.254
0
VERTEX
8
DRIL_SYMBOL
10
0
20
0.254
0
SEQEND
0
POLYLINE
8
DRIL_SYMBOL
66
1
40
0.0508
41
0.0508
0
VERTEX
8
DRIL_SYMBOL
10
-0.254
20
0
0
VERTEX
8
DRIL_SYMBOL
10
0.254
20
0
0
SEQEND
0
ENDBLK
999
*** POWERPCB  SMOOTH CIRCLE ***
0
BLOCK
2
SMOOTH_0$1
8
0
10
0
20
0
3
SMOOTH_0$1
70
64
0
POLYLINE
8
0
66
1
40
0.05
41
0.05
70
1
0
VERTEX
8
0
10
-0.025
20
0
42
1
0
VERTEX
8
0
10
0.025
20
0
42
1
0
SEQEND
0
ENDBLK
0
BLOCK
2
SMOOTH_0$10008
8
0
10
0
20
0
3
SMOOTH_0$10008
70
64
0
POLYLINE
8
0
66
1
40
0.05004
41
0.05004
70
1
0
VERTEX
8
0
10
-0.02502
20
0
42
1
0
VERTEX
8
0
10
0.02502
20
0
42
1
0
SEQEND
0
ENDBLK
0
BLOCK
2
PAD_0
8
0
10
0
20
0
3
PAD_0
70
64
0
POLYLINE
8
0
70
1
66
1
0
VERTEX
8
0
10
0
20
0
42
1
0
VERTEX
8
0
10
0
20
0
42
1
0
SEQEND
0
ENDBLK
0
BLOCK
2
PAD_1
8
0
10
0
20
0
3
PAD_1
70
64
0
POLYLINE
8
0
66
1
40
0.699998
41
0.699998
0
VERTEX
8
0
10
-0.799998
20
0
0
VERTEX
8
0
10
0.799998
20
0
0
SEQEND
0
ENDBLK
0
BLOCK
2
PAD_2
8
0
10
0
20
0
3
PAD_2
70
64
0
POLYLINE
8
0
66
1
40
1.3999966667
41
1.3999966667
0
VERTEX
8
0
10
-0.799998
20
0
0
VERTEX
8
0
10
0.799998
20
0
0
SEQEND
0
ENDBLK
0
BLOCK
2
PAD_3
8
0
10
0
20
0
3
PAD_3
70
64
0
POLYLINE
8
0
66
1
40
1.1999973333
41
1.1999973333
0
VERTEX
8
0
10
-1.0999973333
20
0
0
VERTEX
8
0
10
1.0999973333
20
0
0
SEQEND
0
ENDBLK
0
BLOCK
2
PAD_4
8
0
10
0
20
0
3
PAD_4
70
64
0
POLYLINE
8
0
70
1
66
1
40
0.45
41
0.45
0
VERTEX
8
0
10
0
20
-0.225
42
1
0
VERTEX
8
0
10
0
20
0.225
42
1
0
SEQEND
0
ENDBLK
0
BLOCK
2
PAD_5
8
0
10
0
20
0
3
PAD_5
70
64
0
POLYLINE
8
0
70
1
66
1
40
0.35
41
0.35
0
VERTEX
8
0
10
0
20
-0.175
42
1
0
VERTEX
8
0
10
0
20
0.175
42
1
0
SEQEND
0
ENDBLK
0
BLOCK
2
PAD_6
8
0
10
0
20
0
3
PAD_6
70
64
0
POLYLINE
8
0
70
1
66
1
40
0.55
41
0.55
0
VERTEX
8
0
10
0
20
-0.275
42
1
0
VERTEX
8
0
10
0
20
0.275
42
1
0
SEQEND
0
ENDBLK
0
BLOCK
2
PAD_7
8
0
10
0
20
0
3
PAD_7
70
64
0
POLYLINE
8
0
70
1
66
1
40
0.5
41
0.5
0
VERTEX
8
0
10
0
20
-0.25
42
1
0
VERTEX
8
0
10
0
20
0.25
42
1
0
SEQEND
0
ENDBLK
999
*** POWERPCB  DRILL HOLE ***
0
BLOCK
2
DRIL_HOLE_0
8
0
10
0
20
0
3
DRIL_HOLE_0
70
64
0
POLYLINE
8
0
66
1
70
1
0
VERTEX
8
0
10
0
20
0
42
1
0
VERTEX
8
0
10
0
20
0
42
1
0
SEQEND
0
INSERT
2
DRIL_SYMBOL_0
8
0
10
0
20
0
0
ENDBLK
0
BLOCK
2
DRIL_HOLE_0$9
8
0
10
0
20
0
3
DRIL_HOLE_0$9
70
64
0
POLYLINE
8
0
66
1
40
0.45
41
0.45
70
1
0
VERTEX
8
0
10
-0.225
20
0
42
1
0
VERTEX
8
0
10
0.225
20
0
42
1
0
SEQEND
0
INSERT
2
DRIL_SYMBOL_0$9
8
0
10
0
20
0
0
ENDBLK
0
ENDSEC
0
SECTION
2
ENTITIES
999
*** POWERPCB  DBLAYER ***
0
INSERT
2
DBLAYERS
8
0
10
0
20
0
999
*** POWERPCB  BOARD ***
0
INSERT
2
BOARD_1
8
0
10
-3.5
20
86.5
999
*** POWERPCB  2DLINE ***
0
INSERT
2
DRAWING_9
8
0
10
151.65
20
81.85
999
*** POWERPCB  COMPONENT ***
0
INSERT
2
PART_BOT_150
8
0
10
121
20
-0.46
50
-270
41
-1
0
INSERT
2
PART_BOT_249
8
0
10
66.5
20
83.9
41
-1
0
INSERT
2
PART_BOT_250
8
0
10
63.9
20
83.85
41
-1
0
INSERT
2
PART_BOT_251
8
0
10
65.15
20
83.85
41
-1
0
INSERT
2
PART_BOT_252
8
0
10
141.45
20
58.3
41
-1
0
INSERT
2
PART_BOT_253
8
0
10
135.6
20
73.5
41
-1
0
INSERT
2
PART_BOT_254
8
0
10
137.1
20
65.55
41
-1
0
INSERT
2
PART_BOT_452
8
0
10
129.7
20
0.1
50
-9.462
41
-1
0
INSERT
2
PART_BOT_453
8
0
10
137.1
20
66.85
41
-1
0
INSERT
2
PART_BOT_454
8
0
10
135.6
20
71.1
41
-1
0
INSERT
2
PART_BOT_455
8
0
10
129.7
20
3.1
50
-9.462
41
-1
0
INSERT
2
PART_BOT_456
8
0
10
129.7
20
4.6
50
-9.462
41
-1
0
INSERT
2
PART_BOT_457
8
0
10
129.7
20
-1.4
50
-9.462
41
-1
0
INSERT
2
PART_BOT_458
8
0
10
129.7
20
1.6
50
-9.462
41
-1
0
INSERT
2
PART_BOT_459
8
0
10
126.95
20
25.8
50
-90
41
-1
0
INSERT
2
PART_BOT_460
8
0
10
13.25
20
58.85
50
-180
41
-1
0
INSERT
2
PART_BOT_461
8
0
10
11.95
20
58.85
50
-180
41
-1
0
INSERT
2
PART_BOT_462
8
0
10
135.6
20
72.35
41
-1
0
INSERT
2
PART_BOT_521
8
0
10
137.85
20
81.45
41
-1
0
INSERT
2
PART_BOT_522
8
0
10
135.3
20
81.45
41
-1
0
INSERT
2
PART_BOT_523
8
0
10
130.25
20
81.45
41
-1
0
INSERT
2
PART_BOT_539
8
0
10
121.4
20
83.6
41
-1
0
INSERT
2
PART_BOT_540
8
0
10
5.9
20
-1.15
41
-1
999
*** POWERPCB  PCB PARAMETER ***
0
INSERT
2
PCB_PARAMS
8
0
10
0
20
0
0
ENDSEC
0
EOF
